<svg width="256" height="216" viewBox="0 0 256 216" fill="none" xmlns="http://www.w3.org/2000/svg">
<path d="M110.529 0.00197929C106.09 0.0842012 100.535 2.85267 96.5615 1.89709C94.9763 1.51406 93.038 1.34962 91.1409 1.45289C91.1068 1.4549 91.0727 1.45089 91.0396 1.45289C89.1104 1.5672 87.2273 1.9743 85.8396 2.82359C85.7824 2.85869 85.7163 2.89078 85.6591 2.92386C85.6053 3.00327 85.5442 3.07746 85.4766 3.14546C83.6326 4.99044 79.5546 5.15789 77.6565 7.05602C76.1073 8.6062 74.6704 11.5732 72.9608 14.2314C72.9448 14.2564 72.9368 14.2865 72.9207 14.3116C66.8363 21.4057 61.9812 30.1343 60.2636 37.2686C58.8518 43.1294 58.8718 51.0457 56.5546 56.8785C55.9068 58.5099 53.2206 67.5382 55.3052 69.294C56.725 70.4902 62.7784 71.4057 64.5562 69.294C65.5127 68.1579 74.2874 65.3172 77.0318 62.0585C80.2635 58.2211 81.931 51.5922 84.147 46.0152C84.499 45.1278 84.9532 44.1862 85.4766 43.2537C86.734 45.6883 87.7317 47.6756 88.2581 48.8979C89.3551 51.4398 90.5613 54.9553 91.564 58.7124C89.3922 62.0394 90.2976 66.5897 91.8659 68.6693C85.5177 70.6456 88.5419 77.4761 88.2982 77.7187C87.8801 78.1368 86.5565 78.6954 86.0211 79.2308C85.3593 79.8926 85.255 81.2743 85.255 82.274C85.255 83.2386 85.3773 84.0959 85.5578 84.854C79.7812 99.3852 74.3285 117.574 67.4389 127.381C65.4546 128.285 63.4261 129.062 61.0487 129.537C56.4172 130.696 44.7106 132.99 34.848 136.309C34.3908 136.908 33.8923 137.473 33.356 138.002C32.3793 138.979 30.424 138.98 29.4454 139.958C28.6863 140.718 26.317 139.862 25.5569 140.622C23.3008 142.879 19.9718 144.05 16.4263 145.823C16.0332 146.019 14.7718 145.522 14.471 145.823C12.8606 147.433 9.97686 148.362 8.60616 149.733C5.92492 152.413 3.67786 155.326 0.786055 158.218C-2.0877 161.092 3.77412 169.005 4.69661 169.928C7.41194 172.643 12.4004 173.076 15.1157 175.793C16.2588 176.935 20.0891 175.407 21.4649 176.317C21.8198 176.367 22.1377 176.431 22.3523 176.538C26.3531 178.539 34.2022 180.018 38.939 181.597C45.4676 183.773 50.6466 189.589 57.3808 191.271C62.5076 192.554 68.3303 193.235 73.5043 194.96C75.6681 195.681 78.2952 195.187 80.3979 195.887C84.3295 197.198 87.8801 198.825 91.4628 200.019C92.7041 200.433 94.3435 199.701 95.614 200.019C98.4757 200.734 101.568 200.941 104.362 201.874C109.337 203.531 115.974 200.214 120.949 201.874C124.228 202.967 144.643 201.217 146.285 199.576C147.491 198.368 152.08 199.901 153.661 199.112C155.032 198.426 159.196 199.099 160.11 198.185C162.471 195.823 167.318 195.72 170.692 194.034C172.111 193.324 174.298 194.305 175.771 193.569C176.618 193.146 178.338 193.667 180.205 194.476C183.757 194.402 186.49 194.033 190.041 194.033C194.262 194.033 200.09 192.028 206.265 188.994C213.1 187.455 221.454 185.677 221.845 185.286C224.815 182.316 232.707 183.17 235.652 180.226C237.738 178.141 240.417 177.294 242.565 175.148C244.477 173.235 247.105 171.045 249.86 168.738C250.341 167.401 251.568 166.143 252.702 165.01C253.177 164.534 256.533 154.715 255.927 153.501C254.817 151.28 252.982 149.443 250.868 147.737C250.212 147.512 249.71 147.283 249.477 147.052C247.219 144.794 241.81 144.443 239.803 142.436C236.571 139.205 231.712 136.3 225.916 134.355C224.702 133.753 223.566 133.112 222.752 132.299C221.719 131.266 215.753 129.948 214.004 129.073C213.064 128.603 211.018 129.332 210.317 128.63C208.614 126.929 201.482 125.715 196.329 124.075C195.577 124.123 194.371 123.549 194.153 123.33C193.997 123.174 190.003 122.587 188.69 121.274C188.541 121.124 188.005 115.773 188.005 115.107C188.005 114.86 187.408 113.869 187.763 113.514C187.818 113.459 187.873 113.394 187.924 113.333C185.54 98.6372 183.716 82.4094 181.998 80.9635C179.448 78.8167 178.031 66.9607 175.227 64.5983C172.294 62.1286 170.458 59.4284 168.193 57.3227C168.191 57.3157 168.194 57.3086 168.193 57.3026C167.341 52.617 165.721 47.3528 165.21 46.9226C164.378 46.2227 165.638 43.0471 164.807 42.3473C162.22 40.1684 158.849 27.3598 156.422 25.3163C153.244 22.6391 151.68 18.4859 148.662 15.944C141.205 9.66506 128.819 0.319837 115.125 1.02975C114.544 0.864478 113.972 0.66936 113.412 0.445175C112.541 0.0992418 111.554 -0.0170721 110.529 0.00197929Z" fill="#3C6991"/>
<path d="M107.573 81.3245C106.423 81.1179 105.298 81.1059 104.415 81.3987C102.946 81.886 100.578 80.7309 99.0438 81.0076C93.2431 82.0555 88.6958 83.6267 87.9137 85.576C96.522 83.1083 106.079 88.6172 109.993 93.8513C111.622 96.0272 109.111 99.3251 109.997 101.993C110.198 102.599 110.358 106.468 109.661 106.99C108.204 108.079 108.349 111.881 107.145 113.617C104.31 117.7 101.837 120.684 99.4288 124.153C96.9461 127.731 90.3052 128.447 86.5992 129.678C85.781 129.949 84.7492 129.384 83.8869 129.67C83.6823 129.738 83.4447 129.75 83.207 129.716C83.2903 129.81 83.3875 129.901 83.4557 129.993C83.7685 130.41 85.2927 130.013 85.7379 130.322C88.6176 132.321 100.013 131.554 103.173 130.505C105.138 129.853 106.963 128.889 108.928 128.236C111.449 127.4 113.931 123.479 115.742 121.461C121.969 114.518 124.815 102.494 121.735 93.2146C120.187 88.55 116.134 85.7544 112.684 83.358C111.504 82.5398 109.49 81.6704 107.573 81.3245ZM121.462 72.3633C121.091 72.3513 121.04 75.9821 121.011 77.7127C120.837 77.7228 120.845 77.9404 120.891 78.188C119.02 79.0193 114.945 80.6838 115.258 81.0167C115.273 81.0247 115.274 81.0347 115.281 81.0407C115.133 81.0477 114.979 81.0979 114.972 81.3014C114.958 81.5712 115.511 81.3165 115.78 81.3255C116.214 81.3405 120.003 82.7373 121.509 83.371C121.696 84.8019 122.246 85.6572 122.246 87.2926C122.246 88.3124 122.447 89.7171 122.507 89.7171C122.53 89.7171 122.571 89.6871 122.602 89.67C122.646 89.8465 122.697 89.9508 122.769 89.8836C123.065 89.6068 123.601 88.8638 124.148 88.0296C124.172 87.9935 124.197 87.9704 124.218 87.9343C125.179 86.7451 126.276 85.222 127.214 83.8453C129.032 84.11 130.696 84.3216 131.112 84.3216C131.313 84.3216 138.218 85.5078 136.224 83.5124C136.103 83.3911 135.961 83.2878 135.82 83.1795C135.864 83.1444 135.889 83.1093 135.89 83.0612C135.905 82.6761 132.05 80.9034 131.421 80.2325C131.117 79.9077 130.679 79.7011 130.375 79.3762C130.295 79.291 130.446 79.0534 130.684 78.7104V78.6874C131.221 78.0958 131.792 77.4841 132.205 77.07C132.404 76.8725 133.519 74.7838 132.461 74.9222C131.747 75.0145 129.414 75.1629 126.358 76.0573C126.358 76.0573 125.534 74.9784 125.528 74.9814C124.864 74.7106 122.985 72.4144 121.46 72.3633H121.462Z" fill="#E6B35A"/>
<path d="M104.21 71.8247C103.99 71.931 103.656 72.3631 103.55 72.1425C103.444 71.9229 104.429 71.7184 104.21 71.8247C103.553 72.1415 101.015 74.4287 101.951 75.1517C102.72 75.7463 105.574 74.6343 106.786 75.0574C106.966 75.1206 108.979 78.2069 109.294 77.3055C109.808 75.8345 109.171 73.3348 109.187 73.2886C109.425 72.6108 111.283 72.8886 111.736 72.67C112.111 72.4895 112.872 72.1686 112.976 71.8678C113.005 71.7876 113.026 71.5469 113.063 71.6241C113.093 71.6873 112.566 71.1759 111.925 70.9523C110.966 70.6174 109.995 70.827 109.308 70.5863C108.992 70.476 109.374 68.612 109.257 68.3734C108.88 67.5913 108.641 66.6718 108.707 66.8091C108.894 67.1982 107.895 67.1902 107.632 67.5311C107.303 67.9562 106.441 69.3981 105.884 69.3911C105.217 69.3811 102.542 68.7444 102.363 69.2578C102.348 69.2878 104.028 70.9513 104.21 71.8247ZM130.06 97.7687C129.881 97.6022 129.358 97.4488 129.523 97.2704C129.69 97.0909 130.239 97.9351 130.061 97.7687C129.526 97.2734 126.471 95.7432 126.139 96.8763C125.865 97.8108 127.942 100.063 127.989 101.345C128.004 101.537 125.855 104.536 126.81 104.5C128.367 104.443 130.464 102.939 130.511 102.938C131.23 102.911 131.647 104.743 132.017 105.085C132.322 105.368 132.897 105.96 133.215 105.948C133.302 105.945 133.533 105.876 133.474 105.938C133.427 105.989 133.71 105.313 133.684 104.634C133.647 103.618 133.099 102.791 133.072 102.064C133.057 101.728 134.934 101.405 135.114 101.21C135.706 100.573 136.473 100.016 136.37 100.127C136.076 100.443 135.72 99.5094 135.306 99.3881C134.789 99.2377 133.133 98.9609 132.937 98.4395C132.703 97.8138 132.321 95.0915 131.777 95.1115C131.746 95.1125 130.808 97.2814 130.061 97.7687H130.06Z" fill="#E6B35A"/>
<path d="M188.851 121.878C188.33 123.67 185.066 129.412 183.691 130.787C181.924 132.555 180.404 134.397 178.854 135.947C177.756 137.045 174.622 139.856 173.694 140.784C171.679 142.799 170.497 142.046 168.213 144.331C167.08 145.464 164.8 145.486 163.697 146.589C162.701 147.585 154.698 148.186 152.734 149.169C152.258 149.406 150.838 148.807 150.476 149.169C149.064 150.579 137.909 151.094 137.577 151.425C135.869 153.133 131.322 151.167 128.87 152.393C126.696 153.48 122.38 152.715 119.841 152.715C118.434 152.715 114.699 152.689 110.852 152.595C109.943 152.465 109.227 152.364 109.199 152.393C109.179 152.412 109.092 152.502 109.038 152.554C108.316 152.532 107.619 152.502 106.922 152.473C106.487 152.308 106.026 152.206 105.652 152.393C105.635 152.401 105.61 152.404 105.592 152.413C102.59 152.268 100.139 152.055 99.5253 151.748C97.0014 150.486 94.2911 150.135 91.1406 150.135C86.2083 150.135 75.2878 144.305 71.4685 142.396C70.884 142.104 69.2626 140.403 68.3852 139.937C68.3782 139.6 68.3662 139.293 68.2448 139.172C67.3454 138.272 66.9513 136.264 66.3096 134.979C66.0419 134.444 66.3096 132.483 66.3096 132.721C66.3096 132.732 66.9574 130.142 66.9543 130.142C66.4019 130.142 63.5121 133.907 62.4392 134.979C62.4291 134.989 62.4592 135.047 62.4793 135.1C61.8756 135.932 61.4525 137.175 61.4525 139.05C61.4525 145.442 64.977 145.78 68.2849 149.087C69.0971 149.9 70.8348 149.36 71.4685 149.995C72.1163 150.642 73.0668 151.217 74.1899 151.727C72.7861 152.552 70.0788 152.755 69.1914 153.643C68.324 154.51 64.3012 157.005 62.8021 157.754C62.5214 157.894 61.1577 158.049 60.9882 158.218C52.4693 166.737 42.8553 172.239 34.9881 180.106C34.3263 180.768 34.0816 189.418 34.0816 191.05C34.0816 193.899 33.114 196.915 34.9891 198.789C35.7792 199.581 38.4023 199.018 39.1002 199.717C39.2516 199.867 41.1587 201.286 41.3773 201.067C42.2096 200.234 40.9141 195.884 40.9141 194.698C40.9141 188.471 41.5859 182.175 45.4894 178.272C53.0157 170.746 63.7467 167.311 70.5621 160.495C72.5655 158.492 76.2364 157.425 78.9066 155.235C78.8123 155.877 78.9216 156.482 79.3899 156.988C79.7007 157.325 80.8097 156.659 81.2038 156.867C83.881 158.287 92.0431 161.331 94.4455 158.399C94.8817 159.228 95.2266 160.067 95.6548 160.495C97.2551 162.094 96.0037 169.814 95.1916 171.44C92.1263 177.569 90.5099 195.268 87.8949 197.882C87.4436 198.333 88.4363 202.634 88.8023 203.365C89.7519 205.265 88.1064 209.501 88.8023 210.197C89.4862 210.881 89.045 212.697 89.7298 213.382C90.3515 214.004 93.1982 213.221 93.8209 213.845C94.0675 214.092 97.3123 216.3 97.9319 215.68C98.4463 215.165 96.5252 209.237 96.098 208.383C95.731 207.647 97.0887 194.151 97.4687 193.771C98.0001 193.24 96.9373 191.119 97.4687 190.586C98.5045 189.551 99.7458 168.083 99.7458 165.05C99.7458 164.539 101.054 161.34 100.21 160.495C100.205 160.49 99.4541 158.765 98.4363 157.089C99.9404 157.2 101.208 157.382 101.581 157.754C102.25 158.424 115.743 157.754 117.986 157.754C126.896 157.754 140.913 157.064 146.263 155.92C148.397 155.464 153.456 155.065 156.3 153.643C157.953 152.816 163.77 152.252 164.786 151.99C166.958 151.43 173.939 149.75 175.891 147.798C177.339 146.349 182.292 141.332 184.115 140.421C186.17 139.393 187.203 135.742 188.408 134.052C188.563 132.8 191.931 129.53 191.27 128.207C190.519 125.153 190.051 121.996 188.851 121.878Z" fill="#E6B35A"/>
</svg>
