<svg width="191" height="256" viewBox="0 0 191 256" fill="none" xmlns="http://www.w3.org/2000/svg">
<path d="M13.1162 62.2194C13.1162 62.2194 17.5003 79.1275 18.1254 84.7649C18.752 90.4007 6.85376 102.926 6.85376 109.188C6.85376 115.452 9.35491 126.724 23.1345 132.362C36.9142 137.998 38.791 152.401 38.791 161.171C38.791 169.938 33.7818 186.846 33.7818 186.846C33.7818 186.846 30.6518 228.805 47.5599 236.32C64.4666 243.834 60.7114 243.834 64.4666 243.834C68.2187 243.834 95.7749 255.114 112.06 250.727C128.344 246.349 132.723 241.336 132.723 241.336C132.723 241.336 149.007 242.589 154.013 228.184C159.026 213.787 162.151 183.724 160.271 169.946C158.392 156.168 155.885 138.011 167.157 131.745C178.428 125.486 190.327 117.967 188.447 111.708C186.567 105.45 176.548 96.6769 176.548 96.6769C176.548 96.6769 174.042 81.0265 175.914 77.2668C177.794 73.5147 189.066 64.1153 182.799 57.2301C176.541 50.3448 165.262 50.3448 165.262 50.3448L150.864 51.5904C150.864 51.5904 126.45 29.6654 94.5071 30.9187C62.5875 32.1719 42.5431 51.582 42.5431 51.582C42.5431 51.582 31.8981 47.8238 22.5041 51.582C13.1047 55.3418 11.2325 51.582 13.1124 62.227L13.1162 62.2194Z" fill="#FBA919"/>
<path d="M70.3401 155.462C70.3401 155.462 57.9375 174.425 48.8415 187.882C47.4339 189.963 57.9382 190.108 57.9382 190.108L70.3408 155.462H70.3401ZM76.2449 116.147C76.2449 116.147 72.5065 125.473 70.4585 130.417C68.2348 135.793 59.76 138.466 59.76 138.466C59.76 138.466 64.154 133.858 64.154 122.185C64.154 117.294 70.4761 115.345 70.4761 115.345L76.2456 116.155L76.2449 116.147Z" fill="#E78724"/>
<path d="M72.4684 121.42C72.4684 121.42 64.8091 130.537 50.5878 125.432C36.3634 120.327 34.9053 102.09 34.9053 96.9833C34.9053 91.8771 61.8938 102.09 65.5412 104.278C69.1886 106.467 76.1151 115.219 72.4684 121.42ZM18.7468 23.9953C18.7468 23.9953 31.8754 21.4399 40.6283 28.3702C49.3842 35.299 51.9335 40.7713 51.9335 40.7713L37.1811 52.4654C37.1811 52.4654 30.0528 49.1596 27.8635 39.6762C25.6764 30.1943 27.1352 25.8186 18.7468 23.9953Z" fill="#E78724"/>
<path d="M68.64 95.0843C62.9866 87.0604 53.6713 83.5605 46.2343 82.9797C33.5513 81.9885 27.5303 86.472 27.5303 86.472C27.5303 86.472 48.3006 87.3508 54.2872 95.2142C65.4319 109.848 81.6906 111.037 84.2903 107.823C81.284 107.973 77.9767 106.483 74.437 103.136C72.2255 101.043 70.4327 97.6313 68.6392 95.0843H68.64ZM33.5765 123.456C33.5765 123.456 10.532 115.534 14.9107 107.512C19.2871 99.4867 15.8048 95.1148 15.8048 95.1148C15.8048 95.1148 2.93604 104.721 6.21436 114.931C8.23026 121.198 11.611 125.737 30.1751 134.433C39.0793 150.97 32.0137 180.742 32.4371 180.88C33.1424 181.109 44.939 175.049 44.1336 147.195C43.889 138.636 43.2089 126.967 33.5803 123.444L33.5765 123.456ZM63.7752 38.2654C54.1122 43.1745 40.8744 50.0108 40.8744 50.0108L46.0845 52.6166C45.5878 53.4229 45.3471 53.9035 45.3471 53.9035L50.6887 56.3351C50.6887 56.3351 63.7408 65.7918 71.7417 71.8709C69.0748 63.6598 61.242 50.7589 61.242 50.7589C61.242 50.7589 59.0182 44.8312 63.7637 38.2646L63.7752 38.2654ZM95.8752 238.373C66.1755 238.373 56.1151 223.296 56.1151 223.296L60.7567 234.598C62.5113 239.488 81.2275 254.703 95.8309 254.703" fill="#E78724"/>
<path d="M59.3704 213.106C59.3704 213.106 62.1023 229.807 73.0438 229.807C82.3416 229.807 85.0811 215.7 85.0811 212.785L59.3704 213.106ZM41.1616 187.92C42.1336 185.244 45.5373 174.425 46.6308 164.579C47.9376 152.786 47.4638 135.538 47.4638 135.538C47.4638 135.538 44.5446 146.844 41.9846 148.671C39.4323 150.493 34.6867 162.892 34.6867 162.892C34.6867 162.892 32.142 181.351 30.9346 187.556C34.2817 188.226 37.0939 186.254 41.144 187.92H41.1616ZM14.7394 114.75C14.7394 114.75 20.9369 112.56 22.7633 99.068C24.5858 85.5726 20.5732 73.9021 20.5732 73.9021C20.5732 73.9021 20.9377 92.5022 18.7506 96.1503C16.5605 99.7955 14.7387 100.891 12.1848 105.634C9.63014 110.376 13.2776 113.291 14.7394 114.75Z" fill="#E78724"/>
<path d="M22.1397 27.1862L20.875 26.3838C17.1435 26.5106 22.1397 27.1862 22.1397 27.1862Z" fill="#FDC168"/>
<path d="M68.8202 34.2703C68.8202 34.2703 62.9865 33.2983 60.0674 28.9226C57.1482 24.5454 48.8829 15.791 35.7054 15.6932C22.531 15.5938 9.49414 19.1954 9.49414 19.1954L20.8727 26.3787C22.0771 26.3405 24.1816 26.3557 27.6617 26.4704C41.9426 26.9442 44.1411 41.0661 44.1411 41.0661L94.4775 34.1351" fill="#FBA919"/>
<path d="M73.6833 112.29C73.6833 112.29 66.8745 119.098 56.419 116.908C45.9628 114.721 39.64 110.101 39.154 102.076C38.668 94.0517 41.3441 90.8918 41.3441 90.8918C41.3441 90.8918 53.0207 94.5446 58.6145 99.4048C64.2083 104.273 68.3425 112.052 73.6917 112.296L73.6833 112.29Z" fill="white"/>
<path d="M65.444 109.858C65.444 109.858 59.5392 112.556 52.939 110.358C44.2992 107.477 43.723 98.4902 43.723 98.4902C43.723 98.4902 38.4235 114.045 53.2829 117.039C65.2025 119.44 72.2513 112.534 72.2513 112.534L65.444 109.859V109.858Z" fill="#C9C9C9"/>
<path d="M69.6409 30.9706C69.0051 17.6311 79.9404 7.00597 83.7292 6.55511C83.9386 8.81478 83.5183 17.6318 87.3056 20.3431C88.409 13.1438 92.1382 5.20404 106.864 0C103.71 8.36468 106.444 15.3714 107.744 18.6192C117.801 9.49184 124.575 11.0003 124.575 11.0003C124.575 11.0003 117.588 23.0567 120.321 30.9683C100.135 29.3849 69.7387 33.1125 69.6409 30.9706ZM26.8447 51.29C22.0281 47.2934 25.6182 43.5848 25.2376 39.0448C25.0313 36.63 24.8402 34.3497 24.0432 33.0919C19.611 26.0936 9.15704 23.9699 9.05006 23.9478L4.14404 22.9864L7.39179 19.1862C7.81209 18.6941 21.1546 5.96593 41.8027 12.6295C56.2456 17.288 66.9364 33.082 67.3338 33.7208L60.0971 37.1252C60.013 36.9907 51.5612 22.1451 39.1739 18.1507C29.1632 14.9183 19.9319 17.9925 15.9735 20.0077C20.1765 21.6858 25.6709 24.7417 28.9874 29.9695C30.554 32.4378 30.8138 35.548 31.066 38.5573C31.4022 42.5425 31.7155 46.3045 34.65 48.7407L26.8554 51.2892L26.8447 51.29ZM13.9805 109.621C13.9805 109.621 20.0481 102.096 21.8462 87.4539C22.5523 81.6867 21.2983 70.3111 19.2916 65.9347C19.6561 76.6943 16.9211 87.4539 16.9211 87.4539C16.9211 87.4539 15.0794 107.433 13.9866 109.621H13.9805Z" fill="#463014"/>
<path d="M45.979 43.6896C45.976 43.6743 44.0319 35.1782 38.6429 30.8896C31.0394 24.8419 21.7561 28.0591 21.6667 28.0874L20.3218 23.9226C20.7726 23.7774 31.3871 20.4342 41.1609 27.3079C50.9958 34.2207 52.1803 40.4869 52.2796 41.1793L45.9828 43.6896H45.979ZM33.04 104.225C33.04 104.225 29.8564 99.6671 30.4288 94.6548C30.7138 92.1789 31.8608 89.6388 33.9088 88.7371C37.7144 87.0711 39.4033 91.3811 39.4033 91.3811C39.4033 91.3811 34.0464 92.7031 33.0453 104.227L33.04 104.225Z" fill="#463014"/>
<path d="M67.9957 111.171C68.1287 111.419 68.1967 111.558 68.1967 111.558C68.1967 111.558 58.267 119.011 48.0912 111.448C42.6427 107.398 43.1577 97.3798 44.8267 93.131C49.1672 94.1167 52.8475 95.8896 55.924 97.9605C52.0359 94.4912 48.6323 91.9388 48.6414 91.8777L44.2222 90.6245L35.6329 87.6824C35.5228 88.3396 32.3897 103.027 41.433 113.03C45.4411 117.47 64.2322 127.404 73.1539 110.417L67.9957 111.188V111.171Z" fill="#463014"/>
<path d="M67.0655 112.263C72.6562 120.772 86.7622 115.91 86.5192 106.914C86.5192 106.914 77.0938 112.115 68.7673 102.538C63.9049 96.9519 48.3256 81.5308 27.2 86.6584C41.7896 89.8679 61.1042 103.195 67.0655 112.274V112.263Z" fill="#463014"/>
<path d="M25.227 136.278C26.572 137.055 31.3144 141.967 31.3175 149.315C31.3175 152.998 30.9507 171.506 29.1274 182.812C31.8708 184.595 33.7812 184.974 36.5116 186.79C37.8795 173.695 38.8592 154.716 38.4022 147.054C37.8825 138.32 33.2058 132.459 28.8729 129.96C27.5203 129.179 26.0989 128.411 24.6699 127.638C17.2421 123.625 9.56215 119.473 9.56215 112.384C9.56215 106.838 11.7171 105.103 14.002 103.265L14.2466 103.066C15.7596 101.842 17.479 100.454 18.4954 98.1753C21.2693 91.9449 21.7202 76.0753 18.4954 72.0458C16.8906 70.036 12.5806 63.2807 13.8186 58.7491C14.2924 57.0144 15.3852 55.7306 17.1581 54.8212C19.0379 53.8584 21.575 53.3693 24.7005 53.3693C30.8368 53.3693 37.6456 55.2339 41.1532 56.3496C53.701 60.3233 68.8393 71.786 73.1799 75.2095L73.3938 75.3699L76.1678 77.3033L74.4331 74.3918C74.3261 74.2084 63.3296 56.1203 43.6597 49.4873C39.8312 48.1958 32.3193 46.0332 24.9297 46.0332C20.5357 46.0332 16.7989 46.7974 13.8415 48.3105C10.2423 50.1521 7.80454 53.0942 6.78819 56.8081C4.30462 65.9171 12.3972 76.0577 12.6723 76.3863C13.6199 78.0675 14.0173 90.2943 11.8394 95.1927C11.5414 95.8652 10.7237 96.53 9.67678 97.3706C9.35582 97.6304 8.98902 97.9055 8.59929 98.1959C5.5273 100.511 0.881104 104.019 0.881104 112.096C0.881104 123.146 12.0916 129.145 21.0936 133.959C22.5761 134.754 23.9822 135.503 25.2583 136.237L25.227 136.278Z" fill="#463014"/>
<path d="M26.8447 51.2892C22.0281 47.2926 25.6182 43.5848 25.2376 39.0448C25.0313 36.63 24.8402 34.3497 24.0432 33.0919C19.611 26.0935 9.15704 23.9699 9.05006 23.9477L4.14404 22.9864L7.39179 19.1861C7.81209 18.694 21.1546 5.96588 41.8027 12.6295C56.2456 17.2879 66.9364 33.0819 67.3338 33.7208L60.0971 37.1252C60.013 36.9907 51.5612 22.145 39.1739 18.1507C29.1632 14.9182 19.9319 17.9925 15.9735 20.0076C20.1765 21.6858 25.6709 24.7417 28.9874 29.9694C30.554 32.4377 30.8138 35.5479 31.066 38.5573C31.4022 42.5424 31.7155 46.3045 34.65 48.7407L26.8554 51.2892H26.8447Z" fill="#463014"/>
<path d="M26.6882 52.1077L26.3772 51.8502C22.8054 48.8928 23.4389 45.966 24.0526 43.1462C24.3315 41.8471 24.6257 40.4945 24.5065 39.1114C24.3116 36.7883 24.1244 34.5951 23.4244 33.487C19.2062 26.8234 9.00441 24.6914 8.90507 24.6684L2.77637 23.461L6.84179 18.7155C6.91821 18.6314 15.4846 9.98096 29.9887 9.98096C33.9471 9.98096 37.9973 10.6381 42.0245 11.9449C57.0941 16.8051 67.8537 33.1814 67.953 33.3418L68.3886 34.0372L59.8222 38.0721L59.4783 37.5295C58.5613 35.963 50.4381 22.5669 38.9449 18.8607C36.125 17.9437 33.1524 17.4852 30.111 17.4852C24.6089 17.4852 20.1461 18.9906 17.7695 19.9917C21.7432 21.7798 26.5499 24.7907 29.599 29.5974C31.2572 32.2185 31.5247 35.4128 31.7845 38.5C32.1055 42.3438 32.4111 45.9584 35.1087 48.1974L36.125 49.038L26.6951 52.1329L26.6882 52.1077Z" fill="#463014"/>
<path d="M45.979 43.6896C45.976 43.6743 44.0319 35.1782 38.6429 30.8896C31.0394 24.8419 21.7561 28.0591 21.6667 28.0874L20.3218 23.9226C20.7726 23.7774 31.3871 20.4342 41.1609 27.3079C50.9958 34.2207 52.1803 40.4869 52.2796 41.1793L45.9828 43.6896H45.979Z" fill="#463014"/>
<path d="M45.4563 44.6829L45.2668 43.8469C45.2469 43.7652 43.3411 35.5602 38.186 31.4619C35.2485 29.1235 31.7057 27.9391 27.6632 27.9391C24.5072 27.9391 22.1612 28.6956 21.9052 28.7797L21.2082 29.0166L19.4048 23.461L20.1002 23.2394C20.4135 23.14 23.2257 22.2612 27.2147 22.2612C32.4722 22.2612 37.4394 23.8049 41.5888 26.724C51.676 33.8156 52.9063 40.3646 53.0133 41.0905L53.105 41.6637L45.4785 44.7051L45.4563 44.6829ZM27.6632 26.4787C31.9824 26.4787 35.9393 27.8069 39.0953 30.3179C43.6727 33.9631 45.8254 40.3974 46.4773 42.7052L51.4368 40.7283C50.9882 38.9768 49.0105 33.7208 40.7383 27.9054C36.7814 25.1238 32.2292 23.7147 27.2047 23.7147C24.4476 23.7147 22.3064 24.1533 21.2472 24.4208L22.1413 27.1871C23.1806 26.9074 25.1766 26.4787 27.6632 26.4787ZM72.5869 225.8C70.4319 225.8 68.2326 225.019 66.7081 223.699C65.5412 222.693 61.5957 219.068 59.855 214.628C59.2054 212.968 59.3506 211.64 60.2936 210.684C60.9431 210.029 62.2911 209.245 65.0277 209.245L66.9748 209.242C69.2979 209.24 73.2028 209.24 76.5423 209.24H79.7442C81.8304 209.24 83.3205 209.691 84.1764 210.57C85.2768 211.701 84.9253 213.145 84.6196 213.901C84.0847 215.231 81.8686 219.556 78.1088 223.568C76.7639 225.013 74.8076 225.807 72.5991 225.807L72.5869 225.8ZM74.845 112.763L67.0657 112.263C67.0657 112.263 69.0541 115.769 70.3425 120.304C71.7975 125.431 69.0128 132.928 69.0128 132.928C69.0128 132.928 79.3866 121.182 74.8458 112.761L74.845 112.763ZM65.1324 246.345C37.4401 244.217 27.6969 218.049 27.6969 212.599L34.929 212.602C34.9649 214.964 42.3247 237.346 65.6872 239.142L65.1331 246.356L65.1324 246.345Z" fill="#463014"/>
<path d="M57.3506 199.462C56.9181 196.961 56.873 194.589 57.4011 192.258C55.2965 190.677 51.52 190.088 48.6864 189.164C46.3633 187.696 34.5109 190.661 25.9063 180.253C15.1238 167.216 17.3934 159.429 17.3934 159.429C14.6271 162.501 11.9524 161.325 7.73418 175.645C3.51592 189.966 9.71339 199.946 21.2677 209.964C26.724 214.695 34.4422 216.643 41.0752 217.392C38.8515 215.161 44.8732 214.932 49.0226 213.38C48.6864 210.026 49.2443 206.778 51.7431 204.157C53.2485 202.575 55.1896 201.635 57.1993 200.878C57.314 200.619 57.4057 200.382 57.5127 200.13C57.4439 199.9 57.3827 199.671 57.3369 199.426L57.3506 199.462Z" fill="white"/>
<path d="M48.9777 213.32C48.7385 212.617 48.5574 211.899 48.3793 211.178C48.1883 210.391 47.2331 208.158 48.4099 210.706C48.1073 210.054 47.9094 209.381 47.7634 208.704C29.0563 208.68 12.7794 195.836 15.9278 168.83C13.4824 165.578 10.0513 175.386 10.0513 175.386C10.0513 175.386 0.690102 202.582 24.8763 213.121C32.9384 216.636 40.0605 219.157 41.7417 218.14C45.2416 218.85 48.4053 216.41 49.5898 214.806C49.3682 214.313 49.1695 213.82 48.9937 213.319L48.9777 213.32Z" fill="#C9C9C9"/>
<path d="M57.0136 195.547C57.0426 193.267 57.508 191.059 58.6107 188.86C58.6871 188.707 58.7765 188.562 58.8591 188.415C51.6605 188.354 43.3692 187.664 36.3082 184.839C28.5518 181.734 18.8468 171.114 17.1732 158.637C17.1732 158.637 2.56217 169.915 6.85684 194.054C10.8841 216.721 29.8509 224.11 51.4848 225.36C51.5 225.214 49.0547 220.164 49.8265 217.073C37.5462 217.967 23.8063 213.221 17.1809 202.309C11.1133 192.329 12.8174 175.28 15.3086 172.781C21.3991 191.985 43.2928 195.89 57.025 195.554L57.0136 195.547Z" fill="#463014"/>
<path d="M59.4314 181.67C55.5387 193.094 47.5867 202.339 47.5867 202.339C47.5867 202.339 58.5251 201.834 59.1288 199.901C59.5758 198.472 69.005 176.402 72.6242 150.543C69.2197 156.136 59.7646 180.682 59.4314 181.66V181.67Z" fill="#463014"/>
<path d="M121.248 155.462C121.248 155.462 133.647 174.425 142.747 187.882C144.154 189.963 133.647 190.108 133.647 190.108L121.248 155.462ZM115.341 116.147C115.341 116.147 119.081 125.473 121.126 130.417C123.35 135.793 131.824 138.466 131.824 138.466C131.824 138.466 127.43 133.858 127.43 122.185C127.43 117.294 121.109 115.345 121.109 115.345L115.347 116.155L115.341 116.147Z" fill="#E78724"/>
<path d="M119.117 121.42C119.117 121.42 126.777 130.537 141.002 125.432C155.227 120.327 156.684 102.09 156.684 96.9833C156.684 91.8771 129.696 102.09 126.049 104.278C122.4 106.467 115.472 115.219 119.117 121.42ZM172.839 23.9953C172.839 23.9953 159.71 21.4399 150.956 28.3702C142.199 35.299 139.646 40.7713 139.646 40.7713L154.395 52.4647C154.395 52.4647 161.525 49.1596 163.71 39.6762C165.896 30.1943 164.436 25.8186 172.827 23.9953H172.839Z" fill="#E78724"/>
<path d="M122.948 95.0843C128.601 87.0604 137.913 83.5605 145.354 82.9797C158.037 81.9885 164.055 86.472 164.055 86.472C164.055 86.472 143.285 87.3508 137.297 95.2142C126.152 109.848 109.899 111.037 107.299 107.823C110.302 107.973 113.611 106.483 117.149 103.136C119.358 101.043 121.153 97.6313 122.942 95.0843H122.948ZM158.01 123.456C158.01 123.456 181.053 115.534 176.677 107.511C172.301 99.4798 175.781 95.1087 175.781 95.1087C175.781 95.1087 188.652 104.714 185.37 114.924C183.355 121.19 179.975 125.729 161.41 134.426C152.5 150.962 159.569 180.735 159.148 180.872C158.438 181.102 146.646 175.042 147.449 147.187C147.693 138.636 148.373 126.96 158.002 123.437L158.01 123.456ZM127.813 38.2654C137.472 43.1745 150.713 50.0108 150.713 50.0108L145.509 52.6166C146.006 53.4229 146.25 53.9035 146.25 53.9035L140.909 56.3351C140.909 56.3351 127.857 65.7918 119.856 71.8709C122.523 63.6598 130.348 50.7589 130.348 50.7589C130.348 50.7589 132.572 44.8312 127.826 38.2646L127.813 38.2654ZM95.7131 238.373C125.409 238.373 135.469 223.296 135.469 223.296L130.831 234.598C129.076 239.488 110.359 254.703 95.7582 254.703" fill="#E78724"/>
<path d="M132.218 213.106C132.218 213.106 129.482 229.807 118.544 229.807C109.247 229.807 106.508 215.7 106.508 212.785L132.218 213.106ZM150.426 187.92C149.454 185.244 146.05 174.425 144.954 164.579C143.643 152.786 144.124 135.538 144.124 135.538C144.124 135.538 147.043 146.844 149.592 148.671C152.147 150.493 156.887 162.892 156.887 162.892C156.887 162.892 159.427 181.351 160.636 187.556C157.291 188.226 154.477 186.254 150.427 187.92H150.426ZM176.851 114.75C176.851 114.75 170.649 112.56 168.827 99.068C167.004 85.5726 171.016 73.9021 171.016 73.9021C171.016 73.9021 170.649 92.5022 172.835 96.1503C175.02 99.7978 176.846 100.891 179.399 105.634C181.951 110.375 178.298 113.291 176.846 114.75H176.851Z" fill="#E78724"/>
<path d="M169.446 27.1862L170.715 26.3838C174.446 26.5106 169.446 27.1862 169.446 27.1862Z" fill="#FDC168"/>
<path d="M122.765 34.2703C122.765 34.2703 128.602 33.2983 131.518 28.9226C134.437 24.5454 142.705 15.791 155.882 15.6932C169.058 15.5938 182.093 19.1954 182.093 19.1954L170.715 26.3787C169.51 26.3405 167.406 26.3557 163.923 26.4704C149.644 26.9442 147.445 41.0661 147.445 41.0661L97.1167 34.1351" fill="#FBA919"/>
<path d="M117.903 112.29C117.903 112.29 124.712 119.098 135.166 116.908C145.623 114.721 151.945 110.101 152.432 102.076C152.917 94.0517 150.244 90.8918 150.244 90.8918C150.244 90.8918 138.571 94.5446 132.979 99.4048C127.387 104.265 123.254 112.052 117.903 112.296V112.29Z" fill="white"/>
<path d="M126.141 109.858C126.141 109.858 132.048 112.556 138.646 110.358C147.289 107.477 147.864 98.4902 147.864 98.4902C147.864 98.4902 153.161 114.045 138.301 117.039C126.384 119.44 119.334 112.534 119.334 112.534L126.141 109.859V109.858Z" fill="#C9C9C9"/>
<path d="M164.743 51.2892C169.559 47.2926 165.971 43.5848 166.352 39.0448C166.555 36.63 166.746 34.3497 167.544 33.0919C171.976 26.0935 182.432 23.9699 182.54 23.9477L187.446 22.9864L184.198 19.1861C183.778 18.694 170.435 5.96588 149.787 12.6295C135.344 17.2879 124.653 33.0819 124.256 33.7208L131.493 37.1252C131.577 36.9907 140.028 22.145 152.423 18.1507C162.434 14.9182 171.665 17.9925 175.616 20.0076C171.413 21.6858 165.919 24.7417 162.602 29.9694C161.036 32.4377 160.776 35.5479 160.524 38.5573C160.187 42.5424 159.866 46.3045 156.932 48.7407L164.719 51.2892H164.743ZM177.604 109.621C177.604 109.621 171.539 102.096 169.74 87.4539C169.035 81.6866 170.287 70.3111 172.293 65.9347C171.928 76.6943 174.666 87.4539 174.666 87.4539C174.666 87.4539 176.51 107.433 177.604 109.621Z" fill="#463014"/>
<path d="M145.608 43.6896C145.612 43.6743 147.556 35.1782 152.946 30.8896C160.548 24.8419 169.832 28.0591 169.918 28.0874L171.271 23.9226C170.82 23.7774 160.21 20.4342 150.429 27.3079C140.586 34.2207 139.409 40.4869 139.302 41.1793L145.599 43.6896H145.608ZM158.548 104.225C158.548 104.225 161.731 99.6671 161.156 94.6548C160.873 92.1789 159.727 89.6388 157.679 88.7371C153.873 87.0711 152.186 91.3811 152.186 91.3811C152.186 91.3811 157.543 92.7031 158.548 104.227V104.225Z" fill="#463014"/>
<path d="M123.592 111.171C123.46 111.419 123.391 111.558 123.391 111.558C123.391 111.558 133.317 119.011 143.494 111.448C148.945 107.398 148.431 97.3798 146.757 93.131C142.42 94.1167 138.741 95.8896 135.661 97.9605C139.551 94.4912 142.954 91.9388 142.942 91.8777L147.365 90.6245L155.946 87.6824C156.053 88.3396 159.186 103.027 150.138 113.03C146.127 117.47 127.335 127.404 118.417 110.417L123.576 111.188L123.592 111.171Z" fill="#463014"/>
<path d="M124.52 112.263C118.929 120.772 104.827 115.91 105.071 106.914C105.071 106.914 114.494 112.115 122.82 102.538C127.682 96.9519 143.263 81.5308 164.389 86.6584C149.801 89.8679 130.484 103.195 124.52 112.274V112.263Z" fill="#463014"/>
<path d="M166.363 136.278C165.018 137.055 160.272 141.967 160.272 149.315C160.269 152.998 160.637 171.506 162.462 182.812C159.719 184.595 157.809 184.974 155.077 186.79C153.709 173.695 152.727 154.716 153.187 147.054C153.709 138.32 158.383 132.459 162.719 129.96C164.077 129.179 165.497 128.411 166.93 127.638C174.358 123.625 182.038 119.473 182.038 112.384C182.038 106.838 179.879 105.103 177.598 103.265L177.353 103.066C175.84 101.842 174.122 100.454 173.11 98.1753C170.336 91.9449 169.877 76.0753 173.102 72.0458C174.707 70.036 179.017 63.2807 177.779 58.7491C177.305 57.0144 176.212 55.7306 174.439 54.8212C172.559 53.8584 170.022 53.3693 166.897 53.3693C160.761 53.3693 153.952 55.2339 150.444 56.3496C137.896 60.3233 122.758 71.786 118.41 75.2095C118.288 75.3012 118.211 75.3623 118.196 75.3699L115.414 77.3033L117.149 74.3918C117.256 74.2084 128.252 56.1203 147.922 49.4873C151.751 48.1958 159.263 46.0332 166.652 46.0332C171.046 46.0332 174.776 46.7974 177.733 48.3105C181.332 50.1521 183.77 53.0942 184.786 56.8081C187.27 65.9171 179.185 76.0577 178.902 76.3863C177.955 78.0675 177.557 90.2943 179.735 95.1927C180.033 95.8652 180.858 96.53 181.898 97.3706C182.226 97.6304 182.585 97.9055 182.975 98.1959C186.047 100.511 190.693 104.019 190.693 112.096C190.693 123.146 179.491 129.145 170.489 133.959C169.014 134.754 167.6 135.503 166.331 136.237L166.363 136.278Z" fill="#463014"/>
<path d="M152.997 49.9886C151.215 46.9701 146.658 41.1417 136.153 36.0195C124.431 30.3065 110.864 27.4072 95.8222 27.3995V27.3965H95.7687V27.4041C80.7297 27.4118 67.158 30.3156 55.4355 36.024C44.9357 41.1517 40.3812 46.9747 38.593 49.9932L37.8289 51.0095L46.8225 53.0109L47.1113 52.6518L47.2619 52.3201C47.3994 51.7241 48.6068 48.5145 58.6359 43.6238C69.3573 38.3953 81.8592 35.7451 95.7978 35.7375C109.736 35.7436 122.238 38.3945 132.96 43.6238C142.986 48.5145 144.201 51.724 144.338 52.3186L144.483 52.6495L144.766 53.0086L153.761 51.0065L152.996 49.9947L152.997 49.9886Z" fill="#463014"/>
<path d="M164.743 51.2892C169.559 47.2926 165.971 43.5848 166.352 39.0448C166.555 36.63 166.746 34.3497 167.544 33.0919C171.976 26.0935 182.432 23.9699 182.54 23.9477L187.446 22.9864L184.198 19.1861C183.778 18.694 170.435 5.96588 149.787 12.6295C135.344 17.2879 124.653 33.0819 124.256 33.7208L131.493 37.1252C131.577 36.9907 140.028 22.145 152.423 18.1507C162.434 14.9182 171.665 17.9925 175.616 20.0076C171.413 21.6858 165.919 24.7417 162.602 29.9694C161.036 32.4377 160.776 35.5479 160.524 38.5573C160.187 42.5424 159.866 46.3045 156.932 48.7407L164.719 51.2892H164.743Z" fill="#463014"/>
<path d="M155.472 49.0197L156.485 48.1761C159.182 45.9386 159.485 42.3248 159.811 38.4833C160.072 35.3883 160.342 32.1941 161.998 29.573C165.041 24.7663 169.858 21.7631 173.827 19.9673C171.451 18.9585 166.986 17.4608 161.481 17.4608C158.44 17.4608 155.473 17.9193 152.65 18.8286C141.157 22.5349 133.037 35.9233 132.117 37.4975L131.773 38.04L123.207 34.0128L123.642 33.3174C123.744 33.1569 134.493 16.7806 149.567 11.9205C153.602 10.6137 157.652 9.95654 161.61 9.95654C176.122 9.95654 184.688 18.607 184.757 18.6911L188.823 23.4443L182.694 24.644C182.595 24.6593 172.393 26.799 168.175 33.4626C167.479 34.5707 167.296 36.7639 167.097 39.087C166.982 40.4701 167.273 41.8151 167.556 43.1218C168.167 45.9416 168.801 48.8684 165.232 51.8258L164.927 52.078L155.497 48.9831L155.472 49.0197Z" fill="#463014"/>
<path d="M145.608 43.6896C145.612 43.6743 147.556 35.1782 152.946 30.8896C160.548 24.8419 169.832 28.0591 169.918 28.0874L171.271 23.9226C170.82 23.7774 160.21 20.4342 150.429 27.3079C140.586 34.2207 139.409 40.4869 139.302 41.1793L145.599 43.6896H145.608Z" fill="#463014"/>
<path d="M138.505 41.6439L138.589 41.0723C138.696 40.3494 139.928 33.7973 150.01 26.7103C154.16 23.7958 159.134 22.2537 164.384 22.2537C168.373 22.2537 171.185 23.1325 171.499 23.2318L172.194 23.4611L170.391 29.0166L169.695 28.7874C169.436 28.7033 167.089 27.9468 163.941 27.9468C159.899 27.9468 156.36 29.1389 153.426 31.4773C148.275 35.5809 146.365 43.7805 146.35 43.8646L146.166 44.7052L138.54 41.6638L138.505 41.6439ZM169.446 27.1857L170.344 24.4209C169.285 24.1519 167.141 23.7148 164.384 23.7148C159.36 23.7148 154.806 25.1254 150.85 27.9055C142.576 33.7209 140.599 38.9769 140.15 40.7284L145.115 42.7053C145.764 40.3975 147.915 33.9616 152.494 30.318C155.657 27.8069 159.608 26.4788 163.926 26.4788C166.409 26.4788 168.412 26.9067 169.451 27.1864L169.446 27.1857ZM113.491 223.568C109.733 219.55 107.51 215.227 106.972 213.898C106.667 213.142 106.315 211.7 107.418 210.567C108.277 209.69 109.766 209.24 111.847 209.24H115.057C118.396 209.24 122.301 209.24 124.624 209.248L126.573 209.255C129.309 209.255 130.661 210.042 131.303 210.692C132.251 211.647 132.396 212.977 131.746 214.643C130.004 219.083 126.061 222.713 124.892 223.714C123.363 225.036 121.17 225.815 119.015 225.815C116.807 225.815 114.85 225.02 113.505 223.584L113.491 223.568ZM116.743 112.764L124.52 112.263C124.52 112.263 122.533 115.769 121.245 120.304C119.785 125.431 122.575 132.928 122.575 132.928C122.575 132.928 112.197 121.182 116.736 112.761L116.743 112.764Z" fill="#463014"/>
<path d="M95.795 84.984C90.8355 84.984 84.3705 84.8488 79.5195 81.3618C79.5195 81.3618 85.8714 92.4974 95.7866 92.4974L95.7942 91.0883L95.8034 92.4974C105.719 92.4974 112.07 81.3633 112.07 81.3633C107.219 84.848 100.749 84.9855 95.795 84.9855V84.984Z" fill="#E78724"/>
<path d="M109.448 84.9304C104.474 87.9413 100.032 88.9844 95.7949 89.0768C91.5568 88.9851 87.1161 87.9413 82.1414 84.9312C82.1414 84.9312 89.3857 93.7727 95.759 93.8415V93.8491H95.7941C95.8056 93.8491 95.8171 93.8568 95.8301 93.8568C102.203 93.788 109.455 84.9541 109.455 84.9541L109.448 84.9304ZM126.455 246.345L125.9 239.135C149.261 237.339 156.62 214.954 156.659 212.598H163.895C163.903 218.047 154.152 244.217 126.466 246.344L126.455 246.345Z" fill="#463014"/>
<path d="M134.237 199.462C134.671 196.961 134.713 194.589 134.185 192.258C136.293 190.677 140.067 190.088 142.9 189.164C145.217 187.696 157.077 190.661 165.68 180.253C176.457 167.216 174.185 159.429 174.185 159.429C176.952 162.501 179.628 161.325 183.843 175.645C188.061 189.966 181.86 199.946 170.308 209.964C164.852 214.695 157.135 216.643 150.499 217.392C152.723 215.161 146.709 214.932 142.559 213.38C142.896 210.026 142.338 206.778 139.839 204.157C138.341 202.575 136.4 201.635 134.39 200.878C134.276 200.619 134.184 200.382 134.077 200.13C134.146 199.9 134.207 199.671 134.253 199.426L134.237 199.462Z" fill="white"/>
<path d="M142.606 213.32C142.849 212.617 143.026 211.899 143.205 211.178C143.4 210.391 144.355 208.158 143.176 210.706C143.479 210.054 143.677 209.381 143.823 208.704C162.531 208.68 178.807 195.836 175.66 168.83C178.109 165.578 181.541 175.386 181.541 175.386C181.541 175.386 190.907 202.582 166.718 213.121C158.658 216.636 151.536 219.157 149.855 218.14C146.351 218.85 143.191 216.41 142.009 214.806C142.231 214.313 142.437 213.82 142.613 213.319L142.606 213.32Z" fill="#C9C9C9"/>
<path d="M134.571 195.547C134.545 193.267 134.076 191.059 132.977 188.86C132.899 188.707 132.809 188.562 132.728 188.415C139.927 188.354 148.218 187.664 155.279 184.839C163.039 181.734 172.746 171.114 174.414 158.637C174.414 158.637 189.03 169.915 184.735 194.054C180.7 216.721 161.736 224.11 140.104 225.36C140.093 225.214 142.538 220.164 141.765 217.073C154.045 217.967 167.785 213.221 174.418 202.309C180.486 192.329 178.781 175.28 176.29 172.781C170.207 191.985 148.306 195.89 134.574 195.554L134.571 195.547Z" fill="#463014"/>
<path d="M143.306 201.232C140.722 198.438 135.97 195.108 125.014 195.108L95.8377 195.091H95.7689C87.363 195.097 66.585 195.108 66.585 195.108C55.6343 195.108 50.8812 198.44 48.2982 201.232C44.5309 205.298 43.9424 210.955 46.5483 218.025C53.4717 236.844 63.2073 255.963 95.7766 255.989V255.992H95.8148C95.83 255.992 95.8377 256 95.853 256C128.422 255.977 138.158 236.857 145.081 218.036C147.687 210.967 147.099 205.312 143.331 201.247L143.306 201.232ZM138.235 216.705C134.936 226.155 126.069 249.028 95.7926 249.068C65.5129 249.028 56.6499 226.156 53.3502 216.705C51.5254 211.463 51.6644 207.583 53.7782 205.172C55.2225 203.525 58.539 201.558 66.0967 201.558L73.9929 201.556C79.8182 201.55 87.1322 201.544 95.7949 201.54C104.453 201.544 111.771 201.55 117.595 201.556L125.489 201.559C133.049 201.559 136.364 203.523 137.809 205.165C139.92 207.573 140.061 211.455 138.235 216.697V216.705Z" fill="#463014"/>
<path d="M132.158 181.67C136.051 193.094 144.001 202.339 144.001 202.339C144.001 202.339 133.066 201.834 132.462 199.901C132.019 198.472 122.589 176.402 118.975 150.543C122.383 156.136 131.836 180.682 132.172 181.66L132.158 181.67Z" fill="#463014"/>
</svg>
