<svg width="196" height="256" viewBox="0 0 196 256" fill="none" xmlns="http://www.w3.org/2000/svg">
<path d="M195.888 84.2835C195.888 69.2122 191.941 55.0826 184.988 42.8371C166.553 23.8631 126.452 19.4673 116.494 42.7472C106.267 66.6106 133.673 93.1651 145.65 91.0567C160.901 88.3655 142.958 53.3779 142.958 53.3779C166.283 97.3367 160.901 83.88 118.736 124.25C76.5723 164.62 33.5108 249.801 27.2311 253.389C26.962 253.569 26.6929 253.703 26.3787 253.838H191.761C194.677 253.838 196.561 250.743 195.26 248.141L152.019 162.557C151.078 160.717 151.75 158.43 153.544 157.398C178.843 142.865 195.888 115.593 195.888 84.2835Z" fill="url(#paint0_linear_24_583)"/>
<path d="M195.888 84.2835C195.888 69.2122 191.941 55.0826 184.988 42.8371C166.553 23.8631 126.452 19.4673 116.494 42.7472C106.267 66.6106 133.673 93.1651 145.65 91.0567C160.901 88.3655 142.958 53.3779 142.958 53.3779C166.283 97.3367 160.901 83.88 118.736 124.25C76.5723 164.62 33.5108 249.801 27.2311 253.389C26.962 253.569 26.6929 253.703 26.3787 253.838H191.761C194.677 253.838 196.561 250.743 195.26 248.141L152.019 162.557C151.078 160.717 151.75 158.43 153.544 157.398C178.843 142.865 195.888 115.593 195.888 84.2835Z" fill="url(#paint1_linear_24_583)"/>
<path d="M27.2312 253.39C33.5112 249.801 76.5726 164.576 118.737 124.206C160.901 83.8355 166.284 97.2921 142.959 53.3337C142.959 53.3337 53.6961 178.481 21.4001 240.382" fill="url(#paint2_linear_24_583)"/>
<path d="M39.7907 141.25C100.077 30.4121 107.971 19.243 139.37 19.243C155.877 19.243 172.518 26.6891 183.284 39.9216C168.616 16.2826 142.644 0.448544 112.905 0H10.5001C8.34685 0 6.59741 1.74938 6.59741 3.90243V210.328C12.6979 194.584 23.0595 172.066 39.7907 141.25Z" fill="url(#paint3_linear_24_583)"/>
<path d="M118.737 124.205C76.5722 164.576 33.5108 249.801 27.2311 253.39C20.9514 256.978 10.4103 257.427 4.80328 251.147C-1.16244 244.463 -10.4475 233.653 39.7908 141.251C100.077 30.4125 107.971 19.2434 139.37 19.2434C155.877 19.2434 172.518 26.6895 183.284 39.9219C183.867 40.864 184.45 41.8505 185.033 42.8374C166.598 23.8636 126.497 19.4677 116.539 42.7478C106.311 66.6109 133.718 93.1654 145.695 91.0573C160.946 88.3661 143.004 53.3785 143.004 53.3785C166.284 97.2921 160.901 83.8355 118.737 124.205Z" fill="url(#paint4_linear_24_583)"/>
<path opacity="0.3" d="M44.7249 146.185C105.011 35.3465 112.905 24.1776 144.304 24.1776C157.895 24.1776 171.576 29.2462 181.983 38.3968C171.218 26.1063 155.249 19.2434 139.37 19.2434C107.971 19.2434 100.077 30.4125 39.7908 141.251C-10.4475 233.653 -1.16244 244.463 4.80328 251.147C5.65576 252.089 6.64232 252.896 7.674 253.569C2.426 245.944 0.0935254 228.226 44.7249 146.185Z" fill="url(#paint5_linear_24_583)"/>
<defs>
<linearGradient id="paint0_linear_24_583" x1="71.8484" y1="136.339" x2="140.926" y2="152.487" gradientUnits="userSpaceOnUse">
<stop stop-color="#FF6533"/>
<stop offset="0.157" stop-color="#FF5633"/>
<stop offset="0.434" stop-color="#FF4333"/>
<stop offset="0.714" stop-color="#FF3733"/>
<stop offset="1" stop-color="#FF3333"/>
</linearGradient>
<linearGradient id="paint1_linear_24_583" x1="61.0443" y1="113.441" x2="184.846" y2="209.432" gradientUnits="userSpaceOnUse">
<stop stop-color="#BF3338"/>
<stop offset="1" stop-color="#FF3333"/>
</linearGradient>
<linearGradient id="paint2_linear_24_583" x1="65.083" y1="132.35" x2="83.0254" y2="151.189" gradientUnits="userSpaceOnUse">
<stop stop-color="#FF6533"/>
<stop offset="0.157" stop-color="#FF5633"/>
<stop offset="0.434" stop-color="#FF4333"/>
<stop offset="0.714" stop-color="#FF3733"/>
<stop offset="1" stop-color="#FF3333"/>
</linearGradient>
<linearGradient id="paint3_linear_24_583" x1="97.7043" y1="164.78" x2="92.3216" y2="87.6285" gradientUnits="userSpaceOnUse">
<stop stop-color="#FF6533"/>
<stop offset="0.157" stop-color="#FF5633"/>
<stop offset="0.434" stop-color="#FF4333"/>
<stop offset="0.714" stop-color="#FF3733"/>
<stop offset="1" stop-color="#FF3333"/>
</linearGradient>
<linearGradient id="paint4_linear_24_583" x1="74.3857" y1="131.028" x2="99.8718" y2="148.358" gradientUnits="userSpaceOnUse">
<stop stop-color="#FBB040"/>
<stop offset="1" stop-color="#FB8840"/>
</linearGradient>
<linearGradient id="paint5_linear_24_583" x1="100.495" y1="33.04" x2="74.4788" y2="319.219" gradientUnits="userSpaceOnUse">
<stop stop-color="white"/>
<stop offset="1" stop-color="white" stop-opacity="0"/>
</linearGradient>
</defs>
</svg>
