<svg width="256" height="256" viewBox="0 0 256 256" fill="none" xmlns="http://www.w3.org/2000/svg">
<path d="M128 256C198.692 256 256 198.692 256 128C256 57.3076 198.692 0 128 0C57.3076 0 0 57.3076 0 128C0 198.692 57.3076 256 128 256Z" fill="url(#paint0_linear_34_14)"/>
<path d="M217.6 116.838H185.635L190.562 110.161L155.244 110.08L137.992 134.008H171.52L156.711 156.378H131.413L162.133 182.613L223.573 156.378H193.169L217.6 116.838Z" fill="white"/>
<path d="M210.773 82.7733H174.933L170.011 89.6H205.735L210.773 82.7733Z" fill="white"/>
<path d="M201.012 96H165.396L160 103.485H195.488L201.012 96Z" fill="white"/>
<path d="M128.522 113.132C128.522 119.174 126.884 124.641 123.608 129.533C120.331 134.425 115.561 138.022 109.297 140.324L131.413 181.76H95.5656L77.931 145.647H66.0782V181.76H34.1333V82.7733H94.9879C102.118 82.7733 108.19 84.1641 113.201 86.9461C118.308 89.6316 122.115 93.3239 124.62 98.0241C127.222 102.628 128.522 107.664 128.522 113.132ZM95.9991 114.426C95.9991 111.836 95.1322 109.678 93.3973 107.952C91.6634 106.225 89.5428 105.362 87.0374 105.362H66.0782V123.634H87.0374C89.5428 123.634 91.6634 122.771 93.3973 121.044C95.1322 119.222 95.9991 117.016 95.9991 114.426Z" fill="white"/>
<defs>
<linearGradient id="paint0_linear_34_14" x1="128" y1="0" x2="128" y2="256" gradientUnits="userSpaceOnUse">
<stop stop-color="#F0DB4F"/>
<stop offset="0.92" stop-color="#FF5D13"/>
</linearGradient>
</defs>
</svg>
