<svg width="256" height="206" viewBox="0 0 256 206" fill="none" xmlns="http://www.w3.org/2000/svg">
<path d="M2.05883 185.19L117.062 5.97228C118.239 4.14058 119.858 2.63387 121.769 1.59032C123.68 0.546894 125.822 0 128 0C130.177 0 132.32 0.546894 134.231 1.59032C136.142 2.63387 137.761 4.14058 138.938 5.97228L253.94 185.19C255.201 187.153 255.909 189.421 255.992 191.753C256.074 194.085 255.527 196.396 254.408 198.444C253.289 200.491 251.641 202.201 249.634 203.392C247.627 204.582 245.337 205.211 243.004 205.212H12.9964C10.6629 205.211 8.37272 204.582 6.366 203.392C4.35928 202.201 2.71004 200.491 1.59145 198.444C0.472734 196.396 -0.07416 194.085 0.00807859 191.753C0.0903172 189.421 0.798709 187.153 2.05883 185.19ZM127.7 114.978C127.764 114.9 127.845 114.838 127.937 114.795C128.029 114.752 128.128 114.73 128.229 114.73L176.196 114.766C176.32 114.766 176.441 114.734 176.547 114.671C176.653 114.609 176.742 114.518 176.801 114.41C176.861 114.301 176.89 114.179 176.885 114.055C176.882 113.931 176.844 113.812 176.777 113.708L128.388 36.8975C128.326 36.7991 128.241 36.718 128.138 36.6618C128.036 36.6056 127.922 36.5761 127.805 36.5761C127.69 36.5761 127.575 36.6056 127.473 36.6618C127.371 36.718 127.286 36.7991 127.223 36.8975L61.8098 142.922C61.7478 143.025 61.7142 143.144 61.7124 143.264C61.7107 143.386 61.7409 143.505 61.7999 143.61C61.8589 143.716 61.9448 143.804 62.0487 143.866C62.1527 143.928 62.271 143.96 62.3919 143.963H102.685C102.785 143.963 102.886 143.94 102.976 143.898C103.068 143.855 103.149 143.793 103.214 143.716L127.7 114.978Z" fill="#2E5E82"/>
</svg>
