<svg width="256" height="256" viewBox="0 0 256 256" fill="none" xmlns="http://www.w3.org/2000/svg">
<path fill-rule="evenodd" clip-rule="evenodd" d="M90.136 84.6892C87.1277 84.6892 84.6892 87.1277 84.6892 90.136V165.864C84.6892 168.872 87.1277 171.311 90.136 171.311H165.864C168.872 171.311 171.311 168.872 171.311 165.864V90.136C171.311 87.1277 168.872 84.6892 165.864 84.6892H90.136ZM54.0105 49.0213C51.255 49.0213 49.0213 51.255 49.0213 54.0105V201.989C49.0213 204.745 51.255 206.979 54.0105 206.979H201.989C204.745 206.979 206.979 204.745 206.979 201.989V54.0105C206.979 51.255 204.745 49.0213 201.989 49.0213H54.0105Z" fill="black"/>
<path fill-rule="evenodd" clip-rule="evenodd" d="M0 223.319V130.723H38.1277V206.979C38.1277 207.797 38.2181 208.594 38.3891 209.361L5.81609 241.934C2.1493 236.652 0 230.237 0 223.319ZM13.4269 249.729C18.8269 253.673 25.4818 256 32.6809 256H125.277V217.872H49.0213C47.8905 217.872 46.8006 217.7 45.775 217.38L13.4269 249.729ZM136.17 217.872V256H223.319C241.368 256 256 241.368 256 223.319V32.6809C256 14.6318 241.368 0 223.319 0H130.723V38.1277H206.979C212.995 38.1277 217.872 43.0047 217.872 49.0213V206.979C217.872 212.995 212.995 217.872 206.979 217.872H136.17Z" fill="url(#paint0_linear_81_653)"/>
<defs>
<linearGradient id="paint0_linear_81_653" x1="140.586" y1="18.0001" x2="14.5904" y2="143.142" gradientUnits="userSpaceOnUse">
<stop stop-color="#0096FF"/>
<stop offset="1" stop-color="#FF1E56"/>
</linearGradient>
</defs>
</svg>
