<svg width="227" height="257" viewBox="0 0 227 257" fill="none" xmlns="http://www.w3.org/2000/svg">
<path d="M113.123 0.100098L226.246 64.0894V192.111L113.123 256.1L0 192.111V64.0894L113.123 0.100098Z" fill="white"/>
<path d="M206.056 187.671L116.88 238.171V198.898L172.46 168.291L206.056 187.671ZM212.16 182.164V76.6397L179.546 95.4651V163.339L212.16 182.164ZM19.8505 187.671L109.026 238.128V198.855L53.4459 168.291L19.8505 187.671ZM13.7461 182.164V76.6397L46.3597 95.4651V163.339L13.7461 182.164ZM17.5453 69.8096L109.026 18.0718V56.0641L50.4151 88.2936L49.9455 88.5497L17.5453 69.8096ZM208.318 69.8096L116.88 18.0718V56.0641L175.448 88.3362L175.918 88.5924L208.318 69.8096Z" fill="#8ED6FB"/>
<path d="M109.024 189.934L54.2129 159.753V100.033L109.024 131.665V189.934ZM116.879 189.934L171.69 159.796V100.033L116.879 131.665V189.934ZM57.8841 93.1174L112.952 62.8516L167.976 93.1174L112.952 124.877L57.8841 93.1174Z" fill="#1C78C0"/>
</svg>
