<svg width="241" height="256" viewBox="0 0 241 256" fill="none" xmlns="http://www.w3.org/2000/svg">
<path d="M211.579 255.996L165.688 210.29L164.987 210.39V209.889L67.3941 113.365L91.4417 90.1111L77.3139 8.9231L10.2814 92.1159C-1.14117 103.643 -3.24532 122.386 4.97092 136.218L46.8536 205.779C53.2663 216.504 64.8891 222.919 77.414 222.818L98.1552 222.618L211.579 255.996Z" fill="#18B6F6"/>
<path d="M236.625 90.5116L227.406 73.4723L222.597 64.7522L220.693 61.3442L220.493 61.5448L195.243 17.7433C188.93 6.71773 177.107 -0.0980821 164.282 0.00106723L142.138 0.603495L76.1071 0.803976C63.5826 0.904215 52.1602 7.51954 45.8475 18.2444L5.66818 98.0291L77.5101 8.72233L171.696 112.362L154.963 129.301L164.983 210.389L165.083 210.189V210.389H164.883L165.083 210.589L172.899 218.208L210.874 255.394C212.477 256.897 215.082 255.093 213.98 253.188L190.534 206.982L231.414 131.306L232.717 129.803C233.218 129.201 233.718 128.6 234.12 127.999C242.136 117.073 243.238 102.439 236.625 90.5116Z" fill="#AC7EF4"/>
</svg>
