<svg width="256" height="212" viewBox="0 0 256 212" fill="none" xmlns="http://www.w3.org/2000/svg">
<mask id="mask0_6_327" style="mask-type:luminance" maskUnits="userSpaceOnUse" x="118" y="185" width="65" height="27">
<path d="M118.214 211.884L160 208.622C160 208.622 174.291 206.291 182.68 192.466L153.165 185.321L118.214 211.884Z" fill="white"/>
</mask>
<g mask="url(#mask0_6_327)">
<path d="M187.806 186.408L180.194 224.466L112.932 210.796L120.699 172.738L187.806 186.408Z" fill="url(#paint0_linear_6_327)"/>
</g>
<mask id="mask1_6_327" style="mask-type:luminance" maskUnits="userSpaceOnUse" x="25" y="113" width="158" height="83">
<path d="M60.4272 113.864C48 114.486 25.0097 116.66 25.0097 116.66L125.204 189.515L148.039 195.262L182.68 192.622L81.864 119.612C81.864 119.612 73.7864 113.864 62.1359 113.864C61.5145 113.864 61.0485 113.864 60.4272 113.864Z" fill="white"/>
</mask>
<g mask="url(#mask1_6_327)">
<path d="M69.1262 266.097L-11.6505 136.699L138.408 43.0293L219.34 172.427L69.1262 266.097Z" fill="url(#paint1_linear_6_327)"/>
</g>
<mask id="mask2_6_327" style="mask-type:luminance" maskUnits="userSpaceOnUse" x="189" y="73" width="67" height="27">
<path d="M189.67 99.4174L232.699 96.7766C232.699 96.7766 247.456 94.6019 255.845 80.932L225.243 73.3203L189.67 99.4174Z" fill="white"/>
</mask>
<g mask="url(#mask2_6_327)">
<path d="M205.359 127.534L178.485 79.3787L240.155 45.0486L267.029 93.2039L205.359 127.534Z" fill="url(#paint2_linear_6_327)"/>
</g>
<mask id="mask3_6_327" style="mask-type:luminance" maskUnits="userSpaceOnUse" x="92" y="0" width="164" height="83">
<path d="M128.777 0C115.884 0.466019 92.2719 2.3301 92.2719 2.3301L196.66 76.8932L220.272 82.9515L256 80.7767L150.99 6.05825C150.99 6.05825 142.291 0 130.019 0C129.709 0 129.243 0 128.777 0Z" fill="white"/>
</mask>
<g mask="url(#mask3_6_327)">
<path d="M229.748 -59.9612L286.447 69.7476L118.524 143.068L61.8253 13.3592L229.748 -59.9612Z" fill="url(#paint3_linear_6_327)"/>
</g>
<mask id="mask4_6_327" style="mask-type:luminance" maskUnits="userSpaceOnUse" x="0" y="116" width="148" height="96">
<path d="M0.15534 132.816C5.9026e-07 132.971 0 133.127 0 133.282L27.4951 153.165L54.6796 172.894L100.35 205.981C115.728 217.01 136.544 212.35 147.107 195.262L119.301 175.224L91.4951 155.185L46.2913 122.253C40.699 118.214 34.4854 116.35 28.2718 116.35C17.3981 116.35 6.67961 122.097 0.15534 132.816Z" fill="white"/>
</mask>
<g mask="url(#mask4_6_327)">
<path d="M194.951 150.835L96.6213 286.913L-47.8447 182.525L50.3301 46.447L194.951 150.835Z" fill="url(#paint4_linear_6_327)"/>
</g>
<mask id="mask5_6_327" style="mask-type:luminance" maskUnits="userSpaceOnUse" x="67" y="2" width="154" height="98">
<path d="M67.8835 18.3302C67.8835 18.4856 67.7282 18.6409 67.5728 18.7962L96.1553 39.1457L124.738 59.3399L172.272 93.204C188.272 104.544 209.709 100.039 220.272 83.1069L191.379 62.4467L162.485 41.9419L115.262 8.23312C109.359 4.03895 102.68 2.01953 96.1553 2.01953C85.1262 2.17487 74.4078 7.7671 67.8835 18.3302Z" fill="white"/>
</mask>
<g mask="url(#mask5_6_327)">
<path d="M253.049 13.9806L202.563 153.476L34.7961 92.5826L85.4369 -46.9126L253.049 13.9806Z" fill="url(#paint5_linear_6_327)"/>
</g>
<mask id="mask6_6_327" style="mask-type:luminance" maskUnits="userSpaceOnUse" x="47" y="39" width="157" height="128">
<path d="M47.6893 41.3203L84.5048 81.7086C86.2136 84.0387 88.0777 86.2135 90.2524 88.0775L162.019 166.99L197.748 164.815C208.311 147.883 203.961 124.893 187.961 113.553L140.427 79.6892L112 59.495L83.4175 39.1455L47.6893 41.3203Z" fill="white"/>
</mask>
<g mask="url(#mask6_6_327)">
<path d="M106.408 244.505L-13.9806 85.9029L149.748 -38.2136L269.981 120.388L106.408 244.505Z" fill="url(#paint6_linear_6_327)"/>
</g>
<mask id="mask7_6_327" style="mask-type:luminance" maskUnits="userSpaceOnUse" x="41" y="41" width="127" height="126">
<path d="M47.3786 41.7866C36.9708 58.5633 41.3204 81.2429 57.0097 92.4273L104.078 125.981L133.126 146.486L162.019 166.99C172.582 150.058 168.233 127.068 152.233 115.728L104.854 82.0196L76.2718 61.6701L47.6893 41.3206C47.6893 41.4759 47.534 41.6312 47.3786 41.7866Z" fill="white"/>
</mask>
<g mask="url(#mask7_6_327)">
<path d="M223.379 67.1069L144.932 221.825L-13.6699 141.515L64.7767 -13.3591L223.379 67.1069Z" fill="url(#paint7_linear_6_327)"/>
</g>
<defs>
<linearGradient id="paint0_linear_6_327" x1="192.117" y1="-6.87733" x2="137.008" y2="264.732" gradientUnits="userSpaceOnUse">
<stop stop-color="#1593F5"/>
<stop offset="1" stop-color="#0084CE"/>
</linearGradient>
<linearGradient id="paint1_linear_6_327" x1="186.726" y1="287.348" x2="-44.2076" y2="-82.6708" gradientUnits="userSpaceOnUse">
<stop stop-color="#1593F5"/>
<stop offset="1" stop-color="#0084CE"/>
</linearGradient>
<linearGradient id="paint2_linear_6_327" x1="338.455" y1="293.58" x2="199.37" y2="44.2762" gradientUnits="userSpaceOnUse">
<stop stop-color="white"/>
<stop offset="1" stop-color="#15ABFF"/>
</linearGradient>
<linearGradient id="paint3_linear_6_327" x1="92.28" y1="-145.775" x2="210.371" y2="124.523" gradientUnits="userSpaceOnUse">
<stop stop-color="white"/>
<stop offset="1" stop-color="#79CFFF"/>
</linearGradient>
<linearGradient id="paint4_linear_6_327" x1="224.895" y1="-42.9092" x2="37.2615" y2="216.891" gradientUnits="userSpaceOnUse">
<stop stop-color="#0057E5"/>
<stop offset="1" stop-color="#0084CE"/>
</linearGradient>
<linearGradient id="paint5_linear_6_327" x1="182.43" y1="-52.7337" x2="123.385" y2="109.969" gradientUnits="userSpaceOnUse">
<stop stop-color="white"/>
<stop offset="1" stop-color="#15ABFF"/>
</linearGradient>
<linearGradient id="paint6_linear_6_327" x1="256.003" y1="271.876" x2="-40.5372" y2="-119.137" gradientUnits="userSpaceOnUse">
<stop stop-color="white"/>
<stop offset="1" stop-color="#79CFFF"/>
</linearGradient>
<linearGradient id="paint7_linear_6_327" x1="204.355" y1="-92.2419" x2="52.1487" y2="208.234" gradientUnits="userSpaceOnUse">
<stop stop-color="white"/>
<stop offset="1" stop-color="#79CFFF"/>
</linearGradient>
</defs>
</svg>
