<svg width="256" height="239" viewBox="0 0 256 239" fill="none" xmlns="http://www.w3.org/2000/svg">
<path d="M256 50.4729C256 50.4729 170.667 -12.3196 104.654 2.171L99.8239 3.78106C90.1635 7.00119 82.1132 11.8314 77.283 18.2716L74.0629 23.1018L49.912 64.9635L91.7736 73.0138C109.484 84.2842 132.025 89.1144 152.956 84.2842L227.019 98.7748L256 50.4729Z" fill="#76B3E1"/>
<path opacity="0.3" d="M256 50.4729C256 50.4729 170.667 -12.3196 104.654 2.171L99.8239 3.78106C90.1635 7.00119 82.1132 11.8314 77.283 18.2716L74.0629 23.1018L49.912 64.9635L91.7736 73.0138C109.484 84.2842 132.025 89.1144 152.956 84.2842L227.019 98.7748L256 50.4729Z" fill="url(#paint0_linear_6_312)"/>
<path d="M77.283 50.473L70.8427 52.0831C43.4717 60.1334 35.4214 85.8944 49.9119 108.435C66.0126 129.366 99.8239 140.637 127.195 132.586L227.019 98.7749C227.019 98.7749 141.686 35.9824 77.283 50.473Z" fill="#518AC8"/>
<path opacity="0.3" d="M77.283 50.473L70.8427 52.0831C43.4717 60.1334 35.4214 85.8944 49.9119 108.435C66.0126 129.366 99.8239 140.637 127.195 132.586L227.019 98.7749C227.019 98.7749 141.686 35.9824 77.283 50.473Z" fill="url(#paint1_linear_6_312)"/>
<path d="M209.308 122.926C200.294 111.664 188.123 103.35 174.355 99.0473C160.587 94.7447 145.848 94.6499 132.025 98.7749L32.2013 130.976L0 187.328L180.327 217.92L212.528 159.957C218.969 148.687 217.358 135.806 209.308 122.926Z" fill="url(#paint2_linear_6_312)"/>
<path d="M177.107 179.278C168.093 168.016 155.922 159.702 142.154 155.399C128.386 151.097 113.646 151.002 99.8239 155.127L0 187.328C0 187.328 85.3333 251.731 151.346 235.63L156.176 234.02C183.547 225.97 193.208 200.209 177.107 179.278Z" fill="url(#paint3_linear_6_312)"/>
<defs>
<linearGradient id="paint0_linear_6_312" x1="37.8365" y1="-1.04913" x2="238.289" y2="96.3597" gradientUnits="userSpaceOnUse">
<stop offset="0.1" stop-color="#76B3E1"/>
<stop offset="0.3" stop-color="#DCF2FD"/>
<stop offset="1" stop-color="#76B3E1"/>
</linearGradient>
<linearGradient id="paint1_linear_6_312" x1="147.804" y1="46.6089" x2="112.704" y2="163.499" gradientUnits="userSpaceOnUse">
<stop stop-color="#76B3E1"/>
<stop offset="0.5" stop-color="#4377BB"/>
<stop offset="1" stop-color="#1F3B77"/>
</linearGradient>
<linearGradient id="paint2_linear_6_312" x1="23.1849" y1="97.4869" x2="225.892" y2="235.308" gradientUnits="userSpaceOnUse">
<stop stop-color="#315AA9"/>
<stop offset="0.5" stop-color="#518AC8"/>
<stop offset="1" stop-color="#315AA9"/>
</linearGradient>
<linearGradient id="paint3_linear_6_312" x1="114.636" y1="114.07" x2="32.8453" y2="414.025" gradientUnits="userSpaceOnUse">
<stop stop-color="#4377BB"/>
<stop offset="0.5" stop-color="#1A336B"/>
<stop offset="1" stop-color="#1A336B"/>
</linearGradient>
</defs>
</svg>
