<svg width="213" height="256" viewBox="0 0 213 256" fill="none" xmlns="http://www.w3.org/2000/svg">
<path d="M199.159 33.844C175.512 -0.21701 128.434 -10.1967 94.5898 11.2813L34.9288 49.4643C18.6576 59.661 7.37627 76.366 4.12203 95.2406C1.30169 111.078 3.68813 127.349 11.2814 141.451C6.07457 149.261 2.60339 157.939 1.08474 167.051C-2.38645 186.359 2.16949 206.319 13.4508 222.156C37.3152 256.217 84.1763 266.197 118.02 244.719L177.681 206.752C193.953 196.556 205.234 179.851 208.488 160.976C211.308 145.139 208.922 128.868 201.329 114.766C206.536 106.956 210.007 98.2779 211.525 89.166C215.214 69.6406 210.658 49.6813 199.159 33.844Z" fill="#FF3E00"/>
<path d="M88.7322 225.41C69.4237 230.4 49.2475 222.807 37.9661 206.535C31.0237 196.99 28.4203 185.058 30.3729 173.342C30.8068 171.39 31.2407 169.654 31.6746 167.702L32.7593 164.23L35.7966 166.4C42.9559 171.607 50.7661 175.512 59.2271 178.115L61.3966 178.766L61.1797 180.935C60.9627 183.973 61.8305 187.227 63.5661 189.83C67.0373 194.82 73.1119 197.207 78.9695 195.688C80.2712 195.254 81.5729 194.82 82.6576 194.169L142.102 156.203C145.139 154.251 147.092 151.43 147.742 147.959C148.393 144.488 147.525 140.8 145.573 137.98C142.102 132.99 136.027 130.82 130.17 132.339C128.868 132.773 127.566 133.207 126.481 133.858L103.702 148.393C100.014 150.78 95.8915 152.515 91.5526 153.6C72.2441 158.59 52.0678 150.996 40.7864 134.725C34.061 125.18 31.2407 113.247 33.4102 101.532C35.3627 90.2507 42.3051 80.0541 52.0678 73.9795L111.729 36.0134C115.417 33.627 119.539 31.8914 123.878 30.5897C143.186 25.5999 163.363 33.1931 174.644 49.4643C181.586 59.0101 184.19 70.9422 182.237 82.6575C181.803 84.61 181.37 86.3456 180.719 88.2982L179.634 91.7694L176.597 89.5999C169.437 84.3931 161.627 80.488 153.166 77.8846L150.997 77.2338L151.214 75.0643C151.431 72.027 150.563 68.7728 148.827 66.1694C145.356 61.1795 139.281 59.0101 133.424 60.5287C132.122 60.9626 130.82 61.3965 129.736 62.0473L70.2915 100.013C67.2543 101.966 65.3017 104.786 64.6509 108.258C64 111.729 64.8678 115.417 66.8203 118.237C70.2915 123.227 76.3661 125.396 82.2237 123.878C83.5254 123.444 84.8271 123.01 85.9119 122.359L108.692 107.824C112.38 105.437 116.502 103.702 120.841 102.4C140.149 97.4101 160.325 105.003 171.607 121.274C178.549 130.82 181.153 142.752 179.2 154.468C177.247 165.749 170.305 175.946 160.542 182.02L100.881 219.986C97.1932 222.373 93.0712 224.108 88.7322 225.41Z" fill="white"/>
</svg>
