<svg width="256" height="224" viewBox="0 0 256 224" fill="none" xmlns="http://www.w3.org/2000/svg">
<path d="M228.747 65.2779C228.229 64.7296 227.678 64.1813 227.128 63.6653C226.576 63.1492 226.058 62.5687 225.507 62.0527C224.957 61.5366 224.438 60.9561 223.888 60.4401C223.336 59.924 222.817 59.3435 222.267 58.8275C221.716 58.3114 221.198 57.7309 220.646 57.2149C220.096 56.6988 219.577 56.1183 219.027 55.6023C218.475 55.0862 217.956 54.5057 217.406 53.9897C233.48 69.7116 242.687 91.0997 243.038 113.527C243.038 166.968 188.533 210.444 121.52 210.444C83.9941 210.444 50.4224 196.801 28.0953 175.418L29.7155 177.031L31.3358 178.643L32.956 180.256L34.5763 181.869L36.1966 183.481L37.8168 185.094L39.4371 186.706C61.7317 208.992 96.0488 223.345 134.481 223.345C201.495 223.345 256 179.869 256 126.589C256 103.819 246.15 82.2424 228.747 65.2779Z" fill="black"/>
<path d="M234.938 113.527C234.938 162.582 184.159 202.349 121.52 202.349C58.8802 202.349 8.10127 162.582 8.10127 113.527C8.10127 83.1134 27.5444 56.2475 57.4219 40.315C87.2994 24.3825 105.9 8.06299 121.52 8.06299C137.138 8.06299 150.49 21.3831 185.617 40.315C215.494 56.2475 234.938 83.1134 234.938 113.527Z" fill="#FBF0DF"/>
<path d="M234.938 113.527C234.922 107.225 234.05 100.954 232.344 94.8853C223.499 202.284 91.8686 207.444 40.1176 175.321C63.3813 193.268 92.0892 202.799 121.52 202.349C184.061 202.349 234.938 162.517 234.938 113.527Z" fill="#F6DECE"/>
<path d="M77.8695 34.4129C92.3546 25.7694 111.604 9.54657 130.528 9.51437C127.616 8.57774 124.579 8.08833 121.52 8.06299C113.678 8.06299 105.317 12.0945 94.785 18.1579C91.1233 20.2865 87.3318 22.6409 83.3136 25.0921C75.7632 29.7363 67.1111 34.9934 57.3895 40.2505C26.5398 56.8603 8.10127 84.2422 8.10127 113.527C8.10127 114.817 8.10127 116.107 8.10127 117.365C27.7388 48.3135 63.4168 43.0564 77.8695 34.4129Z" fill="#FFFEFC"/>
<path fill-rule="evenodd" clip-rule="evenodd" d="M112.187 16.2228C112.232 23.8382 110.625 31.3737 107.477 38.3146C104.328 45.2555 99.7118 51.4384 93.9425 56.441C93.0352 57.2473 93.7481 58.7954 94.9147 58.3439C105.836 54.1189 120.579 41.4761 114.358 15.9648C114.099 14.5135 112.187 14.9005 112.187 16.2228ZM119.542 16.2228C123.508 22.6617 126.027 29.8778 126.927 37.3764C127.827 44.8749 127.088 52.4787 124.76 59.6662C124.371 60.795 125.765 61.7626 126.542 60.8273C133.639 51.7967 139.828 33.8646 121.293 14.5135C120.353 13.6749 118.894 14.965 119.542 16.0938V16.2228ZM128.487 15.6745C134.696 20.0497 139.89 25.6992 143.72 32.242C147.549 38.7849 149.923 46.0689 150.683 53.6029C150.651 53.8743 150.725 54.148 150.889 54.367C151.053 54.5861 151.296 54.7337 151.568 54.7794C151.838 54.825 152.116 54.7651 152.344 54.6121C152.571 54.4591 152.731 54.2247 152.79 53.9576C155.772 42.7017 154.087 23.5118 129.556 13.5459C128.26 13.0299 127.417 14.7715 128.487 15.5455V15.6745ZM68.6665 49.2166C76.0525 47.0204 82.891 43.3007 88.7366 38.2995C94.5823 33.2983 99.3041 27.1278 102.594 20.1898C103.178 19.0287 105.025 19.4803 104.733 20.7703C99.1273 46.5719 80.3647 51.958 68.6989 51.2485C67.4676 51.2807 67.4999 49.5714 68.6665 49.2166Z" fill="#CCBEA7"/>
<path d="M121.52 210.444C54.5054 210.444 0 166.968 0 113.527C0 81.275 20.0264 51.1839 53.5656 33.1551C63.2872 27.9947 71.6154 22.8022 79.0361 18.2547C83.1191 15.739 86.9754 13.3846 90.702 11.1915C102.076 4.48302 111.798 0 121.52 0C131.241 0 139.731 3.87023 150.36 10.1272C153.6 11.9655 156.841 13.9651 160.308 16.1583C168.377 21.1251 177.483 26.7369 189.473 33.1551C223.012 51.1839 243.038 81.2428 243.038 113.527C243.038 166.968 188.533 210.444 121.52 210.444ZM121.52 8.06299C113.678 8.06299 105.317 12.0945 94.785 18.1579C91.1233 20.2865 87.3318 22.6409 83.3136 25.0921C75.7632 29.7364 67.1111 34.9934 57.3895 40.2505C26.5398 56.8603 8.10129 84.2422 8.10129 113.527C8.10129 162.517 58.9773 202.381 121.52 202.381C184.061 202.381 234.938 162.517 234.938 113.527C234.938 84.2422 216.499 56.8603 185.617 40.315C173.368 33.8646 163.808 27.8012 156.063 23.0279C152.531 20.8671 149.291 18.8674 146.342 17.0936C136.523 11.2882 129.362 8.06299 121.52 8.06299Z" fill="black"/>
<path d="M144.365 137.071C142.909 143.005 139.595 148.324 134.903 152.261C131.379 155.66 126.819 157.794 121.941 158.325C116.916 157.878 112.196 155.739 108.557 152.261C103.912 148.306 100.645 142.988 99.2245 137.071C99.1774 136.719 99.2118 136.362 99.3249 136.026C99.4381 135.69 99.627 135.384 99.8773 135.132C100.128 134.88 100.432 134.688 100.769 134.571C101.105 134.454 101.464 134.416 101.817 134.458H141.805C142.156 134.421 142.511 134.464 142.842 134.583C143.175 134.702 143.475 134.894 143.722 135.146C143.969 135.397 144.155 135.701 144.266 136.035C144.377 136.368 144.411 136.722 144.365 137.071Z" fill="#B71422"/>
<path d="M108.557 152.519C112.188 155.999 116.892 158.158 121.908 158.647C126.913 158.151 131.604 155.993 135.226 152.519C136.385 151.444 137.468 150.291 138.467 149.068C136.471 146.814 134.033 144.991 131.302 143.709C128.571 142.428 125.606 141.716 122.589 141.618C119.36 141.694 116.198 142.55 113.376 144.112C110.554 145.674 108.154 147.895 106.386 150.584C107.132 151.261 107.78 151.906 108.557 152.519Z" fill="#FF6164"/>
<path d="M109.076 149.971C110.682 147.904 112.739 146.227 115.09 145.065C117.442 143.903 120.028 143.287 122.653 143.263C127.506 143.405 132.13 145.35 135.615 148.714C136.361 147.907 137.074 147.069 137.754 146.23C133.632 142.323 128.183 140.101 122.491 140.005C119.45 140.032 116.451 140.728 113.711 142.044C110.972 143.36 108.558 145.263 106.645 147.617C107.412 148.445 108.223 149.231 109.076 149.971Z" fill="black"/>
<path d="M121.811 160.26C116.411 159.789 111.329 157.516 107.391 153.809C102.374 149.587 98.8438 143.881 97.3126 137.522C97.2028 136.956 97.2215 136.373 97.3673 135.815C97.5131 135.257 97.7822 134.738 98.1552 134.297C98.5992 133.763 99.1601 133.338 99.7947 133.052C100.429 132.767 101.121 132.63 101.817 132.652H141.805C142.5 132.638 143.189 132.778 143.823 133.062C144.456 133.347 145.018 133.769 145.467 134.297C145.836 134.74 146.101 135.259 146.24 135.818C146.381 136.376 146.393 136.958 146.277 137.522C144.745 143.881 141.215 149.587 136.199 153.809C132.268 157.509 127.199 159.782 121.811 160.26ZM101.817 136.393C101.298 136.393 101.168 136.619 101.136 136.684C102.506 142.198 105.604 147.134 109.983 150.778C113.184 153.917 117.347 155.903 121.811 156.422C126.263 155.909 130.421 153.948 133.639 150.842C138.004 147.193 141.09 142.257 142.453 136.748C142.382 136.645 142.285 136.563 142.17 136.512C142.056 136.461 141.929 136.442 141.805 136.458L101.817 136.393Z" fill="black"/>
<path d="M170.84 139.07C181.309 139.07 189.797 134.103 189.797 127.976C189.797 121.848 181.309 116.881 170.84 116.881C160.37 116.881 151.883 121.848 151.883 127.976C151.883 134.103 160.37 139.07 170.84 139.07Z" fill="#FEBBD0"/>
<path d="M72.7495 139.07C83.2192 139.07 91.7065 134.103 91.7065 127.976C91.7065 121.848 83.2192 116.881 72.7495 116.881C62.2798 116.881 53.7925 121.848 53.7925 127.976C53.7925 134.103 62.2798 139.07 72.7495 139.07Z" fill="#FEBBD0"/>
<path fill-rule="evenodd" clip-rule="evenodd" d="M81.6609 123.525C85.1937 123.531 88.6491 122.494 91.5896 120.546C94.5302 118.597 96.8237 115.824 98.1801 112.577C99.5365 109.33 99.8944 105.756 99.2094 102.307C98.5242 98.8577 96.8261 95.6882 94.3303 93.1997C91.8345 90.7112 88.6531 89.0155 85.1886 88.3272C81.7242 87.6389 78.1325 87.9889 74.8679 89.333C71.6034 90.6771 68.8129 92.9548 66.8495 95.8779C64.8862 98.801 63.8381 102.238 63.8381 105.754C63.8381 110.461 65.7149 114.977 69.0564 118.308C72.3979 121.64 76.9311 123.516 81.6609 123.525ZM161.929 123.525C165.465 123.55 168.93 122.53 171.884 120.593C174.837 118.656 177.146 115.889 178.517 112.644C179.888 109.4 180.26 105.822 179.586 102.367C178.912 98.9113 177.221 95.7328 174.729 93.2346C172.237 90.7364 169.056 89.031 165.589 88.3348C162.123 87.6386 158.526 87.9829 155.255 89.3241C151.986 90.6652 149.189 92.9428 147.221 95.8679C145.254 98.7931 144.203 102.234 144.203 105.754C144.194 110.447 146.055 114.953 149.377 118.284C152.7 121.615 157.212 123.499 161.929 123.525Z" fill="black"/>
<path fill-rule="evenodd" clip-rule="evenodd" d="M76.1521 106.883C77.4801 106.889 78.7802 106.503 79.8875 105.773C80.9949 105.044 81.8597 104.003 82.3724 102.784C82.885 101.565 83.0225 100.221 82.7674 98.9243C82.5123 97.6271 81.8759 96.4346 80.9391 95.4976C80.0023 94.5607 78.8071 93.9217 77.5051 93.6615C76.203 93.4012 74.8526 93.5315 73.625 94.0359C72.3974 94.5402 71.3479 95.3959 70.6094 96.4945C69.8709 97.5931 69.4766 98.8851 69.4766 100.207C69.4765 101.972 70.1789 103.665 71.4298 104.916C72.6808 106.167 74.3786 106.874 76.1521 106.883ZM156.42 106.883C157.748 106.889 159.048 106.503 160.155 105.773C161.262 105.044 162.128 104.003 162.64 102.784C163.152 101.565 163.29 100.221 163.035 98.9243C162.78 97.6271 162.144 96.4346 161.206 95.4976C160.27 94.5607 159.075 93.9217 157.773 93.6615C156.471 93.4012 155.12 93.5315 153.893 94.0359C152.665 94.5402 151.616 95.3959 150.876 96.4945C150.138 97.5931 149.744 98.8851 149.744 100.207C149.744 101.961 150.437 103.644 151.674 104.893C152.911 106.143 154.593 106.857 156.354 106.883H156.42Z" fill="white"/>
</svg>
