<svg width="257" height="254" viewBox="0 0 257 254" fill="none" xmlns="http://www.w3.org/2000/svg">
<path d="M245.603 158.011C245.603 115.345 193.173 80.6327 128.45 80.6327C63.7269 80.6327 11.2975 115.345 11.2975 158.011V165.604C11.2975 208.271 63.7269 242.983 128.45 242.983C193.173 242.983 245.603 208.271 245.603 165.604V158.011Z" fill="#EC2B6C"/>
<path d="M128.45 217.311C192.754 217.311 244.879 186.714 244.879 148.972C244.879 111.229 192.754 80.6327 128.45 80.6327C64.1464 80.6327 12.0207 111.229 12.0207 148.972C12.0207 186.714 64.1464 217.311 128.45 217.311Z" fill="#F95A97"/>
<path d="M128.45 204.294C193.152 204.294 245.603 169.65 245.603 126.915C245.603 84.1803 193.152 49.5368 128.45 49.5368C63.7486 49.5368 11.2975 84.1803 11.2975 126.915C11.2975 169.65 63.7486 204.294 128.45 204.294Z" fill="#DC0753"/>
<path d="M245.603 88.226C245.603 45.5593 193.173 10.8474 128.45 10.8474C63.7269 10.8474 11.2975 45.5593 11.2975 88.226V95.8192C11.2975 138.486 63.7269 173.198 128.45 173.198C193.173 173.198 245.603 138.486 245.603 95.8192V88.226Z" fill="#D1C7E8"/>
<path d="M245.603 88.226C245.603 45.5593 193.173 10.8474 128.45 10.8474C63.7269 10.8474 11.2975 45.5593 11.2975 88.226V95.8192C11.2975 138.486 63.7269 173.198 128.45 173.198C193.173 173.198 245.603 138.486 245.603 95.8192V88.226Z" fill="#EC2B6C"/>
<path d="M226.8 73.4012C226.8 42.3051 182.687 16.9944 128.45 16.9944C74.2128 16.9944 30.0998 42.3051 30.0998 73.4012V79.1865C30.0998 110.283 74.2128 135.593 128.45 135.593C182.687 135.593 226.8 110.283 226.8 79.1865V73.4012Z" fill="#F95A97"/>
<path d="M256.45 88.226C256.45 63.6384 242.348 41.2203 217.399 24.5876C193.173 8.67797 161.716 0 128.45 0C95.1845 0 63.3653 8.67797 39.5009 24.5876C14.1901 41.2203 0.450012 64 0.450012 88.226V95.8192C0.450012 100.881 1.17318 106.305 2.25792 111.367C0.811594 116.429 0.450012 121.853 0.450012 126.915C0.450012 131.977 1.17318 137.401 2.25792 142.463C0.811594 147.525 0.450012 152.949 0.450012 158.011V165.605C0.450012 190.192 14.5517 212.61 39.5009 229.243C63.3653 245.153 94.8229 253.83 128.45 253.83C162.077 253.83 193.535 245.153 217.399 229.243C242.71 212.61 256.45 189.831 256.45 165.605V158.011C256.45 152.949 255.727 147.525 254.642 142.463C256.088 137.401 256.45 131.977 256.45 126.915C256.45 121.853 255.727 116.429 254.642 111.367C256.088 106.305 256.45 100.881 256.45 95.8192V88.226ZM241.625 154.757C241.625 155.842 241.625 165.605 241.625 165.605C241.625 206.102 190.642 239.367 128.088 239.367C65.5348 239.367 14.5517 206.463 14.5517 165.605C14.5517 165.605 14.5517 155.842 14.5517 154.757C14.5517 154.757 16.7212 158.734 18.1675 160.542L18.5291 160.904C19.6139 162.712 21.0602 164.158 22.1449 165.605L22.5065 165.966C23.9529 167.412 25.3992 169.22 26.8455 170.667C27.2071 171.028 27.2071 171.028 27.5687 171.39C29.015 172.836 30.4613 174.282 32.2692 175.729C32.6308 176.09 32.9924 176.09 32.9924 176.452C34.8003 177.898 36.2466 179.345 38.0545 180.429C38.4161 180.791 38.7777 180.791 38.7777 181.153C40.5856 182.599 42.3935 183.684 44.563 185.13C44.563 185.13 44.9246 185.13 44.9246 185.492C46.7325 186.576 48.902 188.023 51.0715 189.107C51.4331 189.107 51.4331 189.469 51.7947 189.469C53.9641 190.554 56.1336 191.638 58.3031 192.723C58.6647 192.723 59.0263 193.085 59.3879 193.085C61.5574 194.169 63.7269 194.893 65.8964 195.977C66.2579 195.977 66.6195 196.339 66.9811 196.339C69.1506 197.062 71.6817 198.147 73.8511 198.87C74.2127 198.87 74.5743 199.232 74.9359 199.232C77.467 199.955 79.998 200.678 82.5291 201.401H82.8907C85.4218 202.124 87.9528 202.847 90.8455 203.209C91.2071 203.209 91.5687 203.209 91.5687 203.571C94.0997 204.294 96.6308 204.655 99.5235 205.017C99.885 205.017 100.247 205.017 100.97 205.379C103.501 205.74 106.394 206.102 108.925 206.463C109.286 206.463 110.009 206.463 110.371 206.463C112.902 206.825 115.795 206.825 118.687 207.186C119.049 207.186 119.41 207.186 119.772 207.186C122.665 207.186 125.557 207.548 128.45 207.548C131.343 207.548 134.235 207.548 137.128 207.186C137.49 207.186 137.851 207.186 138.213 207.186C141.105 207.186 143.636 206.825 146.529 206.463C146.891 206.463 147.614 206.463 147.975 206.463C150.507 206.102 153.399 205.74 155.93 205.379C156.292 205.379 156.653 205.379 157.377 205.017C159.908 204.655 162.8 203.932 165.331 203.571C165.693 203.571 166.055 203.571 166.055 203.209C168.586 202.486 171.478 202.124 174.009 201.401H174.371C176.902 200.678 179.433 199.955 181.964 199.232C182.326 199.232 182.687 198.87 183.049 198.87C185.58 198.147 187.749 197.062 189.919 196.339C190.281 196.339 190.642 195.977 191.004 195.977C193.173 194.893 195.343 194.169 197.512 193.085C197.874 193.085 198.235 192.723 198.597 192.723C200.766 191.638 202.936 190.554 205.105 189.469C205.467 189.469 205.467 189.107 205.829 189.107C207.998 188.023 209.806 186.576 211.975 185.492C211.975 185.492 212.337 185.492 212.337 185.13C214.145 184.045 216.314 182.599 218.122 181.153C218.484 180.791 218.846 180.791 218.846 180.429C220.653 178.983 222.461 177.898 223.908 176.452C224.269 176.09 224.631 176.09 224.631 175.729C226.077 174.282 227.885 172.836 229.331 171.39C229.693 171.028 229.693 171.028 230.055 170.667C231.501 169.22 232.947 167.412 234.393 165.966L234.755 165.605C236.201 164.158 237.286 162.35 238.371 160.904L238.733 160.542C239.456 158.734 241.625 155.119 241.625 154.757ZM14.5517 95.8192V88.226C14.5517 47.7288 65.5348 14.4633 128.088 14.4633C190.642 14.4633 241.625 47.3672 241.625 88.226V95.8192C241.625 100.52 240.902 105.582 239.456 110.282C238.009 115.345 235.478 120.045 232.224 124.746C214.145 151.864 173.286 169.22 128.088 169.22C82.8907 169.22 42.0319 151.864 23.9528 125.107C20.6986 120.407 18.5291 115.345 16.7212 110.644C15.2749 105.582 14.5517 100.881 14.5517 95.8192ZM241.625 124.384L241.987 124.023C241.987 125.107 241.987 126.192 241.987 127.277C241.987 131.977 241.264 137.04 239.817 141.74C229.331 176.09 182.326 201.04 128.45 201.04C74.5743 201.04 27.5687 176.09 17.0828 141.74C15.6365 137.04 14.9133 131.977 14.9133 127.277C14.9133 126.192 14.9133 125.107 14.9133 124.023L15.2749 124.384C15.9981 125.831 17.0828 127.638 18.1675 129.085C37.693 158.011 80.7212 176.814 128.45 176.814C176.179 176.814 219.207 158.011 238.733 129.085C239.456 127.277 240.54 125.831 241.625 124.384Z" fill="#210C01"/>
</svg>
