<svg width="229" height="257" viewBox="0 0 229 257" fill="none" xmlns="http://www.w3.org/2000/svg">
<path d="M228.263 69.6646V186.429C228.263 188.401 227.738 190.339 226.74 192.047C225.742 193.755 224.306 195.173 222.577 196.159L120.232 254.541C118.503 255.528 116.543 256.047 114.546 256.047C112.55 256.047 110.589 255.528 108.861 254.541L6.5154 196.159C4.78668 195.173 3.35114 193.755 2.35306 192.047C1.35499 190.339 0.829529 188.401 0.829529 186.429V69.6646C0.829528 67.6923 1.35499 65.7548 2.35306 64.0468C3.35114 62.3387 4.78668 60.9203 6.5154 59.9342L108.861 1.55204C110.589 0.565907 112.55 0.0467529 114.546 0.0467529C116.543 0.0467529 118.503 0.565907 120.232 1.55204L222.577 59.9342C224.306 60.9203 225.742 62.3387 226.74 64.0468C227.738 65.7548 228.263 67.6923 228.263 69.6646Z" fill="black"/>
<path fill-rule="evenodd" clip-rule="evenodd" d="M213.019 75.1096L11.6691 190.342C11.3502 190.524 11.0852 190.788 10.9008 191.106C10.7165 191.424 10.6194 191.785 10.6194 192.152C10.6194 192.519 10.7165 192.88 10.9008 193.198C11.0851 193.516 11.3502 193.78 11.6691 193.962L108.477 249.367C109.927 250.197 111.646 250.42 113.26 249.987C114.874 249.555 116.252 248.502 117.093 247.058L215.677 77.7873C215.893 77.4158 215.981 76.9833 215.926 76.5569C215.872 76.1305 215.678 75.734 215.375 75.4289C215.073 75.1238 214.678 74.9271 214.252 74.8694C213.826 74.8116 213.392 74.8961 213.019 75.1096Z" fill="#40404D"/>
<path fill-rule="evenodd" clip-rule="evenodd" d="M220.774 76.8029L120.054 249.218C119.946 249.404 119.901 249.62 119.928 249.834C119.955 250.048 120.052 250.247 120.204 250.4C120.355 250.553 120.553 250.652 120.767 250.681C120.98 250.71 121.197 250.668 121.384 250.561L220.802 193.829C221.757 193.284 222.551 192.496 223.103 191.546C223.655 190.595 223.946 189.515 223.946 188.415V77.6615C223.946 77.2875 223.823 76.9239 223.595 76.6269C223.368 76.3299 223.049 76.1161 222.688 76.0184C222.327 75.9206 221.944 75.9445 221.598 76.0863C221.252 76.2281 220.962 76.48 220.774 76.8029Z" fill="#2D2D33"/>
<path fill-rule="evenodd" clip-rule="evenodd" d="M5.86603 70.9169V180.615C5.86603 181.364 6.06232 182.1 6.43534 182.749C6.80835 183.398 7.34506 183.938 7.99192 184.315C8.63878 184.692 9.3732 184.893 10.1219 184.898C10.8707 184.903 11.6076 184.711 12.2591 184.342L213.406 70.447C213.729 70.2637 213.983 69.9784 214.128 69.6356C214.272 69.2929 214.299 68.9119 214.204 68.5522C214.11 68.1925 213.899 67.8743 213.604 67.6472C213.309 67.4201 212.948 67.297 212.576 67.2969H9.48606C9.01068 67.2969 8.53995 67.3906 8.10076 67.5725C7.66157 67.7544 7.26251 68.0211 6.92636 68.3572C6.59022 68.6933 6.32358 69.0924 6.14166 69.5316C5.95974 69.9708 5.86603 70.4415 5.86603 70.9169Z" fill="#929299"/>
<path fill-rule="evenodd" clip-rule="evenodd" d="M110.611 4.58252L12.5609 59.9535C12.2367 60.1366 11.9823 60.4218 11.8374 60.7647C11.6925 61.1077 11.6652 61.4889 11.7598 61.849C11.8545 62.209 12.0657 62.5276 12.3605 62.755C12.6553 62.9823 13.0171 63.1056 13.3894 63.1056H216.973C217.186 63.1056 217.394 63.0348 217.563 62.9043C217.733 62.7738 217.854 62.5908 217.908 62.3841C217.963 62.1773 217.947 61.9584 217.864 61.7615C217.781 61.5645 217.635 61.4007 217.448 61.2956L117.021 4.58252C116.044 4.03025 114.939 3.74005 113.816 3.74005C112.693 3.74005 111.589 4.03025 110.611 4.58252Z" fill="#40404D"/>
<path d="M224.088 70.6716L220.928 72.4378L217.819 70.5847L217.869 66.9654L221.028 65.1992L224.138 67.0523L224.088 70.6716Z" fill="#DDDDFF"/>
</svg>
