<svg width="256" height="256" viewBox="0 0 256 256" fill="none" xmlns="http://www.w3.org/2000/svg">
<path d="M128 256C198.692 256 256 198.692 256 128C256 57.3076 198.692 0 128 0C57.3076 0 0 57.3076 0 128C0 198.692 57.3076 256 128 256Z" fill="black"/>
<path d="M86.5499 60.0649C80.5708 59.8517 73.9983 61.9187 65.1249 66.1405C55.6769 69.2077 50.2715 77.4954 61.3773 77.4897L61.1075 84.7824L54.106 87.4929L53.8451 94.578C53.8451 94.578 52.7673 102.812 61.6556 102.336C60.4963 102.615 59.5378 103.196 60.8375 104.507C63.2485 106.939 66.4249 106.127 77.9437 106.397C89.4628 106.668 90.7037 119.595 90.7037 119.595C90.7037 119.595 93.2908 140.772 92.9065 161.406C80.4269 154.707 67.9667 148.777 64.0915 149.632C55.5193 151.524 48.1962 160.057 55.5178 172.326C62.2221 183.561 73.5515 191.558 84.959 198.772C81.5537 204.451 77.3272 207.456 68.7714 205.355C64.4695 204.299 64.8208 201.852 53.1779 195.412C31.7417 186.708 35.4352 192.92 40.7012 198.044C51.7489 205.995 57.1867 213.212 65.3666 216.584C73.4078 219.899 84.1648 219.544 97.8835 207.72C98.1099 207.475 98.3035 207.227 98.5238 206.982C98.3681 207.164 98.2399 207.349 98.0807 207.531C115.631 218.547 137.469 221.961 157.598 217.469C158.584 217.145 161.779 216.725 161.51 216.34C161.676 216.358 161.815 216.384 161.981 216.403C162.071 215.873 182.074 218.569 196.829 212.536C211.124 206.69 220.454 195.745 222.431 184.384C230.556 137.692 184.542 133.985 178.511 132.09C173.91 130.832 169.306 129.574 164.705 128.315C162.093 121.728 158.607 115.28 154.148 108.23C151.318 103.757 147.97 100.123 144.335 97.1623C144.34 97.1664 144.37 97.1801 144.37 97.1891C144.37 97.1891 145.722 92.8791 150.869 88.4121C151.908 87.5763 169.228 74.2274 200.725 87.744L202.946 109.391L217.255 108.649L215.528 79.2853C210.47 73.306 167.523 55.3309 136.51 79.1958C131.956 83.1728 129.102 88.7103 129.102 88.7103C129.137 88.7192 129.172 88.746 129.207 88.7638C123.98 86.8833 118.771 85.8445 114.038 85.2881C114.035 85.2702 114.032 85.2524 114.03 85.2345C114.03 85.2345 108.009 68.5164 97.0423 62.9417C93.5134 61.148 90.1373 60.1927 86.5499 60.0649ZM118.386 110.081C118.43 110.098 118.474 110.125 118.518 110.143C118.474 110.139 118.43 110.125 118.39 110.125C118.39 110.107 118.386 110.098 118.386 110.081ZM117.079 139.592C121.732 147.475 125.128 154.536 126.608 163.277C125.88 168.586 124.779 173.84 123.189 178.794C123.189 178.794 119.218 176.368 113.519 173.013C114.579 166.429 115.277 159.333 116.142 151.347C116.423 147.546 116.751 143.538 117.079 139.592ZM168.827 142.395C168.861 142.576 168.907 142.754 168.94 142.935C169.133 143.946 169.292 144.991 169.47 146.005C174.452 147.418 179.456 148.8 184.437 150.213C184.437 150.213 209.082 155.057 205.323 180.126C201.785 203.729 166.475 201.866 166.6 201.077C170.828 174.429 171.662 157.036 168.827 142.395Z" fill="white"/>
</svg>
