<svg width="215" height="256" viewBox="0 0 215 256" fill="none" xmlns="http://www.w3.org/2000/svg">
<path d="M175.011 132.872C176.415 136.196 182.685 149.396 183.973 152.635C176.132 165.776 174.293 169.186 157.902 190.017C91.1976 259.848 39.7329 271.132 8.19574 238.509C5.11471 235.181 2.3824 230.854 0 225.528C0.671041 226.75 1.55754 228.096 2.65951 229.567L3.05814 230.091C3.12565 230.179 3.19434 230.268 3.26362 230.357L3.68867 230.897L4.13133 231.446L4.5922 232.007L5.07067 232.577L5.56735 233.158L6.08164 233.75L6.61354 234.351L7.16423 234.963L7.44603 235.273L8.02314 235.9L8.31844 236.218L8.92197 236.86L9.23078 237.186C48.1876 272.842 87.0469 242.251 139.808 183.145C147.773 173.782 159.507 157.024 175.011 132.872ZM195.385 20.058C220.074 41.5124 220.074 74.8044 201.554 122.353C200.135 118.857 193.883 104.881 192.315 101.301C206.895 60.9167 207.233 41.7184 186.265 22.5729C174.202 11.5593 165.636 11.1058 149.326 13.7881L148.258 13.968C148.08 13.9982 147.901 14.0297 147.722 14.0612L146.642 14.2559L145.553 14.4589L145.005 14.5639L132.145 17.1388V17.1151L132.429 17.0106C158.237 7.50464 180.4 6.74487 195.385 20.058Z" fill="url(#paint0_linear_204_23)"/>
<path d="M179.044 90.3312C218.239 164.385 220.713 204.456 207.657 232.488C202.954 242.589 191.225 249.57 186.18 252.285C173.516 259.099 147.297 255.706 123.858 248.825L120.345 247.327C132.122 251.122 157.718 256.08 171.517 252.285C216.836 239.82 211.445 185.841 165.895 101.066C120.345 16.2914 70.5077 -6.96325 31.2231 9.0207C27.4511 10.5552 24.1624 12.6522 21.3333 15.2499L21.6361 14.9265L22.2434 14.288L22.5474 13.9735L23.1576 13.3526C27.5393 8.94884 32.0821 5.51171 36.7636 3.92952C72.2891 -8.07656 133.276 3.85883 179.044 90.3312Z" fill="url(#paint1_linear_204_23)"/>
<defs>
<linearGradient id="paint0_linear_204_23" x1="8816.48" y1="7814.24" x2="16601.6" y2="13695.2" gradientUnits="userSpaceOnUse">
<stop stop-color="#5BD3F3"/>
<stop offset="1" stop-color="#5BD3F3"/>
</linearGradient>
<linearGradient id="paint1_linear_204_23" x1="8174.39" y1="14356" x2="13416.6" y2="11495.5" gradientUnits="userSpaceOnUse">
<stop stop-color="#D573DE"/>
<stop offset="1" stop-color="#D573DE"/>
</linearGradient>
</defs>
</svg>
