<svg width="256" height="228" viewBox="0 0 256 228" fill="none" xmlns="http://www.w3.org/2000/svg">
<mask id="mask0_30_154" style="mask-type:luminance" maskUnits="userSpaceOnUse" x="0" y="0" width="256" height="228">
<path d="M256 23.9916L232.727 64.7189L226.182 76.3553H210.473L190.4 114.319C193.904 129.66 191.646 145.755 184.056 159.54C176.466 173.325 164.074 183.84 149.236 189.083L128 227.628L106.909 189.083L104.727 188.355C90.4064 182.72 78.5819 172.135 71.4021 158.523C64.2223 144.911 62.1636 129.175 65.6 114.173L45.6727 76.3553H29.9636L23.2727 64.7189L0 23.9916H66.9091L77.8182 45.6643L78.4 45.9553L78.5455 45.6643C79.5004 33.2409 85.1097 21.6358 94.2516 13.1696C103.394 4.70336 115.394 0 127.855 0C140.315 0 152.315 4.70336 161.457 13.1696C170.599 21.6358 176.209 33.2409 177.164 45.6643L176.873 45.9553L176.727 45.6643L189.091 23.9916H256Z" fill="white"/>
</mask>
<g mask="url(#mask0_30_154)">
<path d="M214.545 63.2642L208.29 76.3551H226.036L226.909 74.9005L233.454 63.2642H214.399H214.545ZM41.1631 63.2642H22.5449L29.9631 76.3551H47.5631L41.1631 63.2642Z" fill="#9E9E9E"/>
<path d="M256 23.9917L232.727 64.719H216.436L190.4 114.319L128 227.628L65.6 114.174L39.5636 64.719H23.2727L0 23.9917H66.9091L77.8182 45.6644L113.309 110.392L127.855 137.01L141.818 110.392L176.727 45.6644L189.091 23.9917" fill="#424242"/>
<path d="M67.7236 25.4462H0.814545L0 23.9917H66.9091L67.7236 25.4462ZM189.091 23.9917L188.291 25.4462H255.171L256 23.9917H189.091Z" fill="white" fill-opacity="0.2"/>
<path d="M226.968 74.8716L226.125 76.3552H210.328L190.357 114.246L128.001 227.628L65.6445 114.217L45.7173 76.3552H29.9063L29.0918 74.9007H45.7173L46.4882 76.3552L65.6445 112.762L128.001 226.173L190.357 112.792L210.343 74.8716" fill="#263238" fill-opacity="0.2"/>
<path d="M152.726 128.719C152.726 135.277 150.121 141.567 145.484 146.204C140.846 150.841 134.557 153.446 127.999 153.446C121.441 153.446 115.151 150.841 110.514 146.204C105.877 141.567 103.271 135.277 103.271 128.719C103.271 122.161 105.877 115.872 110.514 111.234C115.151 106.597 121.441 103.992 127.999 103.992C134.557 103.992 140.846 106.597 145.484 111.234C150.121 115.872 152.726 122.161 152.726 128.719ZM149.817 53.0828C149.817 58.8694 147.518 64.4189 143.427 68.5106C139.335 72.6023 133.785 74.901 127.999 74.901C122.212 74.901 116.663 72.6023 112.571 68.5106C108.479 64.4189 106.181 58.8694 106.181 53.0828C106.181 47.2963 108.479 41.7467 112.571 37.655C116.663 33.5633 122.212 31.2646 127.999 31.2646C133.785 31.2646 139.335 33.5633 143.427 37.655C147.518 41.7467 149.817 47.2963 149.817 53.0828Z" fill="white"/>
<path d="M190.399 114.319C187.054 100.064 179.199 87.8463 168.29 78.9735C172.715 72.7953 175.656 65.6804 176.886 58.1812C178.116 50.6821 177.601 43.0003 175.381 35.7324C173.162 28.4645 169.297 21.8058 164.087 16.2734C158.877 10.741 152.463 6.48363 145.341 3.83183C138.219 1.18002 130.582 0.205114 123.023 0.982782C115.463 1.76045 108.185 4.26977 101.752 8.31596C95.3196 12.3621 89.9059 17.8363 85.9316 24.3135C81.9572 30.7908 79.529 38.0968 78.8355 45.6644C77.6895 57.4733 80.8397 69.2995 87.7082 78.9735C76.6189 87.9126 68.8366 100.303 65.5991 114.174C64.5076 118.944 63.9707 123.825 63.9991 128.719C63.9991 155.774 80.8718 179.046 104.726 188.355C112.146 191.241 120.038 192.721 127.999 192.719C137.64 192.753 147.164 190.603 155.855 186.431C164.547 182.259 172.181 176.173 178.185 168.63C184.189 161.087 188.406 152.282 190.522 142.876C192.637 133.47 192.595 123.707 190.399 114.319ZM127.999 32.719C133.4 32.719 138.579 34.8644 142.398 38.6833C146.217 42.5023 148.363 47.6818 148.363 53.0826C148.363 58.4834 146.217 63.663 142.398 67.4819C138.579 71.3008 133.4 73.4463 127.999 73.4463C122.598 73.4463 117.419 71.3008 113.6 67.4819C109.781 63.663 107.635 58.4834 107.635 53.0826C107.635 47.6818 109.781 42.5023 113.6 38.6833C117.419 34.8644 122.598 32.719 127.999 32.719ZM127.999 151.992C115.199 151.992 104.726 141.519 104.726 128.719C104.739 124.372 105.97 120.115 108.278 116.431C110.586 112.747 113.88 109.784 117.786 107.876C121.692 105.968 126.055 105.193 130.379 105.637C134.704 106.082 138.817 107.729 142.254 110.392C145.06 112.552 147.332 115.328 148.896 118.506C150.459 121.683 151.272 125.178 151.272 128.719C151.272 134.891 148.82 140.811 144.455 145.175C140.091 149.54 134.171 151.992 127.999 151.992Z" fill="#4285F4"/>
<path d="M177.455 50.1733V50.9006C177.047 23.9187 155.055 2.1733 128 2.1733C100.945 2.1733 78.9382 23.9187 78.5455 50.9006V50.1733C78.5455 22.8569 100.684 0.71875 128 0.71875C155.316 0.71875 177.455 22.8569 177.455 50.1733ZM87.1273 79.4824C73.0182 91.1915 64 108.908 64 128.719V129.446C64.2182 109.635 73.4545 91.9915 87.7673 80.3987L88.4364 79.8606L87.7673 78.9878L87.1273 79.5697V79.4824ZM168.873 79.4824L168.233 78.9442L167.564 79.8606L168.233 80.4424C182.56 92.0787 191.796 109.679 192 129.461V128.733C192 108.951 182.982 91.206 168.873 79.5697V79.4824Z" fill="white" fill-opacity="0.2"/>
<path d="M192 127.991V128.719C192 164.064 163.345 192.719 128 192.719C92.6545 192.719 64 164.064 64 128.719V127.991C64.3927 163.002 92.9018 191.264 128 191.264C163.098 191.264 191.607 163.002 192 127.991ZM78.5455 49.4458V50.1731C78.5243 60.877 81.9971 71.2953 88.4364 79.8458C88.6691 79.7003 88.9018 79.4967 89.1636 79.3222C82.4296 70.805 78.6969 60.3024 78.5455 49.4458ZM177.455 49.4458C177.306 60.3028 173.573 70.8063 166.836 79.3222C167.098 79.4967 167.331 79.6858 167.564 79.8603C173.775 71.7149 177.455 61.3876 177.455 50.1876V49.4603V49.4458Z" fill="#263238" fill-opacity="0.2"/>
</g>
<path d="M256 23.9916L232.727 64.7189L226.182 76.3553H210.327L190.4 114.319C193.904 129.66 191.646 145.755 184.056 159.54C176.466 173.325 164.074 183.84 149.236 189.083L128 227.628L106.909 189.083L104.727 188.355C90.4064 182.72 78.5819 172.135 71.4021 158.523C64.2223 144.911 62.1636 129.175 65.6 114.173L45.6727 76.3553H29.9636L23.2727 64.7189L0 23.9916H66.9091L77.8182 45.6643L78.4 45.9553L78.5455 45.6643C79.5004 33.2409 85.1097 21.6358 94.2516 13.1696C103.394 4.70336 115.394 0 127.855 0C140.315 0 152.315 4.70336 161.457 13.1696C170.599 21.6358 176.209 33.2409 177.164 45.6643L176.873 45.9553L176.727 45.6643L189.091 23.9916H256Z" fill="url(#paint0_radial_30_154)"/>
<defs>
<radialGradient id="paint0_radial_30_154" cx="0" cy="0" r="1" gradientUnits="userSpaceOnUse" gradientTransform="translate(3.34546 26.6098) scale(269.673 269.673)">
<stop stop-color="white" stop-opacity="0.1"/>
<stop offset="1" stop-color="white" stop-opacity="0"/>
</radialGradient>
</defs>
</svg>
