<svg width="256" height="256" viewBox="0 0 256 256" fill="none" xmlns="http://www.w3.org/2000/svg">
<path d="M128 0C198.693 0 256 57.3075 256 128C256 198.693 198.693 256 128 256C57.3075 256 0 198.693 0 128C0 57.3075 57.3075 0 128 0Z" fill="black"/>
<path d="M125.129 190.63C121.846 189.745 118.47 191.645 117.509 194.885L117.466 195.036L108.966 226.536L108.928 226.688C108.127 229.972 110.09 233.313 113.373 234.198C116.655 235.085 120.031 233.185 120.992 229.944L121.035 229.793L129.534 198.293L129.573 198.141C129.631 197.904 129.675 197.666 129.705 197.429L129.729 197.192L129.528 196.171L129.234 194.702L129.048 193.784C128.649 193.016 128.095 192.338 127.42 191.794C126.746 191.252 125.965 190.855 125.129 190.63ZM65.8985 158.19C65.7435 158.499 65.612 158.825 65.5075 159.166L65.4485 159.371L56.9485 190.871L56.9094 191.024C56.1094 194.307 58.072 197.648 61.3545 198.534C64.6365 199.42 68.0135 197.52 68.9745 194.279L69.0164 194.128L76.7235 165.566C72.687 163.429 69.064 160.963 65.8985 158.19ZM45.629 121.966C42.3465 121.08 38.9695 122.98 38.009 126.221L37.9665 126.372L29.4665 157.872L29.4275 158.024C28.6275 161.307 30.59 164.648 33.8725 165.534C37.1545 166.42 40.5315 164.52 41.4924 161.279L41.5345 161.128L50.0345 129.628L50.0735 129.476C50.8735 126.193 48.9115 122.852 45.629 121.966ZM236.22 114.813C232.938 113.927 229.56 115.826 228.6 119.067L228.557 119.218L220.057 150.718L220.018 150.87C219.219 154.154 221.181 157.495 224.463 158.38C227.746 159.266 231.123 157.367 232.083 154.126L232.125 153.975L240.625 122.475L240.665 122.323C241.464 119.039 239.502 115.698 236.22 114.813ZM27.118 72.7491C19.9995 85.7123 15.4667 99.9357 13.7715 114.628C14.5824 115.552 15.6492 116.216 16.837 116.534C20.1195 117.42 23.4965 115.52 24.457 112.279L24.4995 112.129L32.9995 80.6286L33.0385 80.4766C33.8385 77.1925 31.876 73.8516 28.5935 72.9661C28.112 72.8361 27.6165 72.7633 27.118 72.7491ZM214.691 72.9661C211.409 72.08 208.031 73.9801 207.071 77.221L207.029 77.3716L198.529 108.872L198.489 109.024C197.69 112.307 199.652 115.649 202.934 116.534C206.216 117.42 209.594 115.52 210.555 112.279L210.596 112.129L219.097 80.6286L219.136 80.4766C219.935 77.1925 217.973 73.8516 214.691 72.9661Z" fill="white"/>
<path d="M64.1099 43.0136C60.8279 42.1276 57.4508 44.0276 56.4899 47.2686L56.4478 47.4191L47.9479 78.9191L47.9089 79.0711C47.1089 82.3551 49.0714 85.696 52.3539 86.5818C55.6359 87.4676 59.0129 85.5672 59.9739 82.3266L60.0159 82.1761L68.5158 50.6761L68.5548 50.5241C69.3548 47.2401 67.3923 43.8991 64.1099 43.0136ZM173.326 48.9681C170.043 48.0821 166.667 49.9821 165.706 53.2231L165.663 53.3736L159.952 74.5386C163.652 76.3661 167.183 78.5175 170.504 80.9676L171.053 81.3776L177.732 56.6306L177.77 56.4786C178.571 53.1946 176.609 49.8536 173.326 48.9681ZM117.733 13.4521C113.746 13.8045 109.779 14.3649 105.85 15.1311L105.017 15.2971L97.0942 44.6651L97.055 44.8171C96.2554 48.1011 98.2181 51.4421 101.5 52.3276C104.783 53.2136 108.159 51.3136 109.12 48.0726L109.162 47.9221L117.662 16.4221L117.701 16.2701C117.928 15.3456 117.939 14.3815 117.733 13.4521ZM195.948 35.2111L194.278 41.4011L194.239 41.5526C193.439 44.8366 195.402 48.1776 198.684 49.0631C201.965 49.9491 205.343 48.0491 206.304 44.8081L206.346 44.6576L206.528 43.9861C203.403 41.0629 200.116 38.3155 196.686 35.7566L195.948 35.2111ZM146.494 14.4791L143.479 25.6506L143.44 25.8026C142.64 29.0866 144.603 32.4276 147.885 33.3131C151.167 34.1991 154.544 32.2991 155.506 29.0581L155.548 28.9076L158.72 17.1491C154.986 16.1167 151.202 15.2748 147.383 14.6266L146.494 14.4791Z" fill="white"/>
<path d="M82.6953 210.136C83.6558 206.895 87.0332 204.995 90.3151 205.88C93.5979 206.765 95.5597 210.107 94.7601 213.391L94.7208 213.543L88.6374 236.086L87.7875 235.773C84.1247 234.405 80.5346 232.851 77.0312 231.116L82.6528 210.286L82.6953 210.136Z" fill="white"/>
<path d="M123 72.4551C85.778 72.4551 56.8242 95.8874 56.8242 125.028C56.8242 152.55 83.4657 170.122 124.766 169.243C128.278 169.167 129.294 171.527 130.436 174.706C131.58 177.886 134.652 194.643 137.1 207.46C139.291 218.931 141.518 230.444 143.218 242.002C170.187 238.437 195.125 225.115 213.397 205.023L193.908 132.342C189.05 114.789 183.372 98.6147 168.347 86.8643C156.26 77.4116 140.903 72.4551 123 72.4551Z" fill="white"/>
<path d="M131 93.4995C135.419 93.4995 139 97.081 139 101.5C139 105.918 135.419 109.5 131 109.5C126.581 109.5 123 105.918 123 101.5C123 97.081 126.581 93.4995 131 93.4995Z" fill="black"/>
</svg>
