<svg width="226" height="257" viewBox="0 0 226 257" fill="none" xmlns="http://www.w3.org/2000/svg">
<mask id="mask0_232_100" style="mask-type:luminance" maskUnits="userSpaceOnUse" x="0" y="0" width="226" height="257">
<path d="M107.129 2.1646L6.79447 60.0766C3.03639 62.2438 0.731079 66.2448 0.731079 70.5697V186.475C0.731079 190.802 3.03639 194.801 6.79447 196.968L107.136 254.925C110.887 257.085 115.512 257.085 119.258 254.925L219.583 196.968C223.322 194.801 225.632 190.8 225.632 186.475V70.5697C225.632 66.2448 223.322 62.2438 219.559 60.0766L119.249 2.1646C117.367 1.08576 115.271 0.545166 113.176 0.545166C111.08 0.545166 108.984 1.08576 107.103 2.1646" fill="white"/>
</mask>
<g mask="url(#mask0_232_100)">
<path d="M327.024 50.2432L44.2991 -88.3389L-100.666 207.387L182.052 345.976L327.024 50.2432Z" fill="url(#paint0_linear_232_100)"/>
</g>
<mask id="mask1_232_100" style="mask-type:luminance" maskUnits="userSpaceOnUse" x="3" y="0" width="220" height="257">
<path d="M3.21741 193.834C4.17717 195.079 5.37747 196.158 6.78972 196.968L92.8587 246.683L107.196 254.923C109.339 256.161 111.783 256.685 114.183 256.507C114.983 256.442 115.784 256.292 116.565 256.071L222.386 62.3082C221.576 61.427 220.629 60.6888 219.566 60.0696L153.869 22.1316L119.141 2.1504C118.156 1.57883 117.086 1.17397 115.998 0.888184L3.21741 193.834Z" fill="white"/>
</mask>
<g mask="url(#mask1_232_100)">
<path d="M-119.022 91.232L80.6105 361.425L344.629 166.363L144.984 -103.824L-119.022 91.232Z" fill="url(#paint1_linear_232_100)"/>
</g>
<mask id="mask2_232_100" style="mask-type:luminance" maskUnits="userSpaceOnUse" x="7" y="0" width="219" height="257">
<path d="M111.978 0.611771C110.294 0.778479 108.648 1.3024 107.131 2.16452L7.08267 59.9099L114.967 256.411C116.467 256.197 117.944 255.697 119.277 254.925L219.612 196.968C222.708 195.172 224.827 192.133 225.47 188.689L115.491 0.809421C114.681 0.649858 113.871 0.566528 113.038 0.566528C112.704 0.566528 112.371 0.583173 112.037 0.614133" fill="white"/>
</mask>
<g mask="url(#mask2_232_100)">
<path d="M7.08026 0.566528V256.416H225.427V0.566528H7.08026Z" fill="url(#paint2_linear_232_100)"/>
</g>
<defs>
<linearGradient id="paint0_linear_232_100" x1="185.577" y1="-19.2658" x2="40.6221" y2="276.441" gradientUnits="userSpaceOnUse">
<stop offset="0.3" stop-color="#3E863D"/>
<stop offset="0.5" stop-color="#55934F"/>
<stop offset="0.8" stop-color="#5AAD45"/>
</linearGradient>
<linearGradient id="paint1_linear_232_100" x1="-18.0097" y1="227.877" x2="246.019" y2="32.7919" gradientUnits="userSpaceOnUse">
<stop offset="0.57" stop-color="#3E863D"/>
<stop offset="0.72" stop-color="#619857"/>
<stop offset="1" stop-color="#76AC64"/>
</linearGradient>
<linearGradient id="paint2_linear_232_100" x1="7.15392" y1="128.498" x2="225.469" y2="128.498" gradientUnits="userSpaceOnUse">
<stop offset="0.16" stop-color="#6BBF47"/>
<stop offset="0.38" stop-color="#79B461"/>
<stop offset="0.47" stop-color="#75AC64"/>
<stop offset="0.7" stop-color="#659E5A"/>
<stop offset="0.9" stop-color="#3E863D"/>
</linearGradient>
</defs>
</svg>
