<svg width="256" height="256" viewBox="0 0 256 256" fill="none" xmlns="http://www.w3.org/2000/svg">
<g clip-path="url(#clip0_74_1388)">
<path d="M128.001 243.2C191.624 243.2 243.201 191.623 243.201 128C243.201 64.3761 191.624 12.7998 128.001 12.7998C64.3771 12.7998 12.8008 64.3761 12.8008 128C12.8008 191.623 64.3771 243.2 128.001 243.2Z" fill="white" stroke="#EC4899" stroke-width="25.6"/>
<path d="M142.903 60.7996L127.998 48.6396L112.71 60.92M142.903 76.92L127.998 89.08L112.71 76.7997M142.903 194.68L127.998 206.84L112.71 194.56M142.903 178.56L127.998 166.4L112.71 178.677M193.309 107.374L196.386 88.3862L178.108 81.2873M179.35 115.435L161.366 108.605L164.356 89.2259M77.3668 174.315L59.3828 167.485L62.3729 148.106M91.3265 166.256L94.4036 147.266L76.1252 140.167M77.3668 81.1645L59.3828 87.992L62.3729 107.371M91.3265 89.2233L94.4036 108.211L76.1252 115.312M193.309 148.106L196.386 167.091L178.108 174.192M179.35 140.042L161.366 146.872L164.356 166.251" stroke="#EC4899" stroke-width="7.68"/>
<path d="M116.737 108.288H139.777L145.409 118.016L151.297 128.256L145.409 138.24L139.777 147.968H116.737L110.849 138.24L104.961 128L110.593 118.016L116.481 108.288H116.737Z" stroke="#EC4899" stroke-width="12.8"/>
</g>
<defs>
<clipPath id="clip0_74_1388">
<rect width="256" height="256" fill="white"/>
</clipPath>
</defs>
</svg>
