<svg width="256" height="231" viewBox="0 0 256 231" fill="none" xmlns="http://www.w3.org/2000/svg">
<path d="M128 139.485C141.465 139.485 152.381 128.569 152.381 115.104C152.381 101.639 141.465 90.7231 128 90.7231C114.535 90.7231 103.619 101.639 103.619 115.104C103.619 128.569 114.535 139.485 128 139.485Z" fill="#087EA4"/>
<path d="M127.905 169.618C195.231 169.618 249.81 145.058 249.81 114.761C249.81 84.4645 195.231 59.9041 127.905 59.9041C60.5786 59.9041 6 84.4645 6 114.761C6 145.058 60.5786 169.618 127.905 169.618Z" stroke="#087EA4" stroke-width="12.1905"/>
<path d="M80.4923 142.533C114.155 200.839 162.715 235.825 188.952 220.677C215.19 205.528 209.171 145.982 175.508 87.6755C141.845 29.3693 93.2854 -5.61696 67.0476 9.53142C40.8098 24.6798 46.8292 84.2265 80.4923 142.533Z" stroke="#087EA4" stroke-width="12.1905"/>
<path d="M80.4923 87.6755C46.8292 145.982 40.8098 205.528 67.0476 220.677C93.2854 235.825 141.845 200.839 175.508 142.533C209.171 84.2265 215.19 24.6798 188.952 9.53142C162.715 -5.61696 114.155 29.3694 80.4923 87.6755Z" stroke="#087EA4" stroke-width="12.1905"/>
</svg>
