<svg width="256" height="256" viewBox="0 0 256 256" fill="none" xmlns="http://www.w3.org/2000/svg">
<path fill-rule="evenodd" clip-rule="evenodd" d="M159.986 16.9652L155.6 4.7263C155.183 3.56136 154.184 2.70085 152.971 2.45943C151.757 2.218 150.506 2.63107 149.674 3.54762L140.923 13.1946C139.861 13.0764 138.795 12.9726 137.724 12.8834L131.02 1.7104C130.384 0.649273 129.237 0 128 0C126.762 0 125.615 0.649273 124.979 1.7104L118.275 12.8835C117.204 12.9727 116.138 13.0765 115.076 13.1947L106.324 3.54757C105.493 2.63104 104.241 2.21795 103.028 2.45938C101.814 2.7008 100.816 3.56131 100.399 4.72625L96.0127 16.9657C94.9711 17.2653 93.9354 17.5791 92.906 17.907L82.4605 10.1675C81.4663 9.43081 80.1583 9.26981 79.015 9.74336C77.8717 10.2169 77.0607 11.2556 76.8787 12.4796L74.9639 25.3472C74.0059 25.8432 73.0556 26.3521 72.1134 26.874L60.3477 21.3157C59.2286 20.7871 57.9145 20.8843 56.8856 21.5718C55.8566 22.2594 55.2639 23.4363 55.324 24.6724L55.9576 37.6906C55.1227 38.3576 54.2972 39.0359 53.4815 39.7252L40.8346 36.5635C39.634 36.2633 38.3641 36.6152 37.489 37.4903C36.6141 38.3651 36.2623 39.6353 36.5625 40.8356L39.7242 53.4827C39.0349 54.2984 38.3566 55.124 37.6896 55.9589L24.6725 55.3255C23.4366 55.2654 22.2596 55.8581 21.5721 56.8871C20.8846 57.916 20.7874 59.2301 21.3159 60.3492L26.8737 72.1139C26.3518 73.0564 25.8426 74.0069 25.3464 74.9654L12.4791 76.88C11.2551 77.0622 10.2164 77.8732 9.74283 79.0165C9.26927 80.1598 9.43027 81.4676 10.167 82.462L17.9066 92.9075C17.5788 93.9366 17.2651 94.9721 16.9656 96.0135L4.72616 100.399C3.56122 100.817 2.70071 101.815 2.45927 103.028C2.21786 104.242 2.63093 105.494 3.54746 106.325L13.1948 115.077C13.0766 116.139 12.9728 117.205 12.8835 118.275L1.7104 124.979C0.649273 125.616 0 126.763 0 128C0 129.238 0.649273 130.384 1.7104 131.021L12.8836 137.725C12.9728 138.795 13.0766 139.861 13.1948 140.923L3.54755 149.675C2.63102 150.507 2.21795 151.758 2.45936 152.972C2.7008 154.185 3.56131 155.183 4.72626 155.601L16.9656 159.986C17.2651 161.028 17.5788 162.063 17.9066 163.092L10.167 173.538C9.43025 174.532 9.26923 175.84 9.7428 176.984C10.2164 178.127 11.255 178.938 12.479 179.12L25.3464 181.035C25.8424 181.993 26.3513 182.943 26.8732 183.885L21.3148 195.651C20.7862 196.77 20.8835 198.084 21.571 199.113C22.2585 200.142 23.4354 200.735 24.6714 200.675L37.6896 200.041C38.3568 200.876 39.0353 201.702 39.7249 202.518L36.5634 215.164C36.2632 216.365 36.6151 217.635 37.4902 218.51C38.365 219.385 39.6352 219.737 40.8355 219.436L53.4815 216.275C54.2974 216.964 55.1232 217.643 55.9583 218.31L55.3247 231.328C55.2646 232.564 55.8574 233.741 56.8863 234.428C57.9152 235.116 59.2295 235.212 60.3484 234.684L72.1138 229.126C73.0563 229.648 74.0066 230.157 74.9651 230.653L76.8797 243.519C77.0617 244.745 77.8727 245.783 79.016 246.256C80.1593 246.73 81.4672 246.57 82.4614 245.833L92.9067 238.094C93.9361 238.421 94.9718 238.735 96.0134 239.034L100.399 251.275C100.817 252.439 101.815 253.299 103.028 253.541C104.242 253.783 105.493 253.37 106.325 252.454L115.077 242.805C116.138 242.923 117.205 243.026 118.275 243.115L124.979 254.29C125.616 255.352 126.762 256 128 256C129.237 256 130.384 255.352 131.021 254.29L137.724 243.115C138.795 243.029 139.861 242.923 140.922 242.805L149.674 252.451C150.505 253.37 151.757 253.783 152.97 253.541C154.184 253.299 155.182 252.439 155.599 251.275L159.985 239.036C161.027 238.735 162.063 238.421 163.093 238.094L173.538 245.833C174.532 246.57 175.84 246.73 176.983 246.256C178.126 245.783 178.937 244.745 179.119 243.519L181.034 230.654C181.992 230.158 182.943 229.649 183.886 229.127L195.65 234.684C196.769 235.212 198.084 235.116 199.112 234.428C200.141 233.741 200.734 232.564 200.674 231.328L200.04 218.311C200.876 217.644 201.702 216.965 202.518 216.275L215.163 219.436C216.364 219.737 217.634 219.385 218.509 218.51C219.384 217.635 219.736 216.365 219.436 215.164L216.274 202.519C216.964 201.703 217.643 200.877 218.311 200.041L231.327 200.675C232.563 200.735 233.74 200.142 234.427 199.113C235.114 198.084 235.212 196.77 234.683 195.651L229.126 183.887C229.648 182.944 230.158 181.993 230.654 181.034L243.52 179.12C244.743 178.938 245.784 178.127 246.256 176.984C246.73 175.84 246.568 174.532 245.833 173.538L238.094 163.094C238.421 162.064 238.735 161.028 239.034 159.986L251.272 155.601C252.437 155.183 253.299 154.185 253.539 152.971C253.781 151.758 253.367 150.507 252.451 149.675L242.806 140.924C242.923 139.862 243.029 138.795 243.118 137.724L254.288 131.021C255.35 130.384 256 129.237 256 128C256 126.762 255.35 125.616 254.288 124.979L243.118 118.276C243.029 117.205 242.923 116.138 242.806 115.076L252.451 106.325C253.367 105.494 253.781 104.242 253.539 103.028C253.299 101.815 252.437 100.817 251.272 100.399L239.034 96.014C238.735 94.9717 238.421 93.9355 238.092 92.9054L245.831 82.462C246.568 81.4678 246.728 80.1598 246.256 79.0165C245.781 77.8732 244.743 77.0622 243.52 76.88L230.654 74.9656C230.158 74.0069 229.648 73.0557 229.126 72.1127L234.683 60.349C235.212 59.2301 235.114 57.916 234.427 56.8871C233.74 55.8581 232.563 55.2654 231.327 55.3255L218.311 55.9589C217.643 55.1233 216.964 54.2973 216.275 53.4809L219.436 40.8356C219.736 39.6353 219.384 38.3654 218.509 37.4903C217.634 36.6152 216.364 36.2633 215.164 36.5635L202.518 39.7247C201.702 39.0347 200.876 38.356 200.04 37.6882L200.673 24.6724C200.733 23.4363 200.141 22.2593 199.112 21.5718C198.083 20.8843 196.769 20.7871 195.65 21.3157L183.885 26.8731C182.943 26.3512 181.992 25.842 181.034 25.346L179.12 12.4795C178.937 11.2555 178.126 10.2168 176.983 9.74325C175.84 9.26969 174.532 9.43071 173.538 10.1674L163.093 17.9065C162.063 17.5786 161.027 17.2647 159.986 16.9652ZM45.1028 82.8396L53.0329 98.4033C54.7995 101.87 53.4209 106.113 49.9538 107.88L34.3982 115.806C33.8831 119.798 33.6178 123.868 33.6178 128C33.6178 153.131 43.4395 175.967 59.4538 192.881L76.6859 190.151C80.5294 189.543 84.1386 192.165 84.7473 196.008L87.4807 213.267C99.7581 219.111 113.497 222.382 128 222.382C142.503 222.382 156.242 219.111 168.519 213.267L171.253 196.008C171.861 192.165 175.471 189.543 179.314 190.151L196.546 192.881C212.561 175.967 222.383 153.131 222.383 128C222.383 123.868 222.117 119.799 221.602 115.807L206.044 107.88C202.577 106.113 201.198 101.87 202.965 98.4033L210.896 82.8373C197.536 58.3658 173.655 40.4622 145.332 35.2055L132.981 47.5567C130.229 50.3081 125.768 50.3081 123.017 47.5567L110.666 35.2057C82.3435 40.4634 58.4629 58.3677 45.1028 82.8396Z" fill="#0096CF"/>
<path d="M137.395 144.44C140.984 150.383 150.323 155.206 158.582 155.206C165.52 155.206 169.952 151.69 169.952 146.831C169.952 141.009 165.398 138.946 157.762 135.559L153.576 133.738C141.493 128.518 133.466 121.978 133.466 108.154C133.466 95.4192 143.034 85.7248 157.988 85.7248C164.763 85.7248 170.745 88.1028 174.804 92.8585C180.988 94.5925 184.641 100.985 182.974 107.204L181.483 112.769L186.508 121.473L183.723 120.726L182.976 123.511L177.952 114.809L172.386 113.317C167.127 111.908 163.663 107.144 163.68 101.945C162.048 100.968 160.199 100.533 157.988 100.533C153.083 100.533 149.975 103.688 149.975 107.81C149.975 112.904 153.086 114.966 160.27 118.121L164.456 119.939C178.683 126.126 186.716 132.433 186.716 146.613C186.716 161.9 174.873 170.275 158.969 170.275C143.419 170.275 133.657 156.418 137.395 144.44Z" fill="#0096CF"/>
<path d="M82.9145 146.366C85.5447 151.099 87.9375 155.1 93.6904 155.1C99.1916 155.1 102.662 152.917 102.662 144.43V86.6943H119.406V144.66C119.406 162.242 109.241 170.244 94.4032 170.244C80.9968 170.244 73.233 163.208 69.2844 154.734L82.9145 146.366Z" fill="#0096CF"/>
</svg>
