<svg width="256" height="197" viewBox="0 0 256 197" fill="none" xmlns="http://www.w3.org/2000/svg">
<path fill-rule="evenodd" clip-rule="evenodd" d="M76.1589 99.9842L78.6007 89.3182C79.6397 84.8814 80.5697 76.1636 81.1204 72.1113C75.2185 69.7058 67.2489 71.0722 56.905 69.9032C49.0319 68.9493 41.5914 65.7803 35.4482 60.7646V62.2401C36.494 71.7742 40.7512 80.6692 47.5205 87.464C54.2898 94.2587 63.1687 98.5493 72.6988 99.6309L76.1589 99.9842Z" fill="#2BB673" fill-opacity="0.2" stroke="#3D3D3D" stroke-width="7.79" stroke-linecap="round" stroke-linejoin="round"/>
<path fill-rule="evenodd" clip-rule="evenodd" d="M41.1628 41.2717C33.273 40.3859 25.7947 37.2861 19.5918 32.3306V32.3669C20.642 41.8952 24.899 50.7837 31.6645 57.5747C38.4301 64.3657 47.3025 68.6561 56.8267 69.7422L82.1748 71.6436C83.4113 56.1875 76.2417 45.215 41.1628 41.2717Z" fill="#2BB673" fill-opacity="0.6" stroke="#3D3D3D" stroke-width="7.79" stroke-linecap="round" stroke-linejoin="round"/>
<path fill-rule="evenodd" clip-rule="evenodd" d="M240.258 3.95883H213.907C210.26 3.95813 206.723 5.21335 203.892 7.51345C201.062 9.81356 199.109 13.0183 198.363 16.5887L188.133 66.5106C187.798 68.1371 186.913 69.5987 185.628 70.6498C184.342 71.7009 182.734 72.2775 181.073 72.2826L141.407 72.3969C140.331 72.4011 139.267 72.1647 138.295 71.7052C137.322 71.2458 136.464 70.5747 135.784 69.7411C135.104 68.9076 134.618 67.9325 134.363 66.8873C134.108 65.8421 134.09 64.7531 134.31 63.7C140.747 32.8605 118.022 3.89648 74.1426 3.89648H3.89648C4.94988 13.4287 9.21194 22.3199 15.9834 29.1112C22.7548 35.9024 31.6335 40.1904 41.1626 41.2717C87.4998 46.467 83.889 65.2066 78.6002 88.2791L58.1046 177.763C57.7071 179.498 57.7058 181.301 58.1008 183.036C58.4959 184.771 59.2771 186.395 60.3865 187.787C61.4958 189.179 62.9046 190.303 64.5081 191.075C66.1117 191.848 67.8688 192.249 69.6486 192.248H94.5602C98.2042 192.25 101.738 190.997 104.567 188.701C107.397 186.405 109.35 183.205 110.099 179.639L120.864 128.403C121.21 126.788 122.098 125.34 123.38 124.301C124.663 123.261 126.263 122.692 127.914 122.688L167.83 122.573C168.904 122.571 169.966 122.807 170.938 123.267C171.909 123.726 172.766 124.396 173.446 125.228C174.125 126.06 174.611 127.033 174.867 128.077C175.124 129.12 175.144 130.208 174.927 131.26L165.367 177.55C164.97 179.286 164.969 181.088 165.364 182.824C165.759 184.559 166.54 186.184 167.649 187.576C168.758 188.968 170.167 190.093 171.771 190.865C173.374 191.638 175.131 192.04 176.911 192.04H203.267C206.914 192.039 210.45 190.782 213.28 188.481C216.109 186.18 218.061 182.975 218.807 179.405L251.802 18.4902C252.208 16.7521 252.215 14.9448 251.824 13.2034C251.433 11.462 250.653 9.83157 249.543 8.43407C248.432 7.03657 247.021 5.90815 245.413 5.13318C243.805 4.35822 242.043 3.95676 240.258 3.95883Z" fill="#2BB673" stroke="#3D3D3D" stroke-width="7.793" stroke-linecap="round" stroke-linejoin="round"/>
</svg>
