<svg width="243" height="257" viewBox="0 0 243 257" fill="none" xmlns="http://www.w3.org/2000/svg">
<path d="M225.297 143.047C241.237 155.478 241.237 175.929 225.297 188.461L150.294 247.409C134.353 259.841 108.399 259.841 92.4582 247.409L17.4555 188.561C1.51484 176.13 1.51484 155.678 17.4555 143.147L92.4582 84.1985C108.399 71.7672 134.353 71.7672 150.294 84.1985L225.297 143.047Z" fill="#FF9D00"/>
<g filter="url(#filter0_d_146_20)">
<path d="M92.638 210.616L17.3031 151.408C9.70808 145.457 5.5 137.489 5.5 129.017C5.5 120.544 9.70808 112.576 17.3031 106.625L92.638 47.3166C100.233 41.3656 110.497 38.0371 121.376 38.0371C132.256 38.0371 142.417 41.3656 150.114 47.3166L225.449 106.524C233.044 112.475 237.252 120.443 237.252 128.916C237.252 137.388 233.044 145.356 225.449 151.307L150.114 210.515C142.417 216.567 132.256 219.895 121.376 219.895C110.497 219.895 100.336 216.567 92.638 210.616Z" fill="black" fill-opacity="0.1"/>
</g>
<path d="M92.638 210.616L17.3031 151.408C9.70808 145.457 5.5 137.489 5.5 129.017C5.5 120.544 9.70808 112.576 17.3031 106.625L92.638 47.3166C100.233 41.3656 110.497 38.0371 121.376 38.0371C132.256 38.0371 142.417 41.3656 150.114 47.3166L225.449 106.524C233.044 112.475 237.252 120.443 237.252 128.916C237.252 137.388 233.044 145.356 225.449 151.307L150.114 210.515C142.417 216.567 132.256 219.895 121.376 219.895C110.497 219.895 100.336 216.567 92.638 210.616Z" fill="#FFCC00"/>
<g filter="url(#filter1_d_146_20)">
<path d="M92.638 173.311L17.3031 114.104C9.70808 108.153 5.5 100.184 5.5 91.7118C5.5 83.2392 9.70808 75.271 17.3031 69.32L92.638 10.0119C100.233 4.06094 110.497 0.732422 121.376 0.732422C132.256 0.732422 142.417 4.06094 150.114 10.0119L225.449 69.2191C233.044 75.1701 237.252 83.1384 237.252 91.611C237.252 100.084 233.044 108.052 225.449 114.003L150.114 173.21C142.417 179.262 132.256 182.59 121.376 182.59C110.497 182.59 100.336 179.262 92.638 173.311Z" fill="black" fill-opacity="0.1"/>
</g>
<path d="M92.638 173.311L17.3031 114.104C9.70808 108.153 5.5 100.184 5.5 91.7118C5.5 83.2392 9.70808 75.271 17.3031 69.32L92.638 10.0119C100.233 4.06094 110.497 0.732422 121.376 0.732422C132.256 0.732422 142.417 4.06094 150.114 10.0119L225.449 69.2191C233.044 75.1701 237.252 83.1384 237.252 91.611C237.252 100.084 233.044 108.052 225.449 114.003L150.114 173.21C142.417 179.262 132.256 182.59 121.376 182.59C110.497 182.59 100.336 179.262 92.638 173.311Z" fill="url(#paint0_linear_146_20)"/>
<path d="M121.636 148.453C160.132 148.453 191.339 122.943 191.339 91.4763C191.339 60.0091 160.132 34.5 121.636 34.5C83.1401 34.5 51.9331 60.0091 51.9331 91.4763C51.9331 122.943 83.1401 148.453 121.636 148.453ZM121.636 154.318C79.1773 154.318 44.7578 126.183 44.7578 91.4763C44.7578 56.7699 79.1773 28.6348 121.636 28.6348C164.095 28.6348 198.514 56.7699 198.514 91.4763C198.514 126.183 164.095 154.318 121.636 154.318Z" fill="white"/>
<path d="M126.774 115.661C130.627 115.156 134.383 114.082 137.821 112.439L159.762 121.457L148.269 104.24C154.315 96.4519 154.315 86.5876 148.269 78.7999L159.762 61.582L139.084 70.0819L138.489 79.1745C146.943 86.2643 146.727 97.4611 137.943 104.306C135.701 106.098 133.127 107.356 130.425 108.25L126.774 115.661ZM116.517 67.3636C110.152 68.1911 105.382 70.6005 105.382 70.6005L83.4609 61.582L94.954 78.7999C88.9086 86.5876 88.9086 96.4519 94.954 104.24L83.4609 121.457L104.705 112.725L105.157 104.209C96.271 97.1401 96.3419 85.831 105.302 78.7312C107.387 76.8649 112.099 74.8891 112.806 74.784L116.517 67.3636Z" fill="#8CC8F6"/>
<path fill-rule="evenodd" clip-rule="evenodd" d="M111.092 89.5966L108.172 141.355L131.816 93.3523L135.202 41.6914L111.092 89.5966ZM110.786 131.407L129.725 92.9815L113.129 89.9533L110.786 131.407Z" fill="white"/>
<defs>
<filter id="filter0_d_146_20" x="0.5" y="38.0371" width="241.754" height="191.857" filterUnits="userSpaceOnUse" color-interpolation-filters="sRGB">
<feFlood flood-opacity="0" result="BackgroundImageFix"/>
<feColorMatrix in="SourceAlpha" type="matrix" values="0 0 0 0 0 0 0 0 0 0 0 0 0 0 0 0 0 0 127 0" result="hardAlpha"/>
<feOffset dy="5"/>
<feGaussianBlur stdDeviation="2.5"/>
<feColorMatrix type="matrix" values="0 0 0 0 0 0 0 0 0 0 0 0 0 0 0 0 0 0 0.07 0"/>
<feBlend mode="normal" in2="BackgroundImageFix" result="effect1_dropShadow_146_20"/>
<feBlend mode="normal" in="SourceGraphic" in2="effect1_dropShadow_146_20" result="shape"/>
</filter>
<filter id="filter1_d_146_20" x="0.5" y="0.732422" width="241.754" height="191.857" filterUnits="userSpaceOnUse" color-interpolation-filters="sRGB">
<feFlood flood-opacity="0" result="BackgroundImageFix"/>
<feColorMatrix in="SourceAlpha" type="matrix" values="0 0 0 0 0 0 0 0 0 0 0 0 0 0 0 0 0 0 127 0" result="hardAlpha"/>
<feOffset dy="5"/>
<feGaussianBlur stdDeviation="2.5"/>
<feColorMatrix type="matrix" values="0 0 0 0 0 0 0 0 0 0 0 0 0 0 0 0 0 0 0.07 0"/>
<feBlend mode="normal" in2="BackgroundImageFix" result="effect1_dropShadow_146_20"/>
<feBlend mode="normal" in="SourceGraphic" in2="effect1_dropShadow_146_20" result="shape"/>
</filter>
<linearGradient id="paint0_linear_146_20" x1="11593.1" y1="0.732422" x2="11593.1" y2="18186.5" gradientUnits="userSpaceOnUse">
<stop stop-color="#34AADC"/>
<stop offset="1" stop-color="#007AFF"/>
</linearGradient>
</defs>
</svg>
