<svg width="257" height="206" viewBox="0 0 257 206" fill="none" xmlns="http://www.w3.org/2000/svg">
<path d="M19.6712 155.227C58.4896 92.2513 166.671 94.6587 225.524 114.339C264.947 128.885 272.303 171.242 216.467 191.377C160.632 211.513 -19.1473 218.204 19.6712 155.227Z" fill="black" fill-opacity="0.4"/>
<path d="M35.6424 157.572C34.366 157.494 31.5248 157.731 28.3145 157.418C22.5126 156.793 22.5126 156.793 19.8051 154.993C-0.98623 132.09 -2.36509 97.7754 4.24315 77.0882C10.8514 56.401 23.2815 36.6919 60.2973 16.529C97.3131 -3.63385 160.007 -4.61805 189.018 10.9708C218.028 26.5597 218.168 44.8047 220.179 56.5391C220.875 60.7635 221.842 70.2683 221.61 70.7377C221.533 70.8942 220.373 71.7547 219.096 72.6152C215.576 75.0403 201.923 86.7356 200.917 88.1828C199.989 89.5127 184.246 105.941 180.495 109.5C173.765 115.837 168.117 119.866 160.382 123.816C157.094 125.459 152.723 127.493 150.673 128.236C141.313 131.796 128.162 134.729 110.873 137.154C103.06 138.21 88.6324 141.848 83.0627 144.117C78.1891 146.112 74.3212 148.028 69.0222 151.118C62.7949 154.756 60.3969 155.851 57.4959 156.477C55.0979 156.985 41.3669 157.963 38.9301 157.768C38.3886 157.729 36.9188 157.65 35.6424 157.572Z" fill="#F7E018"/>
<path d="M221.627 70.6761C220.698 71.4284 219.913 72.0625 219.096 72.6154C215.576 75.0405 201.923 86.7354 200.917 88.1826C199.989 89.5125 184.246 105.941 180.495 109.5C173.764 115.837 168.118 119.866 160.382 123.816C157.094 125.459 152.723 127.493 150.673 128.236C141.313 131.796 128.162 134.729 110.873 137.154C103.06 138.21 88.6324 141.848 83.0627 144.117C78.1892 146.112 74.3214 148.028 69.0224 151.118C62.7951 154.756 60.3967 155.851 57.4958 156.477C55.0977 156.985 41.3666 157.963 38.9299 157.768C38.3884 157.729 36.9189 157.65 35.6425 157.572C34.3661 157.494 30.7304 157.181 27.5201 156.868C24.5699 156.549 21.6397 156.076 19.8129 154.998C23.8742 158.597 32.4321 163.166 39.1235 165.786C47.6329 169.111 61.0155 171.653 76.2549 172.866C83.5652 173.452 101.319 172.162 115.321 170.011C133.539 167.273 154.464 160.545 165.99 153.817C169.123 151.979 175.389 147.794 176.163 147.011C176.472 146.698 178.058 145.446 179.682 144.156C182.893 141.652 189.932 134.573 193.452 130.27C196.392 126.711 200.762 121.821 204.901 117.362C212.443 109.383 218.129 97.9223 220.721 85.6794C221.748 80.0395 221.703 74.8844 221.627 70.6761Z" fill="#A37D05"/>
<path d="M39.0103 121.688C32.0868 120.123 26.2463 116.76 18.2398 109.758C12.8248 105.025 8.87951 99.0798 7.48707 93.4864C5.57733 78.8101 14.5355 63.3551 20.9244 53.9422C28.1716 43.4383 41.7408 33.8227 51.3379 26.9558C60.935 20.0889 79.874 10.9108 93.0879 8.51323C96.7237 7.92651 100.622 7.03391 101.283 8.33384C102.42 13.4535 96.6539 17.0309 89.471 23.2018C80.7738 30.7526 72.1604 39.0975 67.9831 42.6569C62.3246 47.6424 54.1833 56.694 49.7631 61.0212C46.8906 64.073 44.2657 67.9413 42.6461 72.4036C41.7952 75.0243 41.6018 76.1977 41.6018 79.9919C41.5631 86.3675 42.3367 88.8317 47.8291 100.097C52.3545 109.445 52.3545 109.445 52.3545 113.865C52.3545 118.95 51.9678 119.85 49.0669 121.375C47.6744 122.079 46.7461 122.236 44.232 122.197C42.5301 122.157 40.1707 121.923 39.0103 121.688Z" fill="#FFF99F"/>
<path d="M139.477 115.054C142.806 120.489 147.136 124.484 154.795 124.484C161.23 124.484 165.34 121.268 165.34 116.825C165.34 111.5 161.117 109.614 154.035 106.516L150.153 104.851C138.948 100.077 131.504 94.0967 131.504 81.4541C131.504 69.8082 140.377 60.9426 154.245 60.9426C164.117 60.9426 171.215 64.3786 176.33 73.3754L164.238 81.1393C161.576 76.3655 158.704 74.4849 154.245 74.4849C149.696 74.4849 146.814 77.3701 146.814 81.1393C146.814 85.7977 149.699 87.6836 156.361 90.5688L160.243 92.2318C173.437 97.8895 180.886 103.657 180.886 116.625C180.886 130.606 169.904 138.265 155.155 138.265C140.734 138.265 131.417 131.392 126.858 122.385L139.477 115.054ZM84.6235 116.4C87.0629 120.728 89.2819 124.387 94.617 124.387C99.7186 124.387 102.937 122.39 102.937 114.629V61.8291H118.465V114.839C118.465 130.918 109.038 138.236 95.278 138.236C82.8452 138.236 75.6451 131.802 71.9835 124.052L84.6235 116.4Z" fill="black"/>
</svg>
