<svg width="240" height="257" viewBox="0 0 240 257" fill="none" xmlns="http://www.w3.org/2000/svg">
<path d="M163.414 89.7754L121.124 127.979C121.097 128.003 121.061 128.017 121.025 128.017C120.988 128.017 120.952 128.003 120.925 127.979L77.349 89.7803C77.3235 89.7588 77.3059 89.7295 77.2988 89.6969C77.2918 89.6643 77.2957 89.6302 77.31 89.6001L120.223 0.359227C120.236 0.333436 120.255 0.311648 120.279 0.296393C120.303 0.281138 120.331 0.273041 120.36 0.273041C120.388 0.273041 120.416 0.281138 120.44 0.296393C120.465 0.311648 120.484 0.333436 120.496 0.359227L163.448 89.5952C163.463 89.6249 163.468 89.6585 163.462 89.6911C163.456 89.7237 163.439 89.7533 163.414 89.7754Z" fill="#FAA520"/>
<path d="M239.608 152.472L193.636 192.639C193.609 192.663 193.575 192.676 193.539 192.677C193.503 192.678 193.469 192.666 193.441 192.644L131.27 139.639C131.253 139.625 131.24 139.607 131.231 139.587C131.222 139.568 131.217 139.546 131.217 139.524C131.217 139.503 131.222 139.481 131.231 139.461C131.24 139.442 131.253 139.424 131.27 139.41L239.408 43.3359C239.43 43.316 239.457 43.3028 239.486 43.298C239.515 43.2932 239.544 43.297 239.571 43.3089C239.598 43.3208 239.621 43.3403 239.637 43.365C239.653 43.3897 239.661 43.4185 239.661 43.4479V152.36C239.661 152.382 239.656 152.403 239.646 152.422C239.637 152.442 239.624 152.459 239.608 152.472Z" fill="#E18026"/>
<path d="M3.67908 44.6363L181.63 202.677C181.647 202.692 181.662 202.711 181.671 202.732C181.681 202.753 181.686 202.776 181.686 202.799C181.686 202.822 181.681 202.845 181.671 202.866C181.662 202.887 181.647 202.905 181.63 202.92L121.095 256.232C121.066 256.258 121.028 256.273 120.988 256.273C120.949 256.273 120.911 256.258 120.881 256.232L0.128535 152.477C0.109907 152.462 0.09498 152.443 0.0848618 152.421C0.0747436 152.399 0.0696945 152.375 0.0700899 152.351L3.41121 44.7483C3.41265 44.718 3.42267 44.6886 3.44011 44.6637C3.45755 44.6388 3.48169 44.6194 3.50974 44.6077C3.53779 44.5959 3.56858 44.5924 3.59856 44.5975C3.62853 44.6025 3.65645 44.616 3.67908 44.6363Z" fill="#F78F28"/>
</svg>
