<svg width="1068" height="1227" viewBox="0 0 1068 1227" fill="none" xmlns="http://www.w3.org/2000/svg">
<path d="M942 649.996H162V810.996H942V649.996Z" fill="#939393"/>
<path d="M533.275 1224.21L4.53598 918.94L533.178 613.732L533.91 613.309L534.642 613.732L1063.38 919L534.739 1224.21L534.007 1224.63L533.275 1224.21Z" fill="white" stroke="black" stroke-width="4"/>
<path d="M327.999 731.031L205.912 801.518L735.919 1107.52L858.01 1037.03L327.999 731.031Z" fill="black"/>
<path d="M858.4 801.301L736.295 730.801L205.949 1037L328.059 1107.5L858.4 801.301Z" fill="black"/>
<path d="M753.182 685.625C741.381 692.437 734.421 706.82 734.382 726.536L534 610.845V3.46409L1060.01 307.155V914.536L859.92 799.015V796.87C859.92 777.061 852.981 755.25 841.856 735.979C830.731 716.708 815.311 699.79 798.15 689.883C781.007 679.985 765.017 678.794 753.182 685.625Z" fill="white" stroke="black" stroke-width="4"/>
<path fill-rule="evenodd" clip-rule="evenodd" d="M830.331 418.54C806.371 405.145 794.341 398.285 794.251 397.959C790.151 382.959 782.949 367.661 769.957 360.16C757.59 353.02 746.92 357.22 746.92 372.06C746.92 414.9 835.671 438.14 835.671 519.34C835.671 545.94 818.211 575.62 771.654 548.74C735.766 528.02 709.82 492.88 704 446.96L743.237 469.488C743.326 469.875 743.418 470.261 743.512 470.646C747.668 487.718 755.929 502.702 771.412 511.64C786.201 520.18 798.571 518.36 798.571 499.6C798.571 455.92 709.82 429.88 709.82 355.68C709.82 316.48 738.433 305 771.169 323.9C803.181 342.38 827.181 380.04 830.331 418.54ZM889.071 613.17L851.241 591.33V373.49L889.071 395.33V613.17Z" fill="black"/>
<path d="M206.507 796.703L206.514 798.844L6.12395 914.543L4.00403 307.152L530.019 3.45715L532.14 610.844L332.044 726.369C331.94 706.648 324.916 692.264 313.072 685.452C301.197 678.622 285.181 679.808 268.031 689.71C250.875 699.615 235.482 716.531 224.4 735.803C213.317 755.075 206.437 776.889 206.507 796.703Z" fill="white" stroke="black" stroke-width="4"/>
<path d="M87 455.815L122.126 435.535L146.621 569.159L147.054 568.909L175.36 404.8L208.217 385.83L234.771 520.079L235.282 519.784L262.093 354.725L296.543 334.835L252.535 577.369L217.677 597.494L191.346 464.93L190.671 465.32L163.55 628.744L128.043 649.244L87 455.815ZM336.146 311.97L391.52 280L447.269 464.939L411.035 485.859L398.906 444.544L335.825 480.964L326.762 534.514L291.471 554.889L336.146 311.97ZM357.412 353.21L342.369 441.554L390.053 414.024L372.186 344.68L357.412 353.21ZM735.395 731.812L857.508 802.312L327.497 1108.32L205.387 1037.82L735.395 731.812Z" fill="black"/>
<path fill-rule="evenodd" clip-rule="evenodd" d="M736 730.685L786.12 760.185L857.54 800.855V797.555C857.54 758.805 830.34 711.68 796.77 692.3C763.211 672.925 736 688.625 736 727.385V730.685ZM329.538 729.685L279.42 759.185L208 799.855V796.555C208 757.805 235.202 710.68 268.769 691.3C302.328 671.925 329.538 687.625 329.538 726.385V729.685Z" fill="black"/>
</svg>
