<svg width="214" height="257" viewBox="0 0 214 257" fill="none" xmlns="http://www.w3.org/2000/svg">
<path d="M66.2579 99.6118C66.2579 99.8517 66.2579 100.091 66.2579 100.33C66.2579 108.766 60.7837 112.445 54.0532 108.556C47.3227 104.668 41.8485 94.6765 41.8485 86.2407C41.8485 86.0015 41.8485 85.7624 41.8485 85.5226L0.837208 61.8315V194.946L107.329 256.418V123.303L66.2579 99.6118Z" fill="#0F0518"/>
<path d="M119.504 68.8899C119.504 69.1292 119.504 69.3685 119.504 69.6078C119.504 78.0433 114.029 81.7226 107.299 77.8339C100.569 73.9453 95.0941 63.9542 95.0941 55.5186C95.0941 55.2793 95.0941 55.04 95.0941 54.8007L54.0831 31.1392V78.7614L119.295 116.422V201.915L160.575 225.756V92.6413L119.504 68.8899Z" fill="#0F0518"/>
<path d="M172.75 38.1991C172.75 38.4384 172.75 38.6777 172.75 38.917C172.75 47.3526 167.275 51.032 160.545 47.1432C153.814 43.2545 148.34 33.2634 148.34 24.8278C148.34 24.5885 148.34 24.3492 148.34 24.1099L107.329 0.418457V48.0407L172.54 85.7014V171.194L213.82 195.035V61.9205L172.75 38.1991Z" fill="#0F0518"/>
</svg>
