<svg width="236" height="256" viewBox="0 0 236 256" fill="none" xmlns="http://www.w3.org/2000/svg">
<path d="M0 54.8221L235.49 2.10529V255.32L0.0903098 256L0 54.8221Z" fill="black"/>
<path d="M15.7766 183.669H32.3269L38.293 215.193L46.9918 183.669H63.5027L72.2409 215.193L78.207 183.669H94.6801L82.2485 240.095H65.158L55.2669 204.569L45.4137 240.095H28.3248L15.7766 183.669Z" fill="white"/>
<path d="M135.133 230.781H115.272L112.539 240.095H94.718L115.926 183.669H134.939L156.148 240.095H137.903L135.133 230.781ZM131.476 218.579L125.24 198.296L119.044 218.579H131.476Z" fill="white"/>
<path d="M157.842 183.669H177.047L187.055 201.028L196.754 183.669H215.767L198.217 210.997L217.423 240.095H197.831L186.708 221.967L175.546 240.095H156.071L175.546 210.69L157.842 183.669Z" fill="white"/>
<path d="M52.697 68.2751C33.8444 68.2751 18.5603 52.991 18.5603 34.1384C18.5603 15.2841 33.8444 0 52.697 0C71.5513 0 86.8354 15.2841 86.8354 34.1384C86.8354 52.991 71.5513 68.2751 52.697 68.2751Z" fill="#7A67FF"/>
<path d="M96.8054 63.9643C83.3606 63.9643 72.4612 53.0648 72.4612 39.62C72.4612 26.1752 83.3606 15.2759 96.8054 15.2759C110.25 15.2759 121.15 26.1752 121.15 39.62C121.15 53.0648 110.25 63.9643 96.8054 63.9643Z" fill="#7A67FF"/>
<path d="M17.8592 63.9643C9.91086 63.9643 3.4668 57.5202 3.4668 49.5719C3.4668 41.6235 9.91086 35.1795 17.8592 35.1795C25.8075 35.1795 32.2516 41.6235 32.2516 49.5719C32.2516 57.5202 25.8075 63.9643 17.8592 63.9643Z" fill="#7A67FF"/>
<path d="M18.5603 48.1531H28.6221V128.646H18.5603V48.1531Z" fill="#7A67FF"/>
<path d="M37.1455 51.7462H55.5039V107.376H37.1455V51.7462Z" fill="#7A67FF"/>
<path d="M67.5117 51.7462H77.4011V153.058H67.5117V51.7462Z" fill="#7A67FF"/>
<path d="M85.8142 43.1213H95.0434V83.3687H85.8142V43.1213Z" fill="#7A67FF"/>
<path d="M23.5904 140.145C19.2254 140.145 15.6848 136.606 15.6848 132.239C15.6848 127.873 19.2254 124.334 23.5904 124.334C27.9571 124.334 31.496 127.873 31.496 132.239C31.496 136.606 27.9571 140.145 23.5904 140.145Z" fill="#7A67FF"/>
<path d="M46.3975 116.911C41.3674 116.911 37.2898 112.833 37.2898 107.803C37.2898 102.775 41.3674 98.6971 46.3975 98.6971C51.426 98.6971 55.5036 102.775 55.5036 107.803C55.5036 112.833 51.426 116.911 46.3975 116.911Z" fill="#7A67FF"/>
<path d="M72.7206 166.018C66.5672 166.018 61.5798 161.031 61.5798 154.877C61.5798 148.726 66.5672 143.738 72.7206 143.738C78.8724 143.738 83.8598 148.726 83.8598 154.877C83.8598 161.031 78.8724 166.018 72.7206 166.018Z" fill="#7A67FF"/>
<path d="M90.6884 91.992C86.9179 91.992 83.8601 88.9358 83.8601 85.1652C83.8601 81.3947 86.9179 78.337 90.6884 78.337C94.4589 78.337 97.5151 81.3947 97.5151 85.1652C97.5151 88.9358 94.4589 91.992 90.6884 91.992Z" fill="#7A67FF"/>
<path d="M129.129 43.1213C119.376 43.1213 111.47 35.2157 111.47 25.4626C111.47 15.7094 119.376 7.80383 129.129 7.80383C138.882 7.80383 146.788 15.7094 146.788 25.4626C146.788 35.2157 138.882 43.1213 129.129 43.1213Z" fill="#7A67FF"/>
<path d="M98.7334 51.7462C86.5991 51.7462 76.7622 41.9093 76.7622 29.775C76.7622 17.6406 86.5991 7.80383 98.7334 7.80383C110.868 7.80383 120.705 17.6406 120.705 29.775C120.705 41.9093 110.868 51.7462 98.7334 51.7462Z" fill="#7A67FF"/>
</svg>
