<svg width="257" height="231" viewBox="0 0 257 231" fill="none" xmlns="http://www.w3.org/2000/svg">
<path d="M65.8849 3.32379L96.0452 57.7354L68.3469 107.592C67.021 109.973 66.3251 112.653 66.3251 115.379C66.3251 118.104 67.021 120.784 68.3469 123.165L96.0452 173.145L65.8849 227.556C60.2098 224.743 55.4971 220.309 52.3435 214.815L4.33324 131.413C1.53605 126.543 0.0640869 121.025 0.0640869 115.409C0.0640869 109.793 1.53605 104.276 4.33324 99.4059L52.3435 16.0034C55.5066 10.5328 60.2184 6.12089 65.8849 3.32379Z" fill="url(#paint0_linear_47_192)"/>
<path opacity="0.7" d="M68.3469 107.654C67.032 110.027 66.3421 112.696 66.3421 115.409C66.3421 118.123 67.032 120.791 68.3469 123.165L96.0451 173.145L65.8848 227.556C60.2097 224.743 55.4971 220.309 52.3435 214.815L4.33319 131.413C0.516988 124.827 21.8754 116.948 68.3469 107.715V107.654Z" fill="url(#paint1_linear_47_192)"/>
<path opacity="0.5" d="M68.9625 8.80189L96.0452 57.7354L91.5519 65.5525L67.6699 25.1131C60.7761 13.8491 50.2508 19.6965 37.0787 42.4706L39.0484 39.0853L52.3435 16.0034C55.4738 10.5507 60.1408 6.14067 65.7618 3.32379L68.9009 8.80189H68.9625Z" fill="url(#paint2_linear_47_192)"/>
<path d="M203.761 16.0034L251.771 99.4059C257.495 109.254 257.495 121.564 251.771 131.413L203.761 214.815C200.953 219.678 196.916 223.716 192.054 226.525C187.192 229.334 181.677 230.815 176.062 230.819H128.052L187.757 123.165C189.072 120.791 189.762 118.123 189.762 115.409C189.762 112.696 189.072 110.027 187.757 107.654L128.052 0H176.062C181.677 0.00359863 187.192 1.48422 192.054 4.29323C196.916 7.10224 200.953 11.1408 203.761 16.0034Z" fill="url(#paint3_linear_47_192)"/>
<path d="M173.6 230.449L126.206 230.88L183.572 122.672C184.854 120.266 185.525 117.582 185.525 114.855C185.525 112.129 184.854 109.444 183.572 107.038L126.206 0H137.039L197.236 106.546C198.663 109.063 199.407 111.909 199.397 114.802C199.386 117.695 198.62 120.535 197.175 123.042C184.219 145.558 171.355 168.128 158.582 190.749C146.887 211.307 151.934 224.54 173.6 230.449Z" fill="url(#paint4_linear_47_192)"/>
<path d="M80.0418 230.819C75.1176 230.819 70.1935 229.649 65.8849 227.556L125.098 120.764C126.944 117.441 126.944 113.378 125.098 110.054L65.8849 3.32379C70.2863 1.14434 75.1303 0.00706214 80.0418 0L128.052 0L187.757 107.654C189.072 110.027 189.762 112.696 189.762 115.409C189.762 118.123 189.072 120.791 187.757 123.165L128.052 230.819H80.0418Z" fill="url(#paint5_linear_47_192)"/>
<path opacity="0.6" d="M183.572 110.054L122.512 0H128.052L187.757 107.654C189.072 110.027 189.762 112.696 189.762 115.409C189.762 118.123 189.072 120.791 187.757 123.165L128.052 230.819H122.512L183.572 120.764C185.418 117.441 185.418 113.378 183.572 110.054Z" fill="url(#paint6_linear_47_192)"/>
<path opacity="0.6" d="M125.098 110.054L65.8849 3.32376C67.7314 2.33894 69.9473 1.60032 72.0401 0.984802C85.089 24.436 104.355 60.0128 129.899 107.654C131.214 110.027 131.903 112.696 131.903 115.409C131.903 118.123 131.214 120.791 129.899 123.165L71.1168 229.588C69.024 228.972 67.9161 228.541 65.9464 227.618L125.036 120.826C126.883 117.502 126.883 113.44 125.036 110.116L125.098 110.054Z" fill="url(#paint7_linear_47_192)"/>
<defs>
<linearGradient id="paint0_linear_47_192" x1="50%" x2="25.7%" y1="100%" y2="8.7%">
<stop offset="0%" stop-color="#eb6f07"></stop>
<stop offset="100%" stop-color="#fab743"></stop>
</linearGradient>
<linearGradient id="paint1_linear_47_192" x1="81%" x2="40.5%" y1="83.7%" y2="29.5%">
<stop offset="0%" stop-color="#d96504"></stop>
<stop offset="100%" stop-color="#d96504" stop-opacity="0"></stop>
</linearGradient>
<linearGradient id="paint2_linear_47_192" x1="42%" x2="84%" y1="8.7%" y2="79.9%">
<stop offset="0%" stop-color="#eb6f07"></stop>
<stop offset="100%" stop-color="#eb720a" stop-opacity="0"></stop>
</linearGradient>
<linearGradient id="paint3_linear_47_192" x1="50%" x2="25.7%" y1="100%" y2="8.7%">
<stop offset="0%" stop-color="#ee6f05"></stop>
<stop offset="100%" stop-color="#fab743"></stop>
</linearGradient>
<linearGradient id="paint4_linear_47_192" x1="-33.2%" x2="91.7%" y1="100%" y2="0%">
<stop offset="0%" stop-color="#d96504" stop-opacity=".8"></stop>
<stop offset="49.8%" stop-color="#d96504" stop-opacity=".2"></stop>
<stop offset="1" stop-color="#D96504" stop-opacity="0"/>
</linearGradient>
<linearGradient id="paint5_linear_47_192" x1="50%" x2="25.7%" y1="100%" y2="8.7%">
<stop offset="0%" stop-color="#ffa95f"></stop>
<stop offset="100%" stop-color="#ffebc8"></stop>
</linearGradient>
<linearGradient id="paint6_linear_47_192" x1="8.1%" x2="96.5%" y1="1.1%" y2="48.8%">
<stop offset="0%" stop-color="#fff" stop-opacity=".5"></stop>
<stop offset="100%" stop-color="#fff" stop-opacity=".1"></stop>
</linearGradient>
<linearGradient id="paint7_linear_47_192" x1="-13.7%" y1="104.2%" y2="46.2%">
<stop offset="0%" stop-color="#fff" stop-opacity=".5"></stop>
<stop offset="100%" stop-color="#fff" stop-opacity=".1"></stop>
</linearGradient>
</defs>
</svg>
