<svg width="257" height="216" viewBox="0 0 257 216" fill="none" xmlns="http://www.w3.org/2000/svg">
<path d="M240.909 21.4669C278.274 112.674 240.909 161.711 209.299 188.748C217.024 215.784 186.233 221.362 174.537 208.06C140.108 219.933 70.1598 219.546 20.0413 169.436C-6.99552 142.399 14.0932 82.2534 85.7021 41.9762C147.501 7.21463 209.299 -12.0974 240.909 21.4669Z" fill="#FFDB1E"/>
<path d="M85.702 41.9769C138.601 7.23843 201.767 -7.30738 227.591 15.1718C267.235 49.7017 143.638 127.815 97.2892 146.262C47.078 166.246 74.1148 211.923 47.078 211.923C23.9036 211.923 27.766 181.023 7.04034 152.055C-5.20348 134.945 25.1395 81.7442 85.702 41.9769Z" fill="white" stroke="#FFDB1E" stroke-width="7.7248"/>
<path d="M197.983 20.9022C233.865 30.5582 195.163 64.895 164.743 86.8412C135.914 107.636 113.713 119.363 103.54 124.152C100.712 125.488 91.0486 106.756 91.0486 116.427C91.0486 119.648 85.6412 133.715 83.8336 134.395C73.2892 138.35 51.2117 144.36 38.7594 144.36C11.7921 144.36 23.9046 107.636 62.0419 73.8944C68.9324 67.7995 73.4592 68.9119 79.6776 68.9119C75.5294 62.9406 75.5526 61.8282 82.7907 56.9693C114.98 35.3322 155.226 20.8868 172.313 18.1831C175.141 18.2913 178.648 20.8868 178.648 23.042C181.815 21.9605 194.831 20.0448 197.983 20.8945V20.9022Z" fill="#FFE600"/>
<path d="M87.998 80.5246C95.607 74.7542 100.698 72.7226 104.212 61.0118C108.585 61.9465 110.709 60.3938 114.177 55.5967C116.68 59.1964 126.977 60.2934 133.126 61.0118C127.603 64.4957 124.961 67.5933 121.91 77.2802C110.601 72.5604 97.4455 74.9473 87.998 80.5246Z" fill="white"/>
</svg>
