<svg width="216" height="257" viewBox="0 0 216 257" fill="none" xmlns="http://www.w3.org/2000/svg">
<path d="M34.85 193.195C27.7966 173.678 45.9451 152.883 55.0063 137.329C56.3818 134.962 58.4874 134.415 59.8433 132.368C61.0754 130.51 62.353 128.6 63.885 126.925C89.8104 98.6003 124.347 65.0674 123.695 21.7366C123.591 14.6637 122 7.6103 119.993 0.758993C119.965 0.660897 119.974 0.556341 120.017 0.463907C120.059 0.371474 120.133 0.297151 120.226 0.254147C120.318 0.211144 120.422 0.202245 120.521 0.229033C120.619 0.255821 120.704 0.31656 120.762 0.400456C129.223 13.0209 135.012 25.6936 133.741 40.8173C132.546 55.0414 128.065 68.3898 120.299 80.8626C111.955 94.2653 101.525 106.99 90.5405 118.32C82.5528 126.568 74.967 135.165 67.7832 144.108C63.5286 149.406 60.8602 152.831 59.7781 154.382C53.8329 162.928 48.1224 175.647 48.9959 185.985C50.5539 204.434 68.0766 210.418 83.9369 210.353C98.8847 210.294 113.004 202.602 122.737 191.422C125.983 187.693 129.089 183.852 132.053 179.897C138.702 171.018 144.973 161.892 153.702 154.884C157.88 151.533 163.734 148.215 168.715 144.819C169.032 144.602 169.101 144.663 168.923 145.002C168.395 145.999 167.404 146.964 166.967 147.863C157.828 166.677 147.131 183.352 132.828 199.075C116.134 217.419 93.5457 226.996 68.6242 221.448C53.1354 217.993 40.3324 208.345 34.85 193.195Z" fill="#18659F"/>
<path d="M10.2219 143.45C14.4331 135.028 18.5204 127.766 24.1592 120.256C29.622 112.977 35.4651 106.023 41.6884 99.3956C59.1915 80.7452 71.0232 64.1938 84.3021 43.138C88.1352 37.0559 91.1208 30.7978 94.1064 24.3637C94.1351 24.2926 94.1888 24.2345 94.2574 24.2004C94.326 24.1663 94.4048 24.1586 94.4787 24.1787C94.5527 24.1988 94.6167 24.2453 94.6586 24.3094C94.7005 24.3736 94.7174 24.4509 94.7062 24.5267C93.5371 36.1606 90.8383 47.4252 86.6098 58.3204C79.5694 76.4688 67.1184 92.1988 54.2111 106.117C48.0508 112.759 42.5033 118.607 37.6989 124.871C36.4407 126.507 34.7915 127.837 33.7224 129.454C31.8449 132.275 30.1805 135.214 28.7289 138.274C24.1657 147.902 19.6026 158.45 17.7121 168.965C15.952 178.743 16.6626 189.375 18.9833 199.049C22.0406 211.787 32.9401 223.84 43.5398 231.122C45.5519 232.504 49.5958 234.796 55.6713 237.999C57.4184 238.921 59.185 239.583 60.9712 239.988C76.0818 243.403 90.9774 244.642 106.114 240.046C124.895 234.342 140.058 221.735 152.965 206.455C163.434 194.056 172.989 180.975 181.628 167.211C187.893 157.231 193.669 146.566 202.032 137.889C205.5 134.291 210.65 130.549 214.731 126.566C214.777 126.516 214.84 126.485 214.908 126.479C214.975 126.474 215.043 126.494 215.096 126.537C215.149 126.579 215.184 126.64 215.194 126.707C215.203 126.774 215.187 126.843 215.148 126.899C208.46 137.902 204.66 150.412 198.473 161.748C184.484 187.367 167.985 210.692 146.185 229.975C134.81 240.04 121.186 247.621 106.936 252.562C101.612 254.409 96.0425 255.576 90.2277 256.063C85.4364 256.461 79.9345 255.972 74.7976 255.744C61.7013 255.163 51.3428 250.828 40.2543 244.088C31.1083 238.527 21.5973 231.859 15.3066 222.98C8.34885 213.154 3.84868 202.289 1.80611 190.386C-0.957883 174.278 2.97298 157.941 10.2219 143.45Z" fill="#5D6674"/>
</svg>
