<svg width="256" height="257" viewBox="0 0 256 257" fill="none" xmlns="http://www.w3.org/2000/svg">
<path d="M0 29.6356C0 13.4353 13.2713 0.302307 29.6422 0.302307H226.358C242.729 0.302307 256 13.4353 256 29.6356V226.969C256 243.169 242.729 256.302 226.358 256.302H29.6422C13.2713 256.302 0 243.169 0 226.969V29.6356Z" fill="#F6E458"/>
<path d="M164.056 57.5249C149.932 53.51 135.525 52.9643 120.844 54.2637C112.628 55.1084 104.73 56.7223 97.1116 59.5543C80.6442 65.6754 68.2803 76.2765 60.9077 92.2388C55.6222 103.682 53.7119 115.838 53.5128 128.311C53.3024 141.491 54.9716 154.49 57.6239 167.378C60.028 179.059 63.2296 190.511 67.802 201.567C68.2364 202.617 68.7775 202.971 69.937 202.969C84.3981 202.938 98.8599 202.938 113.322 202.938C117.602 202.938 121.884 202.938 126.165 202.937C126.493 202.937 126.821 202.92 127.198 202.899C127.39 202.889 127.595 202.878 127.82 202.868C127.733 202.663 127.656 202.475 127.582 202.299C127.44 201.952 127.315 201.651 127.175 201.356C126.13 199.142 125.062 196.938 123.995 194.733C121.679 189.952 119.365 185.17 117.271 180.294C110.92 165.509 106.056 150.286 104.572 134.172C103.918 127.062 104.008 119.993 106.002 113.064C108.28 105.145 113.17 99.5543 121.277 97.217C128.721 95.0713 136.269 95.0851 143.672 97.4546C150.28 99.5688 154.588 104.036 156.421 110.723C157.828 115.859 157.827 121.05 156.763 126.229C155.943 130.215 154.293 133.853 151.322 136.763C145.992 141.983 139.337 143.184 132.196 142.784C130.925 142.712 129.659 142.575 128.354 142.433C127.742 142.367 127.123 142.299 126.49 142.237C126.508 142.437 126.518 142.621 126.528 142.794C126.546 143.133 126.562 143.428 126.632 143.709C126.937 144.919 127.227 146.134 127.517 147.349C128.216 150.276 128.915 153.203 129.812 156.068C131.577 161.695 133.627 167.187 135.953 172.548C152.529 171.268 167.795 167.191 183.999 157.565C184.243 157.413 184.464 157.276 184.686 157.139C191.646 152.851 197.279 147.289 201.164 140.106C207.456 128.474 208.682 116.035 206.813 103.195C204.884 89.9445 198.875 78.8223 188.53 70.0982C181.356 64.0471 173.06 60.0843 164.056 57.5249Z" fill="black"/>
</svg>
