<svg width="256" height="256" viewBox="0 0 256 256" fill="none" xmlns="http://www.w3.org/2000/svg">
<path d="M137.179 195.931C137.179 163.117 163.779 136.517 196.592 136.517C229.405 136.517 256.005 163.117 256.005 195.931C256.005 228.744 229.405 255.344 196.592 255.344C163.779 255.344 137.179 228.744 137.179 195.931Z" fill="#858585"/>
<path d="M137.179 59.4133C137.179 26.6003 163.779 0 196.592 0C229.405 0 256.005 26.6003 256.005 59.4133V112.885C256.005 116.166 253.345 118.827 250.064 118.827H143.12C139.839 118.827 137.179 116.166 137.179 112.885V59.4133Z" fill="#CCCCCC"/>
<path d="M118.827 195.931C118.827 228.744 92.2263 255.344 59.4133 255.344C26.6003 255.344 0 228.744 0 195.931L1.18988e-05 142.459C1.18988e-05 139.177 2.66004 136.517 5.94134 136.517H112.885C116.167 136.517 118.827 139.177 118.827 142.459V195.931Z" fill="#4D4D4D"/>
</svg>
