<svg width="212" height="257" viewBox="0 0 212 257" fill="none" xmlns="http://www.w3.org/2000/svg">
<path d="M204.847 137.899C204.35 138.136 203.853 138.439 203.357 138.741C203.335 135.589 201.673 134.056 200.507 132.393C194.893 124.361 184.054 127.406 180.859 134.79C180.427 135.805 187.466 144.981 187.164 145.974C182.5 148.068 178.009 152.883 177.102 157.093C178.03 152.754 174.792 150.724 169.891 152.343C164.989 153.963 160.347 158.626 159.678 162.945C160.369 158.626 156.871 156.273 151.862 157.482C146.853 158.691 142.383 162.988 141.93 167.284C142.383 162.988 138.627 160.289 133.574 161.045C128.522 161.8 124.204 165.73 123.988 170.005C124.182 165.708 120.209 162.664 115.114 162.945C110.018 163.225 105.894 166.766 105.937 171.063C105.894 166.788 101.706 163.333 96.6101 163.161C91.5145 162.988 87.5849 166.119 87.8656 170.415C87.5849 166.119 83.1803 162.297 78.128 161.649C73.0541 161.001 69.362 163.765 69.8802 168.062C69.362 163.765 64.7847 159.555 59.7755 158.454C54.7663 157.353 51.3118 159.771 52.0674 164.089C51.3118 159.792 46.5833 155.215 41.6389 153.682C36.6945 152.171 33.499 154.265 34.5138 158.583C33.5206 154.265 22.6171 136.02 21.4296 133.322C18.2341 125.937 12.0806 123.605 6.81232 128.399C4.6532 130.364 3.31455 133.926 4.4157 139.173C0.9827 138.223 -0.723004 139.885 0.529285 143.534C7.37369 163.528 14.1317 183.867 19.7454 204.313C22.1421 213.058 24.625 224.393 31.6638 230.914C36.7161 235.577 43.0207 238.816 49.0879 241.429C67.2029 249.201 87.3043 251.576 106.024 251.706C126.06 251.836 151.538 246.999 169.264 236.916C175.979 233.116 182.37 228.69 185.371 221.241C190.316 208.891 193.9 195.936 197.678 183.543C201.975 169.465 205.214 154.524 210.784 141.375C212.166 137.057 209.532 135.567 204.847 137.899Z" fill="#48A2AD"/>
<path d="M105.356 194.663C159.028 194.663 202.538 177.176 202.538 155.604C202.538 134.033 159.028 116.546 105.356 116.546C51.6837 116.546 8.17383 134.033 8.17383 155.604C8.17383 177.176 51.6837 194.663 105.356 194.663Z" fill="url(#paint0_radial_51_717)"/>
<path d="M187.878 99.8337C186.065 97.9984 183.841 96.2711 181.185 94.7598C181.185 94.7598 119.261 114.904 76.1654 112.724C33.0694 110.543 39.4173 105.836 17.5238 119.784C17.5238 119.784 11.543 128.334 18.8409 133.538C28.3842 140.339 40.432 145.952 53.6458 150.228C55.2436 149.062 56.8413 148.328 58.2016 148.328C99.2896 134.056 179.22 152.149 187.878 99.8337Z" fill="url(#paint1_linear_51_717)"/>
<path d="M187.877 99.834C179.219 152.149 99.2882 134.056 58.2218 148.328C56.8615 148.328 55.2638 149.04 53.666 150.228C86.8085 160.937 127.357 163.118 154.432 154.114C188.438 142.844 203.79 115.963 187.877 99.834Z" fill="#EB5E8E"/>
<path d="M170.326 61.2935C170.326 61.2935 182.05 68.2458 182.05 86.2313C182.05 104.217 167.088 127.535 100.695 120.864C34.8848 114.235 17.8926 119.849 17.8926 119.849C17.8926 119.849 -2.2736 92.4711 39.8724 92.6223C77.5922 92.7518 133.686 97.1996 146.9 88.8222C166.569 76.2993 167.304 75.9539 170.326 61.2935Z" fill="url(#paint2_linear_51_717)"/>
<path d="M93.6777 47.9288C114.103 35.1684 113.002 16.6215 103.264 0.838379C102.206 1.44293 101.58 2.71681 102.12 4.03387C104.257 9.17258 106.157 16.4272 102.703 21.3068C96.8516 29.5547 86.0128 31.649 68.2864 41.5378C51.3805 50.9515 44.8816 59.9335 43.6941 71.2041C43.5861 72.262 44.1907 73.2768 45.1838 73.7734C47.0839 74.7234 50.7112 76.278 56.1954 77.703C62.1545 62.9562 80.0968 54.7084 93.6777 47.9288Z" fill="#F77CA5"/>
<path d="M138.24 24.2002C129.107 14.3546 118.311 6.32265 105.81 0.708945C104.903 0.298712 103.975 0.428259 103.241 0.838492C112.978 16.6001 114.079 35.1469 93.6542 47.9289C80.0949 54.7085 62.1526 62.9563 56.1719 77.7031C62.131 79.2577 70.2925 80.6611 80.9154 80.985C106.954 81.7623 142.04 80.3372 147.999 70.1246C153.98 59.9336 148.992 35.7946 138.24 24.2002Z" fill="url(#paint3_linear_51_717)"/>
<path d="M168.487 57.7748C168.984 56.5225 169.351 55.227 169.61 53.9315C162.614 43.2223 146.248 39.9404 146.248 39.9404C163.996 77.725 71.629 69.4988 45.4605 71.0533C34.3194 71.7227 27.9284 76.6239 24.2363 82.0648C29.6989 79.2148 36.0899 77.6386 42.5025 75.5011C83.828 65.6555 150.761 107.003 168.487 57.7748Z" fill="#F79EBC"/>
<path d="M172.204 59.8476C171.694 57.7389 170.817 55.7363 169.613 53.9316C169.354 55.2487 168.987 56.5226 168.49 57.7749C150.764 107.003 83.8314 65.6557 42.4843 75.5012C36.0933 77.6388 29.6807 79.1933 24.2181 82.065C19.2306 89.3844 19.209 97.6322 19.209 97.6322C46.1332 89.4707 65.9971 97.6754 117.751 98.4311C169.505 99.1436 175.918 75.3069 172.204 59.8476Z" fill="url(#paint4_linear_51_717)"/>
<path d="M204.894 152.863C200.165 155.065 195.221 160.117 193.99 164.327C195.243 160.117 192.328 158.325 187.491 160.117C182.633 161.909 177.797 166.551 176.782 170.675C177.797 166.551 174.601 164.5 169.657 165.882C164.713 167.264 159.984 171.517 159.228 175.576C160.006 171.517 156.551 169.185 151.542 170.157C146.533 171.129 141.955 175.015 141.437 179.031C141.977 175.015 138.263 172.381 133.211 172.942C128.137 173.504 123.754 177.045 123.473 181.017C123.754 177.045 119.846 174.087 114.751 174.238C109.655 174.389 105.466 177.584 105.423 181.557C105.466 177.584 101.342 174.303 96.2469 174.043C91.173 173.784 87.1786 176.656 87.3946 180.65C87.2002 176.656 82.882 173.05 77.8081 172.381C72.7557 171.712 68.9989 174.281 69.4523 178.297C68.9989 174.281 64.5295 170.287 59.5203 169.229C54.5112 168.171 51.035 170.416 51.7043 174.497C51.0134 170.416 46.3929 166.076 41.4701 164.587C36.5473 163.097 33.3302 165.105 34.2586 169.25C33.3302 165.105 28.5802 160.355 23.7653 158.476C18.9505 156.598 16.0141 158.325 17.18 162.557C16.0141 158.325 11.1777 153.165 6.49238 150.876C1.80709 148.587 -0.827037 150.077 0.554799 154.417C6.12532 167.501 9.38559 182.162 13.6822 195.721C17.4823 207.661 21.0664 220.033 26.0324 231.541C29.0336 238.493 35.3814 242.164 42.161 245.23C61.5715 253.974 84.2422 256.241 105.272 256.435C124.272 256.63 143.963 254.967 162.078 248.943C168.167 246.914 174.472 244.388 179.524 240.35C186.584 234.715 189.067 223.941 191.486 215.607C197.251 195.656 204.052 176.203 210.745 156.555C212.213 152.193 209.622 150.66 204.894 152.863Z" fill="url(#paint5_linear_51_717)"/>
<path d="M46.8221 99.3376C49.207 99.3376 51.1404 97.4043 51.1404 95.0194C51.1404 92.6345 49.207 90.7012 46.8221 90.7012C44.4372 90.7012 42.5039 92.6345 42.5039 95.0194C42.5039 97.4043 44.4372 99.3376 46.8221 99.3376Z" fill="#B8EB96"/>
<path d="M74.8905 114.991C77.2754 114.991 79.2087 113.058 79.2087 110.673C79.2087 108.288 77.2754 106.354 74.8905 106.354C72.5056 106.354 70.5723 108.288 70.5723 110.673C70.5723 113.058 72.5056 114.991 74.8905 114.991Z" fill="#EBD3DB"/>
<path d="M47.9022 131.184C50.2871 131.184 52.2205 129.251 52.2205 126.866C52.2205 124.481 50.2871 122.548 47.9022 122.548C45.5173 122.548 43.584 124.481 43.584 126.866C43.584 129.251 45.5173 131.184 47.9022 131.184Z" fill="#EB5E8E"/>
<path d="M79.7499 67.4905C82.1348 67.4905 84.0681 65.5571 84.0681 63.1722C84.0681 60.7873 82.1348 58.854 79.7499 58.854C77.365 58.854 75.4316 60.7873 75.4316 63.1722C75.4316 65.5571 77.365 67.4905 79.7499 67.4905Z" fill="#3DC2EB"/>
<path d="M102.959 97.1785C105.344 97.1785 107.277 95.2451 107.277 92.8602C107.277 90.4753 105.344 88.542 102.959 88.542C100.574 88.542 98.6406 90.4753 98.6406 92.8602C98.6406 95.2451 100.574 97.1785 102.959 97.1785Z" fill="#FFA600"/>
<path d="M173.672 129.565C176.057 129.565 177.99 127.632 177.99 125.247C177.99 122.862 176.057 120.929 173.672 120.929C171.287 120.929 169.354 122.862 169.354 125.247C169.354 127.632 171.287 129.565 173.672 129.565Z" fill="#79EB2D"/>
<path d="M120.773 51.8367C123.158 51.8367 125.092 49.9033 125.092 47.5184C125.092 45.1335 123.158 43.2002 120.773 43.2002C118.388 43.2002 116.455 45.1335 116.455 47.5184C116.455 49.9033 118.388 51.8367 120.773 51.8367Z" fill="#FFF000"/>
<path d="M143.443 102.036C145.828 102.036 147.761 100.103 147.761 97.7181C147.761 95.3332 145.828 93.3999 143.443 93.3999C141.058 93.3999 139.125 95.3332 139.125 97.7181C139.125 100.103 141.058 102.036 143.443 102.036Z" fill="#8052FF"/>
<path d="M154.238 69.6497C156.623 69.6497 158.556 67.7163 158.556 65.3314C158.556 62.9465 156.623 61.0132 154.238 61.0132C151.853 61.0132 149.92 62.9465 149.92 65.3314C149.92 67.7163 151.853 69.6497 154.238 69.6497Z" fill="#5EEBB3"/>
<path d="M123.471 134.963C125.855 134.963 127.789 133.029 127.789 130.644C127.789 128.26 125.855 126.326 123.471 126.326C121.086 126.326 119.152 128.26 119.152 130.644C119.152 133.029 121.086 134.963 123.471 134.963Z" fill="#A45EEB"/>
<path opacity="0.56" d="M29.0098 173.287L41.9645 228.884" stroke="#49A5B0" stroke-width="3" stroke-miterlimit="10" stroke-linecap="round" stroke-linejoin="round"/>
<path opacity="0.56" d="M182.308 173.46L169.354 229.424" stroke="#49A5B0" stroke-width="3" stroke-miterlimit="10" stroke-linecap="round" stroke-linejoin="round"/>
<path opacity="0.56" d="M55.916 182.097L63.4729 237.155" stroke="#49A5B0" stroke-width="3" stroke-miterlimit="10" stroke-linecap="round" stroke-linejoin="round"/>
<path opacity="0.56" d="M155.408 180.132L147.852 235.189" stroke="#49A5B0" stroke-width="3" stroke-miterlimit="10" stroke-linecap="round" stroke-linejoin="round"/>
<path opacity="0.56" d="M79.3828 185.163L84.4351 241.667" stroke="#49A5B0" stroke-width="3" stroke-miterlimit="10" stroke-linecap="round" stroke-linejoin="round"/>
<path opacity="0.56" d="M131.935 183.176L126.883 239.68" stroke="#49A5B0" stroke-width="3" stroke-miterlimit="10" stroke-linecap="round" stroke-linejoin="round"/>
<path opacity="0.56" d="M106.025 188.768L106.738 243.091" stroke="#49A5B0" stroke-width="3" stroke-miterlimit="10" stroke-linecap="round" stroke-linejoin="round"/>
<path opacity="0.2" d="M110.734 10.4685C119.068 15.2186 126.711 21.2857 133.491 28.6267C136.47 31.8438 139.213 36.7018 141.156 42.3155C141.868 44.3883 143.596 45.9428 145.711 46.461C147.957 47.0224 159.422 50.1747 164.194 57.4725C165.014 58.7464 165.575 60.0203 165.899 61.3589C166.094 62.201 166.266 63.1294 166.396 64.0794C166.59 65.5908 167.324 66.9942 168.447 68.0306C171.103 70.4704 175.572 76.0841 175.594 86.232C175.594 88.607 175.27 90.8957 174.622 93.0548C173.953 95.3651 174.579 97.848 176.306 99.5106C177.148 100.331 178.163 100.892 179.264 101.173C180.776 102.145 182.136 103.224 183.28 104.412C190.038 111.256 187.857 119.159 184.835 124.6C183.647 126.715 183.755 129.328 185.115 131.336C186.324 133.15 188.354 134.208 190.492 134.208C190.729 134.208 190.988 134.186 191.247 134.164C191.42 134.143 191.614 134.143 191.787 134.143C193.169 134.143 194.292 134.791 195.22 136.108C195.479 136.475 195.738 136.82 196.019 137.187C196.904 138.353 196.904 138.439 196.926 138.828C196.947 141.16 198.243 143.319 200.294 144.442C200.963 144.809 201.676 145.046 202.41 145.154C201.849 146.73 201.266 148.393 200.683 150.142C199.927 152.409 200.488 154.914 202.151 156.641C202.561 157.073 203.014 157.44 203.511 157.742L202.043 162.039C196.3 178.88 190.34 196.282 185.267 213.793C185.029 214.57 184.813 215.39 184.576 216.211C182.546 223.358 180.257 231.476 175.486 235.276C171.016 238.838 165.165 241.062 160.048 242.768C145.517 247.605 128.546 249.936 108.164 249.936C107.236 249.936 106.286 249.936 105.358 249.915C79.5992 249.656 60.3615 246.266 44.8374 239.27C38.5976 236.463 34.0202 233.613 31.9907 228.928C27.9963 219.709 24.8656 209.669 21.8212 199.931C21.1735 197.858 20.5258 195.764 19.8564 193.713C18.453 189.308 17.1359 184.645 15.8405 180.154C13.3791 171.517 10.8529 162.622 7.46309 154.179C7.65741 153.985 7.83014 153.769 7.98127 153.532C9.19038 151.848 9.49266 149.667 8.82333 147.702L7.98127 145.241C7.9165 145.068 7.87332 144.895 7.80854 144.723C8.19719 144.485 8.56424 144.204 8.8881 143.902C9.69452 143.136 10.2922 142.176 10.6247 141.115C10.9571 140.053 11.0134 138.924 10.7881 137.835C10.2699 135.374 10.6154 133.733 11.22 133.193C11.8677 132.61 12.3643 132.394 12.6018 132.394C12.6234 132.394 12.7097 132.394 12.8393 132.459C13.8009 132.851 14.8431 133.005 15.877 132.907C16.9109 132.809 17.9058 132.463 18.7769 131.897C20.5473 130.753 21.6485 128.831 21.7349 126.715C21.778 125.744 22.2315 124.664 22.5769 123.995C23.3542 123.131 23.894 122.073 24.1315 120.907C24.4769 119.18 24.1099 117.366 23.0735 115.92C21.3246 113.415 18.9712 108.557 19.6837 105.34C19.878 104.433 20.3746 103.246 22.4905 102.037C24.3474 100.979 25.5565 99.0787 25.7292 96.9412C25.8804 95.0196 26.5713 90.0752 29.5725 85.6706C32.7032 81.0717 37.6907 78.3728 44.3624 77.6603C45.857 77.5061 47.2508 76.8351 48.3033 75.7629C49.3558 74.6906 50.0009 73.2846 50.1273 71.7875V71.6579C50.9261 64.6408 54.1432 56.8032 71.4162 47.1735C77.4185 43.8269 82.6004 41.4087 87.1777 39.2711C96.1165 35.104 103.177 31.8006 107.97 25.0426C110.734 21.1777 111.641 16.2334 110.734 10.4685ZM104.667 0.450195C104.148 0.450195 103.673 0.601334 103.242 0.838837C102.184 1.44339 101.557 2.71727 102.097 4.03433C104.235 9.17304 106.135 16.4277 102.68 21.3073C96.829 29.5551 85.9902 31.6495 68.2639 41.5382C51.3796 50.952 44.8806 59.9339 43.6931 71.2045V71.2477C33.6532 72.3057 27.7156 76.9262 24.2178 82.0649C20.3746 87.7218 19.4894 93.9184 19.2735 96.4446C6.96649 103.505 16.6177 118.014 17.7621 119.655C17.6757 119.698 17.6109 119.763 17.5246 119.806C17.5246 119.806 15.3871 122.872 15.2359 126.456C14.3723 126.111 13.487 125.938 12.5802 125.938C10.6586 125.938 8.69378 126.737 6.83694 128.443C4.67782 130.408 3.33917 133.97 4.44032 139.217C3.79259 139.044 3.23121 138.958 2.71302 138.958C0.46754 138.958 -0.460881 140.599 0.553905 143.578C1.26641 145.651 1.95733 147.745 2.66984 149.818C0.510721 149.84 -0.417697 151.437 0.510724 154.395C6.08125 167.48 9.34152 182.14 13.6382 195.699C17.4382 207.639 21.0224 220.011 25.9883 231.519C28.9895 238.471 35.3373 242.142 42.1169 245.208C61.5274 253.952 84.1982 256.219 105.228 256.414C106.178 256.414 107.15 256.435 108.1 256.435C126.193 256.435 144.826 254.643 162.034 248.943C168.123 246.914 174.428 244.387 179.48 240.35C186.54 234.715 189.023 223.941 191.442 215.606C197.206 195.656 204.008 176.202 210.701 156.554C211.716 153.575 210.766 151.912 208.52 151.912C208.002 151.912 207.419 151.999 206.771 152.171C207.98 148.501 209.276 144.917 210.744 141.441C211.694 138.461 210.766 136.82 208.585 136.82C207.57 136.82 206.296 137.166 204.828 137.9C204.332 138.137 203.835 138.439 203.338 138.742C203.317 135.589 201.654 134.056 200.488 132.394C198.156 129.069 194.939 127.665 191.744 127.665C191.312 127.665 190.88 127.687 190.448 127.73C195.911 117.906 195.522 107.629 187.857 99.856C186.044 98.0208 183.82 96.2935 181.164 94.7821L180.797 94.89C181.661 91.9536 182.028 89.0388 182.028 86.232C182.028 73.5795 176.22 66.4113 172.787 63.259C172.636 62.093 172.441 60.9487 172.161 59.8475C171.651 57.7388 170.774 55.7362 169.57 53.9316C163.611 44.8201 150.893 41.0848 147.244 40.178C145.107 34.0677 142.041 28.346 138.219 24.2221C129.086 14.3765 118.291 6.34459 105.789 0.730881C105.444 0.53656 105.055 0.450195 104.667 0.450195Z" fill="#424242"/>
<defs>
<radialGradient id="paint0_radial_51_717" cx="0" cy="0" r="1" gradientUnits="userSpaceOnUse" gradientTransform="translate(104.939 134.784) rotate(90) scale(57.6161 90.2153)">
<stop stop-color="#BE5D23"/>
<stop offset="0.158" stop-color="#B65B25"/>
<stop offset="0.407" stop-color="#9F552A"/>
<stop offset="0.715" stop-color="#7A4C33"/>
<stop offset="0.999" stop-color="#52423C"/>
</radialGradient>
<linearGradient id="paint1_linear_51_717" x1="15.2222" y1="122.502" x2="187.878" y2="122.502" gradientUnits="userSpaceOnUse">
<stop stop-color="#FF85AE"/>
<stop offset="0.317" stop-color="#FF7DA9"/>
<stop offset="0.816" stop-color="#FF669A"/>
<stop offset="1" stop-color="#FF5C93"/>
</linearGradient>
<linearGradient id="paint2_linear_51_717" x1="13.0713" y1="91.6528" x2="182.059" y2="91.6528" gradientUnits="userSpaceOnUse">
<stop offset="0.003" stop-color="#FFB0CB"/>
<stop offset="0.792" stop-color="#F383A9"/>
<stop offset="1" stop-color="#F0769F"/>
</linearGradient>
<linearGradient id="paint3_linear_51_717" x1="86.4125" y1="40.8038" x2="155.345" y2="40.8038" gradientUnits="userSpaceOnUse">
<stop stop-color="#F697B7"/>
<stop offset="0.335" stop-color="#F78FB2"/>
<stop offset="0.862" stop-color="#F878A3"/>
<stop offset="1" stop-color="#F9719F"/>
</linearGradient>
<linearGradient id="paint4_linear_51_717" x1="19.2111" y1="76.1749" x2="173.072" y2="76.1749" gradientUnits="userSpaceOnUse">
<stop stop-color="#F78FB2"/>
<stop offset="0.272" stop-color="#F887AD"/>
<stop offset="0.703" stop-color="#FC709F"/>
<stop offset="1" stop-color="#FF5C93"/>
</linearGradient>
<linearGradient id="paint5_linear_51_717" x1="105.661" y1="167.89" x2="105.661" y2="246.957" gradientUnits="userSpaceOnUse">
<stop stop-color="#4FE8FF"/>
<stop offset="0.497" stop-color="#4BDDF3"/>
<stop offset="1" stop-color="#45CEE3"/>
</linearGradient>
</defs>
</svg>
