<svg width="253" height="256" viewBox="0 0 253 256" fill="none" xmlns="http://www.w3.org/2000/svg">
<mask id="mask0_1_19" style="mask-type:luminance" maskUnits="userSpaceOnUse" x="0" y="0" width="253" height="256">
<path d="M252.461 0H0V256H252.461V0Z" fill="white"/>
</mask>
<g mask="url(#mask0_1_19)">
<mask id="mask1_1_19" style="mask-type:alpha" maskUnits="userSpaceOnUse" x="-18" y="-20" width="284" height="276">
<path d="M265.438 123.871C265.438 200.101 220.156 256 143.926 256C67.6961 256 22.4147 219.567 22.4147 143.336C22.4147 109.943 -32.7126 21.5134 -12.977 -2.35944C12.3399 -32.9839 82.2138 -14.1567 125.051 -14.1567C201.281 -14.1567 265.438 47.6408 265.438 123.871Z" fill="white"/>
</mask>
<g mask="url(#mask1_1_19)">
<path d="M118.97 79.5518C104.657 81.3918 97.0501 77.1582 92.4698 92.2492C92.4698 92.2492 107.847 117.923 148.827 117.279C146.537 127.769 147.6 135.498 147.6 144.792C147.6 175.712 125.514 202.673 76.8467 202.673C52.1436 202.673 22.1255 207.642 -0.777679 221.537C-17.0551 231.383 -29.7907 245.647 -35.4264 265.431L-29.0377 275.462L-16.8095 275.645V332.421L-31.7301 358.464L-27.4416 433.919H-13.2912L-12.0641 373.185C-5.02966 368.585 11.0837 356.622 24.8254 338.218C43.4745 313.464 57.789 277.485 40.9386 232.948L53.5359 226.967C67.3591 263.5 62.5332 295.154 50.4274 320.642C73.5751 319.815 93.4513 318.158 110.302 315.03L106.457 263.222L120.036 261.934L132.958 433.919H147.027L149.399 321.931C160.605 316.594 186.126 296.994 198.067 228.899C199.54 220.617 200.358 213.623 200.767 207.642C202.648 192.46 203.711 175.343 204.039 155.834L183.999 148.75H245.59L251.562 133.566C245.754 133.843 238.802 130.437 238.802 130.437L240.193 123.077H253.116L183.18 82.3118C175.411 85.6243 167.231 89.9492 161.504 95.1943C156.924 91.513 141.056 80.0118 118.97 79.5518Z" fill="#EA9E44"/>
<path d="M0.203796 4.1412L13.3728 0C19.7528 25.581 27.6872 39.5684 37.6661 46.6545C46.6634 52.6998 58.8509 52.8658 71.7752 52.0833C68.0124 50.7033 64.4951 48.7708 61.2235 46.1021C53.9434 40.1209 47.7275 30.1823 43.0647 12.1474L56.1521 7.82121C59.6692 21.441 63.7593 29.2622 69.2395 33.771C74.7207 38.1885 81.3454 39.2922 89.1971 40.2122C103.92 42.0534 122.324 42.7896 145.31 54.752C148.419 56.0396 151.609 57.6958 154.716 59.537C154.307 58.617 153.898 57.6958 153.325 56.6845C149.399 49.7821 141.711 42.5133 127.477 36.6246L132.058 22.2686C155.207 31.6547 164.367 44.9971 168.048 55.5796C172.302 67.6344 169.684 77.0669 169.684 77.0669C166.413 78.2631 163.142 79.9193 159.378 81.2069C152.262 75.7781 145.555 71.6832 139.176 68.462C115.618 58.617 92.5513 65.3344 72.1023 67.4507C56.7249 69.0156 42.656 68.2781 30.4686 59.6283C18.4442 51.1633 7.89254 34.9684 0.203796 4.1412Z" fill="#C16929"/>
<path d="M90.1787 28.8022C87.4798 21.9923 85.8441 13.6186 86.5799 3.31248L100.159 4.41744C99.3402 16.9312 103.266 25.3973 107.683 30.9185C101.957 29.8147 96.4772 29.6855 90.1787 28.8022ZM176.064 27.2373L184.981 15.7349C208.128 38.3722 193.732 70.7631 193.732 70.7631L181.055 69.1982C180.645 61.8003 179.828 48.0524 173.937 40.3047C177.782 42.4861 181.055 44.8869 184.653 48.4945C184.653 41.7772 182.772 33.8635 176.064 27.2373Z" fill="#C16929"/>
</g>
</g>
</svg>
