<svg width="257" height="226" viewBox="0 0 257 226" fill="none" xmlns="http://www.w3.org/2000/svg">
<path d="M254.676 107.802C256.566 111.076 256.566 115.11 254.676 118.385L195.968 220.071C194.077 223.345 190.583 225.362 186.803 225.362H69.3851C65.6044 225.362 62.1106 223.345 60.2205 220.071L1.51154 118.385C-0.378845 115.11 -0.378845 111.076 1.51154 107.802L60.2205 6.11548C62.1106 2.84122 65.6044 0.824219 69.3851 0.824219H186.803C190.583 0.824219 194.077 2.84127 195.968 6.11553L254.676 107.802Z" fill="#32A9C3"/>
<path d="M221.996 161.197C221.996 164.978 219.979 168.472 216.705 170.362L133.348 218.488C130.073 220.379 126.039 220.379 122.765 218.488L39.4085 170.362C36.1342 168.472 34.1172 164.978 34.1172 161.197V64.9451C34.1172 61.1644 36.1342 57.6706 39.4085 55.78L122.766 7.65411C126.04 5.76373 130.073 5.76373 133.348 7.65411L216.705 55.78C219.979 57.6706 221.996 61.1644 221.996 64.9451V161.197Z" fill="white" fill-opacity="0.5"/>
<path d="M209.707 108.1C211.408 111.047 211.408 114.678 209.707 117.625L172.875 181.419C171.174 184.366 168.03 186.181 164.627 186.181H90.9632C87.5609 186.181 84.4162 184.366 82.7151 181.419L45.8834 117.625C44.1821 114.678 44.1821 111.047 45.8834 108.1L82.7151 44.3061C84.4162 41.3594 87.5609 39.5439 90.9632 39.5439H164.627C168.03 39.5439 171.174 41.3594 172.875 44.3061L209.707 108.1Z" fill="white" fill-opacity="0.5"/>
<path d="M176.752 80.5294C179.044 81.8522 180.456 84.2979 180.456 86.9446L180.456 139.241C180.456 141.887 179.044 144.333 176.752 145.656L131.462 171.805C129.17 173.127 126.346 173.127 124.054 171.805L78.7645 145.656C76.4723 144.333 75.0605 141.887 75.0605 139.241V86.9446C75.0605 84.2979 76.4723 81.8522 78.7645 80.5294L124.054 54.3808C126.346 53.058 129.17 53.058 131.462 54.3808L176.752 80.5294Z" fill="white"/>
<path d="M160.106 92.0136C161.743 92.9591 162.752 94.7058 162.752 96.5964V130.171C162.752 132.061 161.743 133.809 160.106 134.754L131.029 151.541C129.392 152.486 127.375 152.486 125.738 151.541L96.6613 134.754C95.0241 133.809 94.0156 132.061 94.0156 130.171V96.5964C94.0156 94.7058 95.0241 92.9591 96.6613 92.0136L125.738 75.2263C127.375 74.2813 129.392 74.2813 131.029 75.2263L160.106 92.0136Z" fill="#32A9C3"/>
</svg>
