<svg width="257" height="247" viewBox="0 0 257 247" fill="none" xmlns="http://www.w3.org/2000/svg">
<path d="M149.53 67.224L0.89124 96.924C0.446555 97.013 0.425143 96.9537 0.827007 96.7462L187.679 0.936254C187.732 0.910193 187.793 0.90594 187.85 0.924399C187.906 0.942857 187.953 0.98257 187.98 1.03508L256.521 134.663C256.532 134.685 256.539 134.709 256.54 134.734C256.542 134.758 256.539 134.783 256.531 134.806C256.523 134.83 256.511 134.851 256.495 134.87C256.479 134.889 256.459 134.904 256.437 134.915L199.725 164.017C199.674 164.043 199.614 164.048 199.56 164.03C199.505 164.013 199.46 163.974 199.433 163.923L149.979 67.4414C149.884 67.2569 149.734 67.1845 149.53 67.224Z" fill="black"/>
<path d="M48.3688 118.985L256.412 190.97C256.434 190.978 256.453 190.991 256.468 191.008C256.483 191.025 256.493 191.045 256.498 191.067C256.503 191.089 256.503 191.111 256.496 191.133C256.49 191.154 256.478 191.172 256.462 191.187L198.465 246.427C198.323 246.566 198.177 246.571 198.025 246.442L48.2996 119.163C48.0328 118.936 48.0559 118.877 48.3688 118.985Z" fill="#FFAD33"/>
</svg>
