<svg width="256" height="256" viewBox="0 0 256 256" fill="none" xmlns="http://www.w3.org/2000/svg">
<path d="M211.248 89.5038C235.964 89.5038 256 69.4677 256 44.7519C256 20.0361 235.964 0 211.248 0C186.532 0 166.496 20.0361 166.496 44.7519C166.496 69.4677 186.532 89.5038 211.248 89.5038Z" fill="#CB7676"/>
<path d="M256 46.1954H0V108.752H256V46.1954Z" fill="#4B9978"/>
<path d="M105.348 138.996C104.914 133.574 102.88 129.344 99.2472 126.308C95.6682 123.271 90.2184 121.753 82.8979 121.753C78.2345 121.753 74.4115 122.322 71.429 123.461C68.5008 124.546 66.3317 126.037 64.9219 127.935C63.512 129.832 62.78 132.002 62.7257 134.441C62.6172 136.448 62.9697 138.265 63.7832 139.891C64.6508 141.464 66.0064 142.901 67.8501 144.202C69.6938 145.449 72.0526 146.589 74.9267 147.619C77.8006 148.649 81.2169 149.571 85.1754 150.385L98.8401 153.312C108.059 155.265 115.949 157.84 122.51 161.039C129.071 164.239 134.44 168.008 138.615 172.346C142.791 176.629 145.855 181.456 147.806 186.824C149.813 192.192 150.844 198.049 150.898 204.394C150.844 215.347 148.105 224.62 142.682 232.212C137.259 239.804 129.505 245.578 119.419 249.537C109.387 253.496 97.3223 255.475 83.2233 255.475C68.7449 255.475 56.1101 253.333 45.319 249.05C34.5822 244.765 26.2314 238.176 20.2665 229.284C14.3558 220.336 11.3734 208.894 11.3192 194.958H54.2664C54.5375 200.055 55.8119 204.339 58.0894 207.81C60.3669 211.281 63.5662 213.91 67.6875 215.7C71.8629 217.489 76.8245 218.384 82.5725 218.384C87.3987 218.384 91.4386 217.788 94.6921 216.594C97.946 215.402 100.413 213.747 102.094 211.633C103.775 209.518 104.642 207.105 104.697 204.394C104.642 201.845 103.802 199.621 102.176 197.723C100.603 195.772 97.9999 194.036 94.3668 192.518C90.7336 190.945 85.8261 189.481 79.6443 188.125L63.0511 184.547C48.3015 181.347 36.67 176.006 28.1564 168.523C19.6972 160.986 15.4946 150.71 15.5488 137.695C15.4946 127.121 18.3144 117.875 24.0082 109.959C29.7562 101.987 37.7002 95.7784 47.8406 91.3318C58.0351 86.8853 69.7209 84.662 82.8979 84.662C96.3465 84.662 107.977 86.9124 117.793 91.4132C127.607 95.914 135.172 102.259 140.486 110.447C145.855 118.581 148.566 128.097 148.621 138.996H105.348Z" fill="#83D0DA"/>
<path d="M208.842 256L208.842 0L146.286 0V256H208.842Z" fill="#E6CC78"/>
</svg>
