<svg width="175" height="251" viewBox="0 0 175 251" fill="none" xmlns="http://www.w3.org/2000/svg">
<path d="M172.5 48.5L86.976 1L0 50V98.5L131.5 175L86.976 201.15L0 150.326V200.626L86.976 249.877L173.952 200.626V200.486L173.976 200.5V150L42.1899 74.2504L86.976 48L172.5 98.667V48.5Z" fill="#F8ECCF"/>
<path d="M0.523987 172.332V150.326L87.5 201.15V221.584L0.523987 172.332Z" fill="#183F66" fill-opacity="0.8"/>
<path d="M87.5 21.4341V1L172.904 48.1557L173.428 69.6377L87.5 21.4341Z" fill="#E23D1E" fill-opacity="0.8"/>
<path d="M0.523987 70.6856V49.2036L173.952 149.278V172.332L0.523987 70.6856Z" fill="#EAB836"/>
<path d="M0.523987 200.626V178.62L87.5 229.443V249.877L0.523987 200.626Z" fill="#183F66" fill-opacity="0.8"/>
<path d="M87.5 48.1557V27.7216L172.904 78.021V98.455L87.5 48.1557Z" fill="#E23D1E" fill-opacity="0.8"/>
<path d="M0 98.5L0.523998 76.9731L175 179.144V199.578L0 98.5Z" fill="#E5A604" fill-opacity="0.8"/>
<path d="M174.476 172.332V150.326L87.5 201.15V221.584L174.476 172.332Z" fill="#183F66" fill-opacity="0.8"/>
<path d="M87.5 21.4341V1L0.523987 50.2515V70.6856L87.5 21.4341Z" fill="#E23D1E" fill-opacity="0.8"/>
<path d="M174.476 200.626V178.62L87.5 229.443V249.877L174.476 200.626Z" fill="#183F66" fill-opacity="0.8"/>
<path d="M86.452 48.6796V27.7216L0.523987 78.5449V98.979L86.452 48.6796Z" fill="#E23D1E" fill-opacity="0.8"/>
<path d="M132.036 174.952L0.523987 98.455V49.7275L87.5 1L172.904 48.1557V98.455L87.5 48.1557L44.012 73.8293M132.036 174.952L87.5 200.626M132.036 174.952L174.476 149.818M44.012 73.8293L174.476 149.818M44.012 73.8293L0.523987 98.979M87.5 200.626L0.523987 149.818V200.626L87.5 249.877M87.5 200.626V249.877M174.476 149.818V200.626L87.5 249.877M86.976 1V48.1557M86.452 98.979V147.707" stroke="black"/>
</svg>
