<svg width="236" height="256" viewBox="0 0 236 256" fill="none" xmlns="http://www.w3.org/2000/svg">
<path d="M123.082 45.0082C123.082 20.1892 102.892 0 78.0737 0C51.9176 0 36.2806 19.6106 36.2806 38.5782H61.9994C61.9994 33.2416 66.9889 25.7188 78.0737 25.7188C88.7084 25.7188 97.3628 34.3734 97.3628 45.0082C97.3628 55.6429 89.6001 64.2973 70.0245 64.2973H0V90.0161H70.0245C103.063 90.0161 123.082 69.8269 123.082 45.0082ZM123.082 45.0082C123.082 20.1892 102.892 0 78.0737 0C51.9176 0 36.2806 19.6106 36.2806 38.5782H61.9994C61.9994 33.2416 66.9889 25.7188 78.0737 25.7188C88.7084 25.7188 97.3628 34.3734 97.3628 45.0082C97.3628 55.6429 89.6001 64.2973 70.0245 64.2973H0V90.0161H70.0245C103.063 90.0161 123.082 69.8269 123.082 45.0082Z" fill="url(#paint0_linear_49_258)"/>
<path d="M180.137 210.992C180.137 235.812 159.947 256 135.129 256C108.973 256 93.3354 236.39 93.3354 217.422H119.054C119.054 222.758 124.044 230.282 135.129 230.282C145.763 230.282 154.418 221.627 154.418 210.992C154.418 200.357 144.638 191.703 127.08 191.703H49.375V165.984H127.08C160.118 165.984 180.137 186.173 180.137 210.992ZM180.137 210.992C180.137 235.812 159.947 256 135.129 256C108.973 256 93.3354 236.39 93.3354 217.422H119.054C119.054 222.758 124.044 230.282 135.129 230.282C145.763 230.282 154.418 221.627 154.418 210.992C154.418 200.357 144.638 191.703 127.08 191.703H49.375V165.984H127.08C160.118 165.984 180.137 186.173 180.137 210.992Z" fill="url(#paint1_linear_49_258)"/>
<path d="M186.88 39.6802C158.512 39.6802 138.501 61.2531 138.501 89.621H161.28C161.28 75.5202 171.52 65.2802 186.88 65.2802C202.24 65.2802 209.92 75.5202 209.92 89.621C209.92 103.722 199.945 115.34 172.8 115.34H0V141.059H176.64C216.84 141.059 235.52 115.221 235.52 89.621C235.52 61.2531 216.32 39.6802 186.88 39.6802Z" fill="url(#paint2_linear_49_258)"/>
<path d="M33.7155 165.984H0V191.919H33.7155V165.984Z" fill="url(#paint3_linear_49_258)"/>
<defs>
<linearGradient id="paint0_linear_49_258" x1="20.48" y1="21.76" x2="168.96" y2="256" gradientUnits="userSpaceOnUse">
<stop offset="0.078225" stop-color="#54C8F1"/>
<stop offset="0.572917" stop-color="#41A2EF"/>
<stop offset="1" stop-color="#3386EE"/>
</linearGradient>
<linearGradient id="paint1_linear_49_258" x1="20.4779" y1="21.7597" x2="168.958" y2="256" gradientUnits="userSpaceOnUse">
<stop offset="0.078225" stop-color="#54C8F1"/>
<stop offset="0.572917" stop-color="#41A2EF"/>
<stop offset="1" stop-color="#3386EE"/>
</linearGradient>
<linearGradient id="paint2_linear_49_258" x1="20.48" y1="21.7602" x2="168.96" y2="256" gradientUnits="userSpaceOnUse">
<stop offset="0.078225" stop-color="#54C8F1"/>
<stop offset="0.572917" stop-color="#41A2EF"/>
<stop offset="1" stop-color="#3386EE"/>
</linearGradient>
<linearGradient id="paint3_linear_49_258" x1="20.48" y1="21.7598" x2="168.96" y2="256" gradientUnits="userSpaceOnUse">
<stop offset="0.078225" stop-color="#54C8F1"/>
<stop offset="0.572917" stop-color="#41A2EF"/>
<stop offset="1" stop-color="#3386EE"/>
</linearGradient>
</defs>
</svg>
