<svg width="257" height="167" viewBox="0 0 257 167" fill="none" xmlns="http://www.w3.org/2000/svg">
<path d="M86.2289 166.097L144.113 0.944955C144.159 0.817784 144.244 0.707956 144.355 0.630296C144.466 0.552635 144.598 0.510882 144.733 0.510671L169.57 0.48999C169.676 0.490156 169.781 0.515977 169.876 0.565262C169.97 0.614547 170.051 0.685843 170.112 0.773106C170.173 0.860369 170.212 0.961024 170.225 1.06654C170.239 1.17206 170.227 1.27932 170.19 1.37924L112.637 166.531C112.591 166.658 112.506 166.768 112.396 166.846C112.285 166.923 112.153 166.965 112.017 166.965L86.8493 166.986C86.7429 166.986 86.6381 166.96 86.5438 166.911C86.4495 166.862 86.3685 166.79 86.3076 166.703C86.2467 166.616 86.2078 166.515 86.1941 166.41C86.1804 166.304 86.1923 166.197 86.2289 166.097Z" fill="#3465A4"/>
<path d="M28.5105 85.0099L81.1002 105.235C81.2481 105.291 81.369 105.402 81.4382 105.544C81.5074 105.686 81.5196 105.849 81.4725 106L75.0409 125.667C75.0135 125.748 74.9698 125.822 74.9126 125.885C74.8553 125.948 74.7858 125.998 74.7082 126.033C74.6306 126.068 74.5467 126.086 74.4616 126.088C74.3766 126.089 74.2922 126.072 74.2137 126.039L0.592284 95.3086C0.480001 95.2596 0.384732 95.1785 0.318488 95.0754C0.252243 94.9724 0.21799 94.852 0.220043 94.7295V74.1528C0.21799 74.0303 0.252243 73.9099 0.318488 73.8069C0.384732 73.7038 0.480001 73.6227 0.592284 73.5737L74.2344 42.8223C74.3128 42.7894 74.3972 42.773 74.4823 42.7741C74.5674 42.7752 74.6513 42.7938 74.7289 42.8287C74.8065 42.8636 74.876 42.9141 74.9333 42.977C74.9905 43.04 75.0342 43.114 75.0616 43.1945L81.4931 62.8821C81.5403 63.033 81.528 63.1963 81.4589 63.3385C81.3897 63.4808 81.2688 63.5912 81.1209 63.6472L28.5105 83.8518C28.3935 83.8968 28.2928 83.9762 28.2218 84.0796C28.1509 84.183 28.1128 84.3054 28.1128 84.4308C28.1128 84.5562 28.1509 84.6787 28.2218 84.782C28.2928 84.8854 28.3935 84.9648 28.5105 85.0099Z" fill="#333333"/>
<path d="M174.906 62.8407L181.296 43.2359C181.323 43.1477 181.369 43.0661 181.429 42.9966C181.49 42.927 181.565 42.871 181.649 42.832C181.732 42.793 181.823 42.772 181.916 42.7704C182.008 42.7687 182.1 42.7864 182.185 42.8223L255.806 73.5944C255.926 73.6429 256.03 73.7256 256.103 73.8322C256.177 73.9388 256.217 74.0647 256.22 74.1941L256.199 94.7089C256.197 94.8383 256.156 94.9642 256.082 95.0708C256.009 95.1774 255.906 95.26 255.786 95.3086L182.164 126.06C182.079 126.096 181.987 126.114 181.895 126.112C181.803 126.11 181.712 126.089 181.628 126.05C181.544 126.011 181.469 125.955 181.409 125.886C181.348 125.816 181.302 125.735 181.275 125.646L174.926 106.062C174.872 105.9 174.883 105.724 174.956 105.57C175.03 105.416 175.16 105.296 175.319 105.235L227.723 85.0512C227.849 85.0042 227.959 84.9196 228.036 84.8087C228.113 84.6978 228.154 84.5659 228.154 84.4308C228.154 84.2957 228.113 84.1639 228.036 84.053C227.959 83.9421 227.849 83.8574 227.723 83.8104L175.298 63.6679C175.139 63.6073 175.009 63.4874 174.936 63.3333C174.863 63.1791 174.852 63.0026 174.906 62.8407Z" fill="#333333"/>
</svg>
