<svg width="256" height="256" viewBox="0 0 256 256" fill="none" xmlns="http://www.w3.org/2000/svg">
<path d="M256 0H0V256H256V0Z" fill="#222222"/>
<path d="M91.7058 185.647C90.2377 185.647 89.5037 183.689 89.5037 179.758V82.6854C89.5037 80.8095 89.1285 79.9287 88.3619 80.0428L81.3314 81.8045C80.0428 81.9187 79.4066 80.6301 79.4066 77.9386V69.5053C79.4066 67.1727 80.108 65.8514 81.5108 65.5578L104.706 59.5876C104.886 59.5387 105.147 59.5061 105.489 59.5061C106.778 59.5061 107.414 60.8763 107.414 63.633V179.774C107.414 183.705 106.648 185.663 105.131 185.663L91.7058 185.647ZM151.783 185.826C149.434 185.826 147.411 185.663 145.682 185.337C143.953 185.01 142.159 184.276 140.283 183.134C138.407 181.993 136.874 180.427 135.667 178.437C134.459 176.447 133.481 173.657 132.73 170.085C131.98 166.513 131.589 162.271 131.589 157.345V112.292C131.589 111.117 131.262 110.53 130.626 110.53H125.178C123.71 110.53 122.976 109.127 122.976 106.321V101.575C122.976 98.7037 123.71 97.2683 125.178 97.2683H130.626C131.262 97.2683 131.589 96.4853 131.589 94.903L133.171 60.7295C133.35 57.6302 134.101 56.0806 135.455 56.0806H144.247C145.715 56.0806 146.449 57.6302 146.449 60.7295V94.903C146.449 96.4853 146.791 97.2683 147.509 97.2683H158.715C160.183 97.2683 160.917 98.7037 160.917 101.575V106.321C160.917 109.127 160.183 110.53 158.715 110.53H147.476C147.069 110.53 146.791 110.628 146.645 110.84C146.498 111.036 146.432 111.525 146.432 112.292V157.623C146.432 161.015 146.645 163.854 147.085 166.105C147.525 168.356 148.162 170.02 149.01 171.064C149.858 172.108 150.706 172.825 151.554 173.168C152.403 173.527 153.447 173.69 154.67 173.69H160.901C162.483 173.69 163.266 174.783 163.266 176.936V182.205C163.266 184.603 162.418 185.81 160.722 185.81L151.783 185.826ZM185.5 196.363C186.837 196.363 188.012 195.271 189.007 193.068C190.002 190.866 190.507 187.751 190.507 183.705C190.507 182.759 189.92 179.513 188.746 173.951L171.52 102.358C171.406 101.542 171.341 100.89 171.341 100.416C171.341 98.3122 171.781 97.252 172.662 97.252H183.298C184.113 97.252 184.782 97.5293 185.32 98.0839C185.858 98.6385 186.266 99.764 186.544 101.46L197.962 161.896C198.19 162.598 198.337 162.957 198.402 162.957C198.631 162.957 198.761 162.63 198.761 161.994L207.717 101.721C207.945 99.9598 208.32 98.7853 208.809 98.1654C209.299 97.5456 209.935 97.2357 210.702 97.2357H218.075C219.07 97.2357 219.575 98.3775 219.575 100.661C219.575 101.183 219.51 101.868 219.396 102.684L203.753 184.129C202.529 190.866 201.175 196.021 199.707 199.593C198.239 203.166 196.608 205.596 194.781 206.885C192.637 208.271 190.124 208.976 187.571 208.907H186.69C181.944 208.907 178.73 207.651 177.034 205.123C176.561 204.601 176.332 203.247 176.332 201.078C176.332 196.739 177.034 194.569 178.437 194.569C178.551 194.569 179.611 194.863 181.601 195.45C183.624 196.07 184.912 196.363 185.5 196.363ZM47.5004 185.81C46.0323 185.81 45.2983 183.852 45.2983 179.921V82.8485C45.2983 80.9726 44.9231 80.0918 44.1564 80.206L37.126 81.9677C35.8373 82.0818 35.2012 80.7932 35.2012 78.1017V69.6684C35.2012 67.3358 35.9026 66.0146 37.3054 65.7209L60.5173 59.7344C60.6968 59.6855 60.9578 59.6529 61.3003 59.6529C62.589 59.6529 63.2251 61.0231 63.2251 63.7798V179.921C63.2251 183.852 62.4585 185.81 60.9415 185.81H47.5004Z" fill="white" stroke="white" stroke-width="3.56824" stroke-miterlimit="10"/>
</svg>
