<svg width="180" height="256" viewBox="0 0 180 256" fill="none" xmlns="http://www.w3.org/2000/svg">
<path d="M127.641 6.41442C129.732 9.0102 130.798 12.5129 132.93 19.5182L179.517 172.556C162.292 163.62 143.567 157.176 123.82 153.699L93.4876 51.1964C92.9918 49.519 91.4512 48.3683 89.7016 48.3683C87.9478 48.3683 86.4051 49.5251 85.9121 51.2079L55.9474 153.647C36.1084 157.109 17.2981 163.565 0 172.532L46.8151 19.4828C48.9542 12.4895 50.0238 8.99281 52.1152 6.40182C53.9609 4.11445 56.3622 2.33798 59.0893 1.24174C62.1789 0 65.8352 0 73.1482 0H106.586C113.909 0 117.57 0 120.662 1.24433C123.392 2.34284 125.794 4.12289 127.641 6.41442Z" fill="black"/>
<path d="M133.215 179.839C125.536 186.406 110.207 190.884 92.5495 190.884C70.8785 190.884 52.7146 184.138 47.8946 175.065C46.1716 180.264 45.7849 186.216 45.7849 190.018C45.7849 190.018 44.6496 208.687 57.6341 221.672C57.6341 214.929 63.1 209.463 69.8423 209.463C81.3984 209.463 81.3858 219.545 81.3753 227.725C81.3746 227.97 81.3746 228.214 81.3746 228.455C81.3746 240.871 88.9627 251.514 99.754 256C98.1419 252.685 97.238 248.962 97.238 245.028C97.238 233.187 104.189 228.778 112.269 223.654C118.697 219.576 125.84 215.047 130.762 205.96C133.331 201.219 134.789 195.789 134.789 190.018C134.789 186.469 134.237 183.049 133.215 179.839Z" fill="#FF5D01"/>
</svg>
